<svg width="982" height="987" viewBox="0 0 982 987" fill="none" xmlns="http://www.w3.org/2000/svg">
<g filter="url(#filter0_d)">
<ellipse cx="491" cy="489.5" rx="391" ry="393.5" fill="white"/>
</g>
<path d="M212.141 357H207.395V335.502H201.049V357H196.268V331.301H212.141V357ZM230.914 347.174C230.914 350.385 230.234 352.887 228.875 354.68C227.516 356.461 225.652 357.352 223.285 357.352C221.785 357.352 220.461 356.941 219.312 356.121C218.164 355.301 217.279 354.123 216.658 352.588C216.037 351.041 215.727 349.236 215.727 347.174C215.727 343.998 216.4 341.52 217.748 339.738C219.096 337.945 220.965 337.049 223.355 337.049C225.664 337.049 227.498 337.963 228.857 339.791C230.229 341.607 230.914 344.068 230.914 347.174ZM220.508 347.174C220.508 349.213 220.73 350.754 221.176 351.797C221.621 352.84 222.336 353.361 223.32 353.361C225.195 353.361 226.133 351.299 226.133 347.174C226.133 345.123 225.904 343.594 225.447 342.586C225.002 341.566 224.293 341.057 223.32 341.057C222.336 341.057 221.621 341.566 221.176 342.586C220.73 343.594 220.508 345.123 220.508 347.174ZM233.516 345.662C233.516 341.209 234.148 337.811 235.414 335.467C236.691 333.123 238.771 331.529 241.654 330.686C243.154 330.264 245.322 329.854 248.158 329.455L248.703 333.568L245.592 334.061C243.611 334.389 242.129 334.816 241.145 335.344C240.172 335.859 239.439 336.633 238.947 337.664C238.467 338.684 238.18 340.043 238.086 341.742H238.227C238.777 340.758 239.445 340.014 240.23 339.51C241.016 339.006 241.871 338.754 242.797 338.754C244.672 338.754 246.125 339.51 247.156 341.021C248.188 342.533 248.703 344.643 248.703 347.35C248.703 350.49 248.035 352.945 246.699 354.715C245.363 356.473 243.5 357.352 241.109 357.352C238.672 357.352 236.797 356.338 235.484 354.311C234.172 352.283 233.516 349.4 233.516 345.662ZM241.285 353.361C243.043 353.361 243.922 351.516 243.922 347.824C243.922 344.25 243.125 342.463 241.531 342.463C240.84 342.463 240.195 342.744 239.598 343.307C239 343.857 238.566 344.561 238.297 345.416C238.297 350.713 239.293 353.361 241.285 353.361ZM259.215 357.352C256.766 357.352 254.832 356.484 253.414 354.75C252.008 353.004 251.305 350.537 251.305 347.35C251.305 344.115 251.943 341.59 253.221 339.773C254.498 337.957 256.279 337.049 258.564 337.049C260.697 337.049 262.379 337.828 263.609 339.387C264.84 340.934 265.455 343.107 265.455 345.908V348.404H256.051C256.086 350.15 256.443 351.451 257.123 352.307C257.803 353.15 258.74 353.572 259.936 353.572C261.459 353.572 263.018 353.098 264.611 352.148V355.998C263.111 356.9 261.312 357.352 259.215 357.352ZM258.529 340.652C257.861 340.652 257.311 341.01 256.877 341.725C256.443 342.428 256.191 343.523 256.121 345.012H260.867C260.844 343.582 260.627 342.498 260.217 341.76C259.807 341.021 259.244 340.652 258.529 340.652ZM278.006 353.326V341.127H275.703C275.258 346.189 274.408 350.256 273.154 353.326H278.006ZM285.283 363.979H280.643V357H271.713V363.979H267.072V353.326H268.25C269.188 351.439 269.932 349.131 270.482 346.4C271.033 343.67 271.385 340.676 271.537 337.418H282.734V353.326H285.283V363.979ZM292.121 337.418V346.488C292.121 347.613 291.98 349.482 291.699 352.096L298.062 337.418H303.793V357H299.434V347.789C299.434 346.406 299.568 344.543 299.838 342.199L293.457 357H287.779V337.418H292.121ZM319.842 337.418V341.197H315.482V357H310.807V341.197H306.447V337.418H319.842ZM329.703 357.352C327.254 357.352 325.32 356.484 323.902 354.75C322.496 353.004 321.793 350.537 321.793 347.35C321.793 344.115 322.432 341.59 323.709 339.773C324.986 337.957 326.768 337.049 329.053 337.049C331.186 337.049 332.867 337.828 334.098 339.387C335.328 340.934 335.943 343.107 335.943 345.908V348.404H326.539C326.574 350.15 326.932 351.451 327.611 352.307C328.291 353.15 329.229 353.572 330.424 353.572C331.947 353.572 333.506 353.098 335.1 352.148V355.998C333.6 356.9 331.801 357.352 329.703 357.352ZM329.018 340.652C328.35 340.652 327.799 341.01 327.365 341.725C326.932 342.428 326.68 343.523 326.609 345.012H331.355C331.332 343.582 331.115 342.498 330.705 341.76C330.295 341.021 329.732 340.652 329.018 340.652ZM353.223 357H348.529V341.197H345.91C345.676 345.17 345.295 348.322 344.768 350.654C344.252 352.986 343.555 354.68 342.676 355.734C341.809 356.789 340.654 357.316 339.213 357.316C338.334 357.316 337.613 357.188 337.051 356.93V353.08C337.402 353.197 337.76 353.256 338.123 353.256C339.107 353.256 339.875 352.002 340.426 349.494C340.977 346.975 341.398 342.949 341.691 337.418H353.223V357ZM361.854 345.082H363.506C366.119 345.082 368.041 345.557 369.271 346.506C370.514 347.455 371.135 348.891 371.135 350.812C371.135 354.938 368.545 357 363.365 357H357.178V337.418H361.854V345.082ZM366.318 350.918C366.318 350.086 366.066 349.488 365.562 349.125C365.07 348.762 364.279 348.58 363.189 348.58H361.854V353.502H363.26C364.232 353.502 364.982 353.309 365.51 352.922C366.049 352.523 366.318 351.855 366.318 350.918ZM401.053 344.115C401.053 348.369 400.256 351.639 398.662 353.924C397.068 356.209 394.789 357.352 391.824 357.352C388.848 357.352 386.562 356.215 384.969 353.941C383.375 351.656 382.578 348.369 382.578 344.08C382.578 339.826 383.375 336.568 384.969 334.307C386.562 332.033 388.859 330.896 391.859 330.896C394.824 330.896 397.098 332.039 398.68 334.324C400.262 336.598 401.053 339.861 401.053 344.115ZM387.465 344.115C387.465 347.045 387.834 349.277 388.572 350.812C389.311 352.348 390.395 353.115 391.824 353.115C394.707 353.115 396.148 350.115 396.148 344.115C396.148 338.115 394.719 335.115 391.859 335.115C390.406 335.115 389.311 335.883 388.572 337.418C387.834 338.941 387.465 341.174 387.465 344.115ZM416.592 337.418V341.197H412.232V357H407.557V341.197H403.197V337.418H416.592ZM428.914 337.418H433.836L428.475 346.699L434.17 357H429.02L423.904 346.928V357H419.229V337.418H423.904V346.77L428.914 337.418ZM444.945 357.352C444.102 357.352 443.352 357.164 442.695 356.789C442.051 356.402 441.447 355.729 440.885 354.768H440.639C440.826 356.361 440.92 357.322 440.92 357.65V365.648H436.209V337.418H439.83L440.639 339.967H440.85C441.822 338.021 443.234 337.049 445.086 337.049C446.867 337.049 448.262 337.934 449.27 339.703C450.277 341.461 450.781 343.951 450.781 347.174C450.781 350.35 450.26 352.84 449.217 354.645C448.174 356.449 446.75 357.352 444.945 357.352ZM443.504 341.021C442.59 341.021 441.928 341.449 441.518 342.305C441.119 343.148 440.908 344.555 440.885 346.523V347.139C440.885 349.295 441.09 350.865 441.5 351.85C441.91 352.834 442.59 353.326 443.539 353.326C445.18 353.326 446 351.252 446 347.104C446 345.064 445.795 343.541 445.385 342.533C444.986 341.525 444.359 341.021 443.504 341.021ZM458.744 345.082H460.15C462.74 345.082 464.65 345.557 465.881 346.506C467.123 347.455 467.744 348.891 467.744 350.812C467.744 354.938 465.166 357 460.01 357H454.068V337.418H458.744V345.082ZM462.945 350.918C462.945 350.086 462.688 349.488 462.172 349.125C461.668 348.762 460.871 348.58 459.781 348.58H458.744V353.502H459.852C460.848 353.502 461.609 353.309 462.137 352.922C462.676 352.523 462.945 351.855 462.945 350.918ZM475.197 357H470.486V337.418H475.197V357ZM491.193 337.418V341.197H486.834V357H482.158V341.197H477.799V337.418H491.193ZM507.77 347.174C507.77 350.385 507.09 352.887 505.73 354.68C504.371 356.461 502.508 357.352 500.141 357.352C498.641 357.352 497.316 356.941 496.168 356.121C495.02 355.301 494.135 354.123 493.514 352.588C492.893 351.041 492.582 349.236 492.582 347.174C492.582 343.998 493.256 341.52 494.604 339.738C495.951 337.945 497.82 337.049 500.211 337.049C502.52 337.049 504.354 337.963 505.713 339.791C507.084 341.607 507.77 344.068 507.77 347.174ZM497.363 347.174C497.363 349.213 497.586 350.754 498.031 351.797C498.477 352.84 499.191 353.361 500.176 353.361C502.051 353.361 502.988 351.299 502.988 347.174C502.988 345.123 502.76 343.594 502.303 342.586C501.857 341.566 501.148 341.057 500.176 341.057C499.191 341.057 498.477 341.566 498.031 342.586C497.586 343.594 497.363 345.123 497.363 347.174ZM521.234 337.418V341.197H515.732V357H511.057V337.418H521.234ZM538.391 347.174C538.391 350.385 537.711 352.887 536.352 354.68C534.992 356.461 533.129 357.352 530.762 357.352C529.262 357.352 527.938 356.941 526.789 356.121C525.641 355.301 524.756 354.123 524.135 352.588C523.514 351.041 523.203 349.236 523.203 347.174C523.203 343.998 523.877 341.52 525.225 339.738C526.572 337.945 528.441 337.049 530.832 337.049C533.141 337.049 534.975 337.963 536.334 339.791C537.705 341.607 538.391 344.068 538.391 347.174ZM527.984 347.174C527.984 349.213 528.207 350.754 528.652 351.797C529.098 352.84 529.812 353.361 530.797 353.361C532.672 353.361 533.609 351.299 533.609 347.174C533.609 345.123 533.381 343.594 532.924 342.586C532.479 341.566 531.77 341.057 530.797 341.057C529.812 341.057 529.098 341.566 528.652 342.586C528.207 343.594 527.984 345.123 527.984 347.174ZM570.805 357H566.621V341.092C566.281 342.99 565.801 345.123 565.18 347.49L562.631 357H558.658L556.109 347.455C555.559 345.404 555.078 343.283 554.668 341.092V357H550.572V337.418H557.305L559.678 346.559C560.193 348.598 560.504 350.496 560.609 352.254C560.656 351.656 560.779 350.818 560.979 349.74C561.189 348.662 561.424 347.602 561.682 346.559L564.107 337.418H570.805V357ZM581.949 357.352C579.5 357.352 577.566 356.484 576.148 354.75C574.742 353.004 574.039 350.537 574.039 347.35C574.039 344.115 574.678 341.59 575.955 339.773C577.232 337.957 579.014 337.049 581.299 337.049C583.432 337.049 585.113 337.828 586.344 339.387C587.574 340.934 588.189 343.107 588.189 345.908V348.404H578.785C578.82 350.15 579.178 351.451 579.857 352.307C580.537 353.15 581.475 353.572 582.67 353.572C584.193 353.572 585.752 353.098 587.346 352.148V355.998C585.846 356.9 584.047 357.352 581.949 357.352ZM581.264 340.652C580.596 340.652 580.045 341.01 579.611 341.725C579.178 342.428 578.926 343.523 578.855 345.012H583.602C583.578 343.582 583.361 342.498 582.951 341.76C582.541 341.021 581.979 340.652 581.264 340.652ZM599.088 346.805V337.418H603.588V346.805L608.492 337.418H613.344L608.088 346.699L613.678 357H608.598L603.588 346.928V357H599.088V346.928L594.061 357H588.98L594.553 346.699L589.332 337.418H594.201L599.088 346.805ZM625.139 353.326V341.127H622.836C622.391 346.189 621.541 350.256 620.287 353.326H625.139ZM632.416 363.979H627.775V357H618.846V363.979H614.205V353.326H615.383C616.32 351.439 617.064 349.131 617.615 346.4C618.166 343.67 618.518 340.676 618.67 337.418H629.867V353.326H632.416V363.979ZM632.926 337.418H637.777L640.484 348.475C640.754 349.459 640.971 350.836 641.135 352.605H641.24C641.252 352.324 641.305 351.826 641.398 351.111C641.492 350.385 641.568 349.816 641.627 349.406C641.686 348.996 642.494 345 644.053 337.418H648.975L643.367 358.406C642.688 360.984 641.785 362.836 640.66 363.961C639.535 365.086 638.035 365.648 636.16 365.648C635.234 365.648 634.408 365.549 633.682 365.35V361.43C634.162 361.57 634.701 361.641 635.299 361.641C636.869 361.641 637.9 360.609 638.393 358.547L638.727 357.316L632.926 337.418ZM655.654 337.418V345.047H660.945V337.418H665.656V357H660.945V348.791H655.654V357H650.979V337.418H655.654ZM679.209 357L678.277 354.328H678.172C677.48 355.477 676.766 356.268 676.027 356.701C675.289 357.135 674.357 357.352 673.232 357.352C671.791 357.352 670.654 356.812 669.822 355.734C669.002 354.656 668.592 353.156 668.592 351.234C668.592 349.172 669.154 347.643 670.279 346.646C671.416 345.639 673.109 345.082 675.359 344.977L677.961 344.871V343.465C677.961 341.637 677.17 340.723 675.588 340.723C674.416 340.723 673.068 341.18 671.545 342.094L669.928 338.859C671.873 337.629 673.988 337.014 676.273 337.014C678.348 337.014 679.924 337.611 681.002 338.807C682.092 339.99 682.637 341.672 682.637 343.852V357H679.209ZM675.148 353.695C676.004 353.695 676.684 353.314 677.188 352.553C677.703 351.779 677.961 350.754 677.961 349.477V347.824L676.52 347.895C675.453 347.953 674.668 348.258 674.164 348.809C673.672 349.359 673.426 350.18 673.426 351.27C673.426 352.887 674 353.695 675.148 353.695ZM695.152 357.352C694.309 357.352 693.559 357.164 692.902 356.789C692.258 356.402 691.654 355.729 691.092 354.768H690.846C691.033 356.361 691.127 357.322 691.127 357.65V365.648H686.416V337.418H690.037L690.846 339.967H691.057C692.029 338.021 693.441 337.049 695.293 337.049C697.074 337.049 698.469 337.934 699.477 339.703C700.484 341.461 700.988 343.951 700.988 347.174C700.988 350.35 700.467 352.84 699.424 354.645C698.381 356.449 696.957 357.352 695.152 357.352ZM693.711 341.021C692.797 341.021 692.135 341.449 691.725 342.305C691.326 343.148 691.115 344.555 691.092 346.523V347.139C691.092 349.295 691.297 350.865 691.707 351.85C692.117 352.834 692.797 353.326 693.746 353.326C695.387 353.326 696.207 351.252 696.207 347.104C696.207 345.064 696.002 343.541 695.592 342.533C695.193 341.525 694.566 341.021 693.711 341.021ZM718.777 347.174C718.777 350.385 718.098 352.887 716.738 354.68C715.379 356.461 713.516 357.352 711.148 357.352C709.648 357.352 708.324 356.941 707.176 356.121C706.027 355.301 705.143 354.123 704.521 352.588C703.9 351.041 703.59 349.236 703.59 347.174C703.59 343.998 704.264 341.52 705.611 339.738C706.959 337.945 708.828 337.049 711.219 337.049C713.527 337.049 715.361 337.963 716.721 339.791C718.092 341.607 718.777 344.068 718.777 347.174ZM708.371 347.174C708.371 349.213 708.594 350.754 709.039 351.797C709.484 352.84 710.199 353.361 711.184 353.361C713.059 353.361 713.996 351.299 713.996 347.174C713.996 345.123 713.768 343.594 713.311 342.586C712.865 341.566 712.156 341.057 711.184 341.057C710.199 341.057 709.484 341.566 709.039 342.586C708.594 343.594 708.371 345.123 708.371 347.174ZM731.521 353.326V341.127H729.219C728.773 346.189 727.924 350.256 726.67 353.326H731.521ZM738.799 363.979H734.158V357H725.229V363.979H720.588V353.326H721.766C722.703 351.439 723.447 349.131 723.998 346.4C724.549 343.67 724.9 340.676 725.053 337.418H736.25V353.326H738.799V363.979ZM745.971 337.418V345.047H751.262V337.418H755.973V357H751.262V348.791H745.971V357H741.295V337.418H745.971ZM774.43 347.174C774.43 350.385 773.75 352.887 772.391 354.68C771.031 356.461 769.168 357.352 766.801 357.352C765.301 357.352 763.977 356.941 762.828 356.121C761.68 355.301 760.795 354.123 760.174 352.588C759.553 351.041 759.242 349.236 759.242 347.174C759.242 343.998 759.916 341.52 761.264 339.738C762.611 337.945 764.48 337.049 766.871 337.049C769.18 337.049 771.014 337.963 772.373 339.791C773.744 341.607 774.43 344.068 774.43 347.174ZM764.023 347.174C764.023 349.213 764.246 350.754 764.691 351.797C765.137 352.84 765.852 353.361 766.836 353.361C768.711 353.361 769.648 351.299 769.648 347.174C769.648 345.123 769.42 343.594 768.963 342.586C768.518 341.566 767.809 341.057 766.836 341.057C765.852 341.057 765.137 341.566 764.691 342.586C764.246 343.594 764.023 345.123 764.023 347.174ZM787.895 337.418V341.197H782.393V357H777.717V337.418H787.895ZM805.051 347.174C805.051 350.385 804.371 352.887 803.012 354.68C801.652 356.461 799.789 357.352 797.422 357.352C795.922 357.352 794.598 356.941 793.449 356.121C792.301 355.301 791.416 354.123 790.795 352.588C790.174 351.041 789.863 349.236 789.863 347.174C789.863 343.998 790.537 341.52 791.885 339.738C793.232 337.945 795.102 337.049 797.492 337.049C799.801 337.049 801.635 337.963 802.994 339.791C804.365 341.607 805.051 344.068 805.051 347.174ZM794.645 347.174C794.645 349.213 794.867 350.754 795.312 351.797C795.758 352.84 796.473 353.361 797.457 353.361C799.332 353.361 800.27 351.299 800.27 347.174C800.27 345.123 800.041 343.594 799.584 342.586C799.139 341.566 798.43 341.057 797.457 341.057C796.473 341.057 795.758 341.566 795.312 342.586C794.867 343.594 794.645 345.123 794.645 347.174ZM205.672 387.418H210.594L205.232 396.699L210.928 407H205.777L200.662 396.928V407H195.986V387.418H200.662V396.77L205.672 387.418ZM227.152 397.174C227.152 400.385 226.473 402.887 225.113 404.68C223.754 406.461 221.891 407.352 219.523 407.352C218.023 407.352 216.699 406.941 215.551 406.121C214.402 405.301 213.518 404.123 212.896 402.588C212.275 401.041 211.965 399.236 211.965 397.174C211.965 393.998 212.639 391.52 213.986 389.738C215.334 387.945 217.203 387.049 219.594 387.049C221.902 387.049 223.736 387.963 225.096 389.791C226.467 391.607 227.152 394.068 227.152 397.174ZM216.746 397.174C216.746 399.213 216.969 400.754 217.414 401.797C217.859 402.84 218.574 403.361 219.559 403.361C221.434 403.361 222.371 401.299 222.371 397.174C222.371 395.123 222.143 393.594 221.686 392.586C221.24 391.566 220.531 391.057 219.559 391.057C218.574 391.057 217.859 391.566 217.414 392.586C216.969 393.594 216.746 395.123 216.746 397.174ZM235.115 387.418V395.047H240.406V387.418H245.117V407H240.406V398.791H235.115V407H230.439V387.418H235.115ZM258.758 387.418H263.68L258.318 396.699L264.014 407H258.863L253.748 396.928V407H249.072V387.418H253.748V396.77L258.758 387.418ZM264.066 387.418H268.918L271.625 398.475C271.895 399.459 272.111 400.836 272.275 402.605H272.381C272.393 402.324 272.445 401.826 272.539 401.111C272.633 400.385 272.709 399.816 272.768 399.406C272.826 398.996 273.635 395 275.193 387.418H280.115L274.508 408.406C273.828 410.984 272.926 412.836 271.801 413.961C270.676 415.086 269.176 415.648 267.301 415.648C266.375 415.648 265.549 415.549 264.822 415.35V411.43C265.303 411.57 265.842 411.641 266.439 411.641C268.01 411.641 269.041 410.609 269.533 408.547L269.867 407.316L264.066 387.418ZM290.855 407.352C290.012 407.352 289.262 407.164 288.605 406.789C287.961 406.402 287.357 405.729 286.795 404.768H286.549C286.736 406.361 286.83 407.322 286.83 407.65V415.648H282.119V387.418H285.74L286.549 389.967H286.76C287.732 388.021 289.145 387.049 290.996 387.049C292.777 387.049 294.172 387.934 295.18 389.703C296.188 391.461 296.691 393.951 296.691 397.174C296.691 400.35 296.17 402.84 295.127 404.645C294.084 406.449 292.66 407.352 290.855 407.352ZM289.414 391.021C288.5 391.021 287.838 391.449 287.428 392.305C287.029 393.148 286.818 394.555 286.795 396.523V397.139C286.795 399.295 287 400.865 287.41 401.85C287.82 402.834 288.5 403.326 289.449 403.326C291.09 403.326 291.91 401.252 291.91 397.104C291.91 395.064 291.705 393.541 291.295 392.533C290.896 391.525 290.27 391.021 289.414 391.021ZM306.447 407.352C304.115 407.352 302.34 406.502 301.121 404.803C299.902 403.104 299.293 400.607 299.293 397.314C299.293 393.869 299.867 391.297 301.016 389.598C302.176 387.898 303.963 387.049 306.377 387.049C307.104 387.049 307.865 387.154 308.662 387.365C309.459 387.576 310.174 387.881 310.807 388.279L309.471 391.918C308.498 391.344 307.637 391.057 306.887 391.057C305.891 391.057 305.17 391.578 304.725 392.621C304.291 393.652 304.074 395.205 304.074 397.279C304.074 399.307 304.291 400.824 304.725 401.832C305.158 402.828 305.867 403.326 306.852 403.326C308.023 403.326 309.248 402.916 310.525 402.096V406.209C309.295 406.971 307.936 407.352 306.447 407.352ZM322.936 407L322.004 404.328H321.898C321.207 405.477 320.492 406.268 319.754 406.701C319.016 407.135 318.084 407.352 316.959 407.352C315.518 407.352 314.381 406.812 313.549 405.734C312.729 404.656 312.318 403.156 312.318 401.234C312.318 399.172 312.881 397.643 314.006 396.646C315.143 395.639 316.836 395.082 319.086 394.977L321.688 394.871V393.465C321.688 391.637 320.896 390.723 319.314 390.723C318.143 390.723 316.795 391.18 315.271 392.094L313.654 388.859C315.6 387.629 317.715 387.014 320 387.014C322.074 387.014 323.65 387.611 324.729 388.807C325.818 389.99 326.363 391.672 326.363 393.852V407H322.936ZM318.875 403.695C319.73 403.695 320.41 403.314 320.914 402.553C321.43 401.779 321.688 400.754 321.688 399.477V397.824L320.246 397.895C319.18 397.953 318.395 398.258 317.891 398.809C317.398 399.359 317.152 400.18 317.152 401.27C317.152 402.887 317.727 403.695 318.875 403.695ZM343.713 387.418V395.047H349.004V387.418H353.715V407H349.004V398.791H343.713V407H339.037V387.418H343.713ZM367.268 407L366.336 404.328H366.23C365.539 405.477 364.824 406.268 364.086 406.701C363.348 407.135 362.416 407.352 361.291 407.352C359.85 407.352 358.713 406.812 357.881 405.734C357.061 404.656 356.65 403.156 356.65 401.234C356.65 399.172 357.213 397.643 358.338 396.646C359.475 395.639 361.168 395.082 363.418 394.977L366.02 394.871V393.465C366.02 391.637 365.229 390.723 363.646 390.723C362.475 390.723 361.127 391.18 359.604 392.094L357.986 388.859C359.932 387.629 362.047 387.014 364.332 387.014C366.406 387.014 367.982 387.611 369.061 388.807C370.15 389.99 370.695 391.672 370.695 393.852V407H367.268ZM363.207 403.695C364.062 403.695 364.742 403.314 365.246 402.553C365.762 401.779 366.02 400.754 366.02 399.477V397.824L364.578 397.895C363.512 397.953 362.727 398.258 362.223 398.809C361.73 399.359 361.484 400.18 361.484 401.27C361.484 402.887 362.059 403.695 363.207 403.695ZM392.105 407.352C391.262 407.352 390.512 407.164 389.855 406.789C389.211 406.402 388.607 405.729 388.045 404.768H387.799C387.986 406.361 388.08 407.322 388.08 407.65V415.648H383.369V387.418H386.99L387.799 389.967H388.01C388.982 388.021 390.395 387.049 392.246 387.049C394.027 387.049 395.422 387.934 396.43 389.703C397.438 391.461 397.941 393.951 397.941 397.174C397.941 400.35 397.42 402.84 396.377 404.645C395.334 406.449 393.91 407.352 392.105 407.352ZM390.664 391.021C389.75 391.021 389.088 391.449 388.678 392.305C388.279 393.148 388.068 394.555 388.045 396.523V397.139C388.045 399.295 388.25 400.865 388.66 401.85C389.07 402.834 389.75 403.326 390.699 403.326C392.34 403.326 393.16 401.252 393.16 397.104C393.16 395.064 392.955 393.541 392.545 392.533C392.146 391.525 391.52 391.021 390.664 391.021ZM410.826 407L409.895 404.328H409.789C409.098 405.477 408.383 406.268 407.645 406.701C406.906 407.135 405.975 407.352 404.85 407.352C403.408 407.352 402.271 406.812 401.439 405.734C400.619 404.656 400.209 403.156 400.209 401.234C400.209 399.172 400.771 397.643 401.896 396.646C403.033 395.639 404.727 395.082 406.977 394.977L409.578 394.871V393.465C409.578 391.637 408.787 390.723 407.205 390.723C406.033 390.723 404.686 391.18 403.162 392.094L401.545 388.859C403.49 387.629 405.605 387.014 407.891 387.014C409.965 387.014 411.541 387.611 412.619 388.807C413.709 389.99 414.254 391.672 414.254 393.852V407H410.826ZM406.766 403.695C407.621 403.695 408.301 403.314 408.805 402.553C409.32 401.779 409.578 400.754 409.578 399.477V397.824L408.137 397.895C407.07 397.953 406.285 398.258 405.781 398.809C405.289 399.359 405.043 400.18 405.043 401.27C405.043 402.887 405.617 403.695 406.766 403.695ZM422.023 395.047C423.09 395.047 423.881 394.877 424.396 394.537C424.924 394.197 425.188 393.611 425.188 392.779C425.188 391.432 424.291 390.758 422.498 390.758C421.865 390.758 421.279 390.852 420.74 391.039C420.201 391.215 419.621 391.496 419 391.883L417.312 388.49C418.941 387.529 420.752 387.049 422.744 387.049C424.818 387.049 426.471 387.512 427.701 388.438C428.932 389.363 429.547 390.629 429.547 392.234C429.547 394.473 428.311 395.938 425.838 396.629V396.77C427.197 397.086 428.234 397.666 428.949 398.51C429.664 399.354 430.021 400.432 430.021 401.744C430.021 403.479 429.359 404.85 428.035 405.857C426.723 406.854 424.9 407.352 422.568 407.352C421.49 407.352 420.459 407.234 419.475 407C418.502 406.754 417.682 406.443 417.014 406.068V402.148C418.643 403.051 420.348 403.502 422.129 403.502C424.262 403.502 425.328 402.711 425.328 401.129C425.328 400.285 425.07 399.646 424.555 399.213C424.051 398.768 423.207 398.545 422.023 398.545H420.107V395.047H422.023ZM441.957 407.352C441.113 407.352 440.363 407.164 439.707 406.789C439.062 406.402 438.459 405.729 437.896 404.768H437.65C437.838 406.361 437.932 407.322 437.932 407.65V415.648H433.221V387.418H436.842L437.65 389.967H437.861C438.834 388.021 440.246 387.049 442.098 387.049C443.879 387.049 445.273 387.934 446.281 389.703C447.289 391.461 447.793 393.951 447.793 397.174C447.793 400.35 447.271 402.84 446.229 404.645C445.186 406.449 443.762 407.352 441.957 407.352ZM440.516 391.021C439.602 391.021 438.939 391.449 438.529 392.305C438.131 393.148 437.92 394.555 437.896 396.523V397.139C437.896 399.295 438.102 400.865 438.512 401.85C438.922 402.834 439.602 403.326 440.551 403.326C442.191 403.326 443.012 401.252 443.012 397.104C443.012 395.064 442.807 393.541 442.396 392.533C441.998 391.525 441.371 391.021 440.516 391.021ZM460.678 407L459.746 404.328H459.641C458.949 405.477 458.234 406.268 457.496 406.701C456.758 407.135 455.826 407.352 454.701 407.352C453.26 407.352 452.123 406.812 451.291 405.734C450.471 404.656 450.061 403.156 450.061 401.234C450.061 399.172 450.623 397.643 451.748 396.646C452.885 395.639 454.578 395.082 456.828 394.977L459.43 394.871V393.465C459.43 391.637 458.639 390.723 457.057 390.723C455.885 390.723 454.537 391.18 453.014 392.094L451.396 388.859C453.342 387.629 455.457 387.014 457.742 387.014C459.816 387.014 461.393 387.611 462.471 388.807C463.561 389.99 464.105 391.672 464.105 393.852V407H460.678ZM456.617 403.695C457.473 403.695 458.152 403.314 458.656 402.553C459.172 401.779 459.43 400.754 459.43 399.477V397.824L457.988 397.895C456.922 397.953 456.137 398.258 455.633 398.809C455.141 399.359 454.895 400.18 454.895 401.27C454.895 402.887 455.469 403.695 456.617 403.695ZM467.199 395.662C467.199 391.209 467.832 387.811 469.098 385.467C470.375 383.123 472.455 381.529 475.338 380.686C476.838 380.264 479.006 379.854 481.842 379.455L482.387 383.568L479.275 384.061C477.295 384.389 475.812 384.816 474.828 385.344C473.855 385.859 473.123 386.633 472.631 387.664C472.15 388.684 471.863 390.043 471.77 391.742H471.91C472.461 390.758 473.129 390.014 473.914 389.51C474.699 389.006 475.555 388.754 476.48 388.754C478.355 388.754 479.809 389.51 480.84 391.021C481.871 392.533 482.387 394.643 482.387 397.35C482.387 400.49 481.719 402.945 480.383 404.715C479.047 406.473 477.184 407.352 474.793 407.352C472.355 407.352 470.48 406.338 469.168 404.311C467.855 402.283 467.199 399.4 467.199 395.662ZM474.969 403.361C476.727 403.361 477.605 401.516 477.605 397.824C477.605 394.25 476.809 392.463 475.215 392.463C474.523 392.463 473.879 392.744 473.281 393.307C472.684 393.857 472.25 394.561 471.98 395.416C471.98 400.713 472.977 403.361 474.969 403.361ZM500.176 397.174C500.176 400.385 499.496 402.887 498.137 404.68C496.777 406.461 494.914 407.352 492.547 407.352C491.047 407.352 489.723 406.941 488.574 406.121C487.426 405.301 486.541 404.123 485.92 402.588C485.299 401.041 484.988 399.236 484.988 397.174C484.988 393.998 485.662 391.52 487.01 389.738C488.357 387.945 490.227 387.049 492.617 387.049C494.926 387.049 496.76 387.963 498.119 389.791C499.49 391.607 500.176 394.068 500.176 397.174ZM489.77 397.174C489.77 399.213 489.992 400.754 490.438 401.797C490.883 402.84 491.598 403.361 492.582 403.361C494.457 403.361 495.395 401.299 495.395 397.174C495.395 395.123 495.166 393.594 494.709 392.586C494.264 391.566 493.555 391.057 492.582 391.057C491.598 391.057 490.883 391.566 490.438 392.586C489.992 393.594 489.77 395.123 489.77 397.174ZM515.205 387.418V391.197H510.846V407H506.17V391.197H501.811V387.418H515.205ZM527.527 387.418H532.449L527.088 396.699L532.783 407H527.633L522.518 396.928V407H517.842V387.418H522.518V396.77L527.527 387.418ZM532.836 387.418H537.688L540.395 398.475C540.664 399.459 540.881 400.836 541.045 402.605H541.15C541.162 402.324 541.215 401.826 541.309 401.111C541.402 400.385 541.479 399.816 541.537 399.406C541.596 398.996 542.404 395 543.963 387.418H548.885L543.277 408.406C542.598 410.984 541.695 412.836 540.57 413.961C539.445 415.086 537.945 415.648 536.07 415.648C535.145 415.648 534.318 415.549 533.592 415.35V411.43C534.072 411.57 534.611 411.641 535.209 411.641C536.779 411.641 537.811 410.609 538.303 408.547L538.637 407.316L532.836 387.418ZM569.469 387.418H574.391L569.029 396.699L574.725 407H569.574L564.459 396.928V407H559.783V387.418H564.459V396.77L569.469 387.418ZM590.949 397.174C590.949 400.385 590.27 402.887 588.91 404.68C587.551 406.461 585.688 407.352 583.32 407.352C581.82 407.352 580.496 406.941 579.348 406.121C578.199 405.301 577.314 404.123 576.693 402.588C576.072 401.041 575.762 399.236 575.762 397.174C575.762 393.998 576.436 391.52 577.783 389.738C579.131 387.945 581 387.049 583.391 387.049C585.699 387.049 587.533 387.963 588.893 389.791C590.264 391.607 590.949 394.068 590.949 397.174ZM580.543 397.174C580.543 399.213 580.766 400.754 581.211 401.797C581.656 402.84 582.371 403.361 583.355 403.361C585.23 403.361 586.168 401.299 586.168 397.174C586.168 395.123 585.939 393.594 585.482 392.586C585.037 391.566 584.328 391.057 583.355 391.057C582.371 391.057 581.656 391.566 581.211 392.586C580.766 393.594 580.543 395.123 580.543 397.174ZM598.912 387.418V395.047H604.203V387.418H608.914V407H604.203V398.791H598.912V407H594.236V387.418H598.912ZM627.512 403.326H630.148V413.979H625.49V407H612.869V387.418H617.545V403.221H622.801V387.418H627.512V403.326ZM639.781 407.352C637.332 407.352 635.398 406.484 633.98 404.75C632.574 403.004 631.871 400.537 631.871 397.35C631.871 394.115 632.51 391.59 633.787 389.773C635.064 387.957 636.846 387.049 639.131 387.049C641.264 387.049 642.945 387.828 644.176 389.387C645.406 390.934 646.021 393.107 646.021 395.908V398.404H636.617C636.652 400.15 637.01 401.451 637.689 402.307C638.369 403.15 639.307 403.572 640.502 403.572C642.025 403.572 643.584 403.098 645.178 402.148V405.998C643.678 406.9 641.879 407.352 639.781 407.352ZM639.096 390.652C638.428 390.652 637.877 391.01 637.443 391.725C637.01 392.428 636.758 393.523 636.688 395.012H641.434C641.41 393.582 641.193 392.498 640.783 391.76C640.373 391.021 639.811 390.652 639.096 390.652ZM663.793 387.418V407H659.082V391.197H653.791V407H649.115V387.418H663.793ZM682.426 403.326H685.062V413.979H680.404V407H667.783V387.418H672.459V403.221H677.715V387.418H682.426V403.326ZM691.812 387.418V396.488C691.812 397.613 691.672 399.482 691.391 402.096L697.754 387.418H703.484V407H699.125V397.789C699.125 396.406 699.26 394.543 699.529 392.199L693.148 407H687.471V387.418H691.812ZM711.816 387.418V396.488C711.816 397.613 711.676 399.482 711.395 402.096L717.758 387.418H723.488V407H719.129V397.789C719.129 396.406 719.264 394.543 719.533 392.199L713.152 407H707.475V387.418H711.816ZM204.723 457.352C203.879 457.352 203.129 457.164 202.473 456.789C201.828 456.402 201.225 455.729 200.662 454.768H200.416C200.604 456.361 200.697 457.322 200.697 457.65V465.648H195.986V437.418H199.607L200.416 439.967H200.627C201.6 438.021 203.012 437.049 204.863 437.049C206.645 437.049 208.039 437.934 209.047 439.703C210.055 441.461 210.559 443.951 210.559 447.174C210.559 450.35 210.037 452.84 208.994 454.645C207.951 456.449 206.527 457.352 204.723 457.352ZM203.281 441.021C202.367 441.021 201.705 441.449 201.295 442.305C200.896 443.148 200.686 444.555 200.662 446.523V447.139C200.662 449.295 200.867 450.865 201.277 451.85C201.688 452.834 202.367 453.326 203.316 453.326C204.957 453.326 205.777 451.252 205.777 447.104C205.777 445.064 205.572 443.541 205.162 442.533C204.764 441.525 204.137 441.021 203.281 441.021ZM223.443 457L222.512 454.328H222.406C221.715 455.477 221 456.268 220.262 456.701C219.523 457.135 218.592 457.352 217.467 457.352C216.025 457.352 214.889 456.812 214.057 455.734C213.236 454.656 212.826 453.156 212.826 451.234C212.826 449.172 213.389 447.643 214.514 446.646C215.65 445.639 217.344 445.082 219.594 444.977L222.195 444.871V443.465C222.195 441.637 221.404 440.723 219.822 440.723C218.65 440.723 217.303 441.18 215.779 442.094L214.162 438.859C216.107 437.629 218.223 437.014 220.508 437.014C222.582 437.014 224.158 437.611 225.236 438.807C226.326 439.99 226.871 441.672 226.871 443.852V457H223.443ZM219.383 453.695C220.238 453.695 220.918 453.314 221.422 452.553C221.938 451.779 222.195 450.754 222.195 449.477V447.824L220.754 447.895C219.688 447.953 218.902 448.258 218.398 448.809C217.906 449.359 217.66 450.18 217.66 451.27C217.66 452.887 218.234 453.695 219.383 453.695ZM234.641 445.047C235.707 445.047 236.498 444.877 237.014 444.537C237.541 444.197 237.805 443.611 237.805 442.779C237.805 441.432 236.908 440.758 235.115 440.758C234.482 440.758 233.896 440.852 233.357 441.039C232.818 441.215 232.238 441.496 231.617 441.883L229.93 438.49C231.559 437.529 233.369 437.049 235.361 437.049C237.436 437.049 239.088 437.512 240.318 438.438C241.549 439.363 242.164 440.629 242.164 442.234C242.164 444.473 240.928 445.938 238.455 446.629V446.77C239.814 447.086 240.852 447.666 241.566 448.51C242.281 449.354 242.639 450.432 242.639 451.744C242.639 453.479 241.977 454.85 240.652 455.857C239.34 456.854 237.518 457.352 235.186 457.352C234.107 457.352 233.076 457.234 232.092 457C231.119 456.754 230.299 456.443 229.631 456.068V452.148C231.26 453.051 232.965 453.502 234.746 453.502C236.879 453.502 237.945 452.711 237.945 451.129C237.945 450.285 237.688 449.646 237.172 449.213C236.668 448.768 235.824 448.545 234.641 448.545H232.725V445.047H234.641ZM259.795 442.498C259.795 443.6 259.467 444.52 258.811 445.258C258.166 445.984 257.223 446.453 255.98 446.664V446.805C257.352 446.98 258.424 447.455 259.197 448.229C259.982 448.99 260.375 449.98 260.375 451.199C260.375 453.074 259.713 454.51 258.389 455.506C257.064 456.502 255.172 457 252.711 457H245.838V437.418H252.676C257.422 437.418 259.795 439.111 259.795 442.498ZM255.523 450.918C255.523 450.086 255.254 449.488 254.715 449.125C254.176 448.762 253.361 448.58 252.271 448.58H250.514V453.502H252.342C254.463 453.502 255.523 452.641 255.523 450.918ZM255.014 442.92C255.014 441.631 254.158 440.986 252.447 440.986H250.514V445.117H251.92C252.951 445.117 253.725 444.953 254.24 444.625C254.756 444.285 255.014 443.717 255.014 442.92ZM267.617 437.418V446.488C267.617 447.613 267.477 449.482 267.195 452.096L273.559 437.418H279.289V457H274.93V447.789C274.93 446.406 275.064 444.543 275.334 442.199L268.953 457H263.275V437.418H267.617ZM295.338 437.418V441.197H290.979V457H286.303V441.197H281.943V437.418H295.338ZM302.316 437.418V446.488C302.316 447.613 302.176 449.482 301.895 452.096L308.258 437.418H313.988V457H309.629V447.789C309.629 446.406 309.764 444.543 310.033 442.199L303.652 457H297.975V437.418H302.316ZM321.389 457H316.098L320.967 448.967C318.611 448.029 317.434 446.207 317.434 443.5C317.434 441.59 318.066 440.102 319.332 439.035C320.609 437.957 322.361 437.418 324.588 437.418H331.795V457H327.119V449.617H325.432L321.389 457ZM322.18 443.535C322.18 445.293 323.152 446.172 325.098 446.172H327.119V440.916H324.711C323.023 440.916 322.18 441.789 322.18 443.535ZM349.162 437.418V444.695C349.162 445.598 349.309 446.254 349.602 446.664C349.895 447.074 350.357 447.279 350.99 447.279C351.646 447.279 352.221 447.145 352.713 446.875C353.217 446.605 353.721 446.271 354.225 445.873V437.418H358.953V457H354.225V449.072C352.607 450.326 350.99 450.953 349.373 450.953C347.768 450.953 346.549 450.461 345.717 449.477C344.885 448.492 344.469 447.027 344.469 445.082V437.418H349.162ZM372.471 457L371.539 454.328H371.434C370.742 455.477 370.027 456.268 369.289 456.701C368.551 457.135 367.619 457.352 366.494 457.352C365.053 457.352 363.916 456.812 363.084 455.734C362.264 454.656 361.854 453.156 361.854 451.234C361.854 449.172 362.416 447.643 363.541 446.646C364.678 445.639 366.371 445.082 368.621 444.977L371.223 444.871V443.465C371.223 441.637 370.432 440.723 368.85 440.723C367.678 440.723 366.33 441.18 364.807 442.094L363.189 438.859C365.135 437.629 367.25 437.014 369.535 437.014C371.609 437.014 373.186 437.611 374.264 438.807C375.354 439.99 375.898 441.672 375.898 443.852V457H372.471ZM368.41 453.695C369.266 453.695 369.945 453.314 370.449 452.553C370.965 451.779 371.223 450.754 371.223 449.477V447.824L369.781 447.895C368.715 447.953 367.93 448.258 367.426 448.809C366.934 449.359 366.688 450.18 366.688 451.27C366.688 452.887 367.262 453.695 368.41 453.695ZM386.146 457.352C383.814 457.352 382.039 456.502 380.82 454.803C379.602 453.104 378.992 450.607 378.992 447.314C378.992 443.869 379.566 441.297 380.715 439.598C381.875 437.898 383.662 437.049 386.076 437.049C386.803 437.049 387.564 437.154 388.361 437.365C389.158 437.576 389.873 437.881 390.506 438.279L389.17 441.918C388.197 441.344 387.336 441.057 386.586 441.057C385.59 441.057 384.869 441.578 384.424 442.621C383.99 443.652 383.773 445.205 383.773 447.279C383.773 449.307 383.99 450.824 384.424 451.832C384.857 452.828 385.566 453.326 386.551 453.326C387.723 453.326 388.947 452.916 390.225 452.096V456.209C388.994 456.971 387.635 457.352 386.146 457.352ZM405.096 437.418V441.197H400.736V457H396.061V441.197H391.701V437.418H405.096ZM412.074 437.418V446.488C412.074 447.613 411.934 449.482 411.652 452.096L418.016 437.418H423.746V457H419.387V447.789C419.387 446.406 419.521 444.543 419.791 442.199L413.41 457H407.732V437.418H412.074ZM441.307 437.418V445.047H446.598V437.418H451.309V457H446.598V448.791H441.307V457H436.631V437.418H441.307ZM464.861 457L463.93 454.328H463.824C463.133 455.477 462.418 456.268 461.68 456.701C460.941 457.135 460.01 457.352 458.885 457.352C457.443 457.352 456.307 456.812 455.475 455.734C454.654 454.656 454.244 453.156 454.244 451.234C454.244 449.172 454.807 447.643 455.932 446.646C457.068 445.639 458.762 445.082 461.012 444.977L463.613 444.871V443.465C463.613 441.637 462.822 440.723 461.24 440.723C460.068 440.723 458.721 441.18 457.197 442.094L455.58 438.859C457.525 437.629 459.641 437.014 461.926 437.014C464 437.014 465.576 437.611 466.654 438.807C467.744 439.99 468.289 441.672 468.289 443.852V457H464.861ZM460.801 453.695C461.656 453.695 462.336 453.314 462.84 452.553C463.355 451.779 463.613 450.754 463.613 449.477V447.824L462.172 447.895C461.105 447.953 460.32 448.258 459.816 448.809C459.324 449.359 459.078 450.18 459.078 451.27C459.078 452.887 459.652 453.695 460.801 453.695ZM471.383 445.662C471.383 441.209 472.016 437.811 473.281 435.467C474.559 433.123 476.639 431.529 479.521 430.686C481.021 430.264 483.189 429.854 486.025 429.455L486.57 433.568L483.459 434.061C481.479 434.389 479.996 434.816 479.012 435.344C478.039 435.859 477.307 436.633 476.814 437.664C476.334 438.684 476.047 440.043 475.953 441.742H476.094C476.645 440.758 477.312 440.014 478.098 439.51C478.883 439.006 479.738 438.754 480.664 438.754C482.539 438.754 483.992 439.51 485.023 441.021C486.055 442.533 486.57 444.643 486.57 447.35C486.57 450.49 485.902 452.945 484.566 454.715C483.23 456.473 481.367 457.352 478.977 457.352C476.539 457.352 474.664 456.338 473.352 454.311C472.039 452.283 471.383 449.4 471.383 445.662ZM479.152 453.361C480.91 453.361 481.789 451.516 481.789 447.824C481.789 444.25 480.992 442.463 479.398 442.463C478.707 442.463 478.062 442.744 477.465 443.307C476.867 443.857 476.434 444.561 476.164 445.416C476.164 450.713 477.16 453.361 479.152 453.361ZM497.082 457.352C494.633 457.352 492.699 456.484 491.281 454.75C489.875 453.004 489.172 450.537 489.172 447.35C489.172 444.115 489.811 441.59 491.088 439.773C492.365 437.957 494.146 437.049 496.432 437.049C498.564 437.049 500.246 437.828 501.477 439.387C502.707 440.934 503.322 443.107 503.322 445.908V448.404H493.918C493.953 450.15 494.311 451.451 494.99 452.307C495.67 453.15 496.607 453.572 497.803 453.572C499.326 453.572 500.885 453.098 502.479 452.148V455.998C500.979 456.9 499.18 457.352 497.082 457.352ZM496.396 440.652C495.729 440.652 495.178 441.01 494.744 441.725C494.311 442.428 494.059 443.523 493.988 445.012H498.734C498.711 443.582 498.494 442.498 498.084 441.76C497.674 441.021 497.111 440.652 496.396 440.652ZM515.152 457.352C514.309 457.352 513.559 457.164 512.902 456.789C512.258 456.402 511.654 455.729 511.092 454.768H510.846C511.033 456.361 511.127 457.322 511.127 457.65V465.648H506.416V437.418H510.037L510.846 439.967H511.057C512.029 438.021 513.441 437.049 515.293 437.049C517.074 437.049 518.469 437.934 519.477 439.703C520.484 441.461 520.988 443.951 520.988 447.174C520.988 450.35 520.467 452.84 519.424 454.645C518.381 456.449 516.957 457.352 515.152 457.352ZM513.711 441.021C512.797 441.021 512.135 441.449 511.725 442.305C511.326 443.148 511.115 444.555 511.092 446.523V447.139C511.092 449.295 511.297 450.865 511.707 451.85C512.117 452.834 512.797 453.326 513.746 453.326C515.387 453.326 516.207 451.252 516.207 447.104C516.207 445.064 516.002 443.541 515.592 442.533C515.193 441.525 514.566 441.021 513.711 441.021ZM531.5 457.352C529.051 457.352 527.117 456.484 525.699 454.75C524.293 453.004 523.59 450.537 523.59 447.35C523.59 444.115 524.229 441.59 525.506 439.773C526.783 437.957 528.564 437.049 530.85 437.049C532.982 437.049 534.664 437.828 535.895 439.387C537.125 440.934 537.74 443.107 537.74 445.908V448.404H528.336C528.371 450.15 528.729 451.451 529.408 452.307C530.088 453.15 531.025 453.572 532.221 453.572C533.744 453.572 535.303 453.098 536.896 452.148V455.998C535.396 456.9 533.598 457.352 531.5 457.352ZM530.814 440.652C530.146 440.652 529.596 441.01 529.162 441.725C528.729 442.428 528.477 443.523 528.406 445.012H533.152C533.129 443.582 532.912 442.498 532.502 441.76C532.092 441.021 531.529 440.652 530.814 440.652ZM548.639 446.805V437.418H553.139V446.805L558.043 437.418H562.895L557.639 446.699L563.229 457H558.148L553.139 446.928V457H548.639V446.928L543.611 457H538.531L544.104 446.699L538.883 437.418H543.752L548.639 446.805ZM569.908 437.418V445.047H575.199V437.418H579.91V457H575.199V448.791H569.908V457H565.232V437.418H569.908ZM598.367 447.174C598.367 450.385 597.688 452.887 596.328 454.68C594.969 456.461 593.105 457.352 590.738 457.352C589.238 457.352 587.914 456.941 586.766 456.121C585.617 455.301 584.732 454.123 584.111 452.588C583.49 451.041 583.18 449.236 583.18 447.174C583.18 443.998 583.854 441.52 585.201 439.738C586.549 437.945 588.418 437.049 590.809 437.049C593.117 437.049 594.951 437.963 596.311 439.791C597.682 441.607 598.367 444.068 598.367 447.174ZM587.961 447.174C587.961 449.213 588.184 450.754 588.629 451.797C589.074 452.84 589.789 453.361 590.773 453.361C592.648 453.361 593.586 451.299 593.586 447.174C593.586 445.123 593.357 443.594 592.9 442.586C592.455 441.566 591.746 441.057 590.773 441.057C589.789 441.057 589.074 441.566 588.629 442.586C588.184 443.594 587.961 445.123 587.961 447.174ZM605.996 437.418V446.488C605.996 447.613 605.855 449.482 605.574 452.096L611.938 437.418H617.668V457H613.309V447.789C613.309 446.406 613.443 444.543 613.713 442.199L607.332 457H601.654V437.418H605.996ZM616.068 429.49C615.834 431.459 615.189 432.9 614.135 433.814C613.092 434.729 611.551 435.186 609.512 435.186C607.52 435.186 606.025 434.74 605.029 433.85C604.033 432.947 603.441 431.494 603.254 429.49H607.139C607.268 430.662 607.514 431.453 607.877 431.863C608.252 432.273 608.832 432.479 609.617 432.479C610.391 432.479 610.965 432.244 611.34 431.775C611.727 431.307 611.984 430.545 612.113 429.49H616.068ZM634.895 437.418V446.488C634.895 447.613 634.754 449.482 634.473 452.096L640.836 437.418H646.566V457H642.207V447.789C642.207 446.406 642.342 444.543 642.611 442.199L636.23 457H630.553V437.418H634.895ZM670.789 457H666.605V441.092C666.266 442.99 665.785 445.123 665.164 447.49L662.615 457H658.643L656.094 447.455C655.543 445.404 655.062 443.283 654.652 441.092V457H650.557V437.418H657.289L659.662 446.559C660.178 448.598 660.488 450.496 660.594 452.254C660.641 451.656 660.764 450.818 660.963 449.74C661.174 448.662 661.408 447.602 661.666 446.559L664.092 437.418H670.789V457ZM681.934 457.352C679.484 457.352 677.551 456.484 676.133 454.75C674.727 453.004 674.023 450.537 674.023 447.35C674.023 444.115 674.662 441.59 675.939 439.773C677.217 437.957 678.998 437.049 681.283 437.049C683.416 437.049 685.098 437.828 686.328 439.387C687.559 440.934 688.174 443.107 688.174 445.908V448.404H678.77C678.805 450.15 679.162 451.451 679.842 452.307C680.521 453.15 681.459 453.572 682.654 453.572C684.178 453.572 685.736 453.098 687.33 452.148V455.998C685.83 456.9 684.031 457.352 681.934 457.352ZM681.248 440.652C680.58 440.652 680.029 441.01 679.596 441.725C679.162 442.428 678.91 443.523 678.84 445.012H683.586C683.562 443.582 683.346 442.498 682.936 441.76C682.525 441.021 681.963 440.652 681.248 440.652ZM695.943 437.418V445.047H701.234V437.418H705.945V457H701.234V448.791H695.943V457H691.268V437.418H695.943ZM714.242 437.418V446.488C714.242 447.613 714.102 449.482 713.82 452.096L720.184 437.418H725.914V457H721.555V447.789C721.555 446.406 721.689 444.543 721.959 442.199L715.578 457H709.9V437.418H714.242ZM208.432 507L206.955 500.514H200.258L198.781 507H194L200.363 481.195H206.85L213.23 507H208.432ZM206.059 496.277L204.688 490.301C204.605 489.938 204.418 489.029 204.125 487.576C203.844 486.111 203.674 485.133 203.615 484.641C203.463 485.648 203.27 486.762 203.035 487.98C202.801 489.188 202.191 491.953 201.207 496.277H206.059ZM224.674 503.326V491.127H222.371C221.926 496.189 221.076 500.256 219.822 503.326H224.674ZM231.951 513.979H227.311V507H218.381V513.979H213.74V503.326H214.918C215.855 501.439 216.6 499.131 217.15 496.4C217.701 493.67 218.053 490.676 218.205 487.418H229.402V503.326H231.951V513.979ZM254.68 507H250.496V491.092C250.156 492.99 249.676 495.123 249.055 497.49L246.506 507H242.533L239.984 497.455C239.434 495.404 238.953 493.283 238.543 491.092V507H234.447V487.418H241.18L243.553 496.559C244.068 498.598 244.379 500.496 244.484 502.254C244.531 501.656 244.654 500.818 244.854 499.74C245.064 498.662 245.299 497.602 245.557 496.559L247.982 487.418H254.68V507ZM262.941 487.418V496.488C262.941 497.613 262.801 499.482 262.52 502.096L268.883 487.418H274.613V507H270.254V497.789C270.254 496.406 270.389 494.543 270.658 492.199L264.277 507H258.6V487.418H262.941ZM287.34 507.352C286.496 507.352 285.746 507.164 285.09 506.789C284.445 506.402 283.842 505.729 283.279 504.768H283.033C283.221 506.361 283.314 507.322 283.314 507.65V515.648H278.604V487.418H282.225L283.033 489.967H283.244C284.217 488.021 285.629 487.049 287.48 487.049C289.262 487.049 290.656 487.934 291.664 489.703C292.672 491.461 293.176 493.951 293.176 497.174C293.176 500.35 292.654 502.84 291.611 504.645C290.568 506.449 289.145 507.352 287.34 507.352ZM285.898 491.021C284.984 491.021 284.322 491.449 283.912 492.305C283.514 493.148 283.303 494.555 283.279 496.523V497.139C283.279 499.295 283.484 500.865 283.895 501.85C284.305 502.834 284.984 503.326 285.934 503.326C287.574 503.326 288.395 501.252 288.395 497.104C288.395 495.064 288.189 493.541 287.779 492.533C287.381 491.525 286.754 491.021 285.898 491.021ZM306.061 507L305.129 504.328H305.023C304.332 505.477 303.617 506.268 302.879 506.701C302.141 507.135 301.209 507.352 300.084 507.352C298.643 507.352 297.506 506.812 296.674 505.734C295.854 504.656 295.443 503.156 295.443 501.234C295.443 499.172 296.006 497.643 297.131 496.646C298.268 495.639 299.961 495.082 302.211 494.977L304.812 494.871V493.465C304.812 491.637 304.021 490.723 302.439 490.723C301.268 490.723 299.92 491.18 298.396 492.094L296.779 488.859C298.725 487.629 300.84 487.014 303.125 487.014C305.199 487.014 306.775 487.611 307.854 488.807C308.943 489.99 309.488 491.672 309.488 493.852V507H306.061ZM302 503.695C302.855 503.695 303.535 503.314 304.039 502.553C304.555 501.779 304.812 500.754 304.812 499.477V497.824L303.371 497.895C302.305 497.953 301.52 498.258 301.016 498.809C300.523 499.359 300.277 500.18 300.277 501.27C300.277 502.887 300.852 503.695 302 503.695ZM327.453 507H322.76V491.197H320.141C319.906 495.17 319.525 498.322 318.998 500.654C318.482 502.986 317.785 504.68 316.906 505.734C316.039 506.789 314.885 507.316 313.443 507.316C312.564 507.316 311.844 507.188 311.281 506.93V503.08C311.633 503.197 311.99 503.256 312.354 503.256C313.338 503.256 314.105 502.002 314.656 499.494C315.207 496.975 315.629 492.949 315.922 487.418H327.453V507ZM341.006 507L340.074 504.328H339.969C339.277 505.477 338.562 506.268 337.824 506.701C337.086 507.135 336.154 507.352 335.029 507.352C333.588 507.352 332.451 506.812 331.619 505.734C330.799 504.656 330.389 503.156 330.389 501.234C330.389 499.172 330.951 497.643 332.076 496.646C333.213 495.639 334.906 495.082 337.156 494.977L339.758 494.871V493.465C339.758 491.637 338.967 490.723 337.385 490.723C336.213 490.723 334.865 491.18 333.342 492.094L331.725 488.859C333.67 487.629 335.785 487.014 338.07 487.014C340.145 487.014 341.721 487.611 342.799 488.807C343.889 489.99 344.434 491.672 344.434 493.852V507H341.006ZM336.945 503.695C337.801 503.695 338.48 503.314 338.984 502.553C339.5 501.779 339.758 500.754 339.758 499.477V497.824L338.316 497.895C337.25 497.953 336.465 498.258 335.961 498.809C335.469 499.359 335.223 500.18 335.223 501.27C335.223 502.887 335.797 503.695 336.945 503.695ZM365.914 485.115C364.543 485.115 363.459 485.918 362.662 487.523C361.877 489.129 361.484 491.361 361.484 494.221C361.484 500.174 363.037 503.15 366.143 503.15C367.502 503.15 368.926 502.717 370.414 501.85V506.104C369.16 506.936 367.555 507.352 365.598 507.352C362.703 507.352 360.477 506.203 358.918 503.906C357.371 501.598 356.598 498.357 356.598 494.186C356.598 490.014 357.395 486.762 358.988 484.43C360.594 482.098 362.82 480.932 365.668 480.932C366.605 480.932 367.502 481.061 368.357 481.318C369.225 481.576 370.15 482.027 371.135 482.672L369.553 486.557C369.025 486.193 368.463 485.865 367.865 485.572C367.268 485.268 366.617 485.115 365.914 485.115ZM380.996 507.352C378.547 507.352 376.613 506.484 375.195 504.75C373.789 503.004 373.086 500.537 373.086 497.35C373.086 494.115 373.725 491.59 375.002 489.773C376.279 487.957 378.061 487.049 380.346 487.049C382.479 487.049 384.16 487.828 385.391 489.387C386.621 490.934 387.236 493.107 387.236 495.908V498.404H377.832C377.867 500.15 378.225 501.451 378.904 502.307C379.584 503.15 380.521 503.572 381.717 503.572C383.24 503.572 384.799 503.098 386.393 502.148V505.998C384.893 506.9 383.094 507.352 380.996 507.352ZM380.311 490.652C379.643 490.652 379.092 491.01 378.658 491.725C378.225 492.428 377.973 493.523 377.902 495.012H382.648C382.625 493.582 382.408 492.498 381.998 491.76C381.588 491.021 381.025 490.652 380.311 490.652ZM399.066 507.352C398.223 507.352 397.473 507.164 396.816 506.789C396.172 506.402 395.568 505.729 395.006 504.768H394.76C394.947 506.361 395.041 507.322 395.041 507.65V515.648H390.33V487.418H393.951L394.76 489.967H394.971C395.943 488.021 397.355 487.049 399.207 487.049C400.988 487.049 402.383 487.934 403.391 489.703C404.398 491.461 404.902 493.951 404.902 497.174C404.902 500.35 404.381 502.84 403.338 504.645C402.295 506.449 400.871 507.352 399.066 507.352ZM397.625 491.021C396.711 491.021 396.049 491.449 395.639 492.305C395.24 493.148 395.029 494.555 395.006 496.523V497.139C395.006 499.295 395.211 500.865 395.621 501.85C396.031 502.834 396.711 503.326 397.66 503.326C399.301 503.326 400.121 501.252 400.121 497.104C400.121 495.064 399.916 493.541 399.506 492.533C399.107 491.525 398.48 491.021 397.625 491.021ZM415.414 507.352C412.965 507.352 411.031 506.484 409.613 504.75C408.207 503.004 407.504 500.537 407.504 497.35C407.504 494.115 408.143 491.59 409.42 489.773C410.697 487.957 412.479 487.049 414.764 487.049C416.896 487.049 418.578 487.828 419.809 489.387C421.039 490.934 421.654 493.107 421.654 495.908V498.404H412.25C412.285 500.15 412.643 501.451 413.322 502.307C414.002 503.15 414.939 503.572 416.135 503.572C417.658 503.572 419.217 503.098 420.811 502.148V505.998C419.311 506.9 417.512 507.352 415.414 507.352ZM414.729 490.652C414.061 490.652 413.51 491.01 413.076 491.725C412.643 492.428 412.391 493.523 412.32 495.012H417.066C417.043 493.582 416.826 492.498 416.416 491.76C416.006 491.021 415.443 490.652 414.729 490.652ZM424.062 495.662C424.062 491.209 424.695 487.811 425.961 485.467C427.238 483.123 429.318 481.529 432.201 480.686C433.701 480.264 435.869 479.854 438.705 479.455L439.25 483.568L436.139 484.061C434.158 484.389 432.676 484.816 431.691 485.344C430.719 485.859 429.986 486.633 429.494 487.664C429.014 488.684 428.727 490.043 428.633 491.742H428.773C429.324 490.758 429.992 490.014 430.777 489.51C431.562 489.006 432.418 488.754 433.344 488.754C435.219 488.754 436.672 489.51 437.703 491.021C438.734 492.533 439.25 494.643 439.25 497.35C439.25 500.49 438.582 502.945 437.246 504.715C435.91 506.473 434.047 507.352 431.656 507.352C429.219 507.352 427.344 506.338 426.031 504.311C424.719 502.283 424.062 499.4 424.062 495.662ZM431.832 503.361C433.59 503.361 434.469 501.516 434.469 497.824C434.469 494.25 433.672 492.463 432.078 492.463C431.387 492.463 430.742 492.744 430.145 493.307C429.547 493.857 429.113 494.561 428.844 495.416C428.844 500.713 429.84 503.361 431.832 503.361ZM451.273 507.352C450.43 507.352 449.68 507.164 449.023 506.789C448.379 506.402 447.775 505.729 447.213 504.768H446.967C447.154 506.361 447.248 507.322 447.248 507.65V515.648H442.537V487.418H446.158L446.967 489.967H447.178C448.15 488.021 449.562 487.049 451.414 487.049C453.195 487.049 454.59 487.934 455.598 489.703C456.605 491.461 457.109 493.951 457.109 497.174C457.109 500.35 456.588 502.84 455.545 504.645C454.502 506.449 453.078 507.352 451.273 507.352ZM449.832 491.021C448.918 491.021 448.256 491.449 447.846 492.305C447.447 493.148 447.236 494.555 447.213 496.523V497.139C447.213 499.295 447.418 500.865 447.828 501.85C448.238 502.834 448.918 503.326 449.867 503.326C451.508 503.326 452.328 501.252 452.328 497.104C452.328 495.064 452.123 493.541 451.713 492.533C451.314 491.525 450.688 491.021 449.832 491.021ZM463.807 507H458.516L463.385 498.967C461.029 498.029 459.852 496.207 459.852 493.5C459.852 491.59 460.484 490.102 461.75 489.035C463.027 487.957 464.779 487.418 467.006 487.418H474.213V507H469.537V499.617H467.85L463.807 507ZM464.598 493.535C464.598 495.293 465.57 496.172 467.516 496.172H469.537V490.916H467.129C465.441 490.916 464.598 491.789 464.598 493.535ZM487.871 487.418H492.793L487.432 496.699L493.127 507H487.977L482.861 496.928V507H478.186V487.418H482.861V496.77L487.871 487.418ZM509.352 497.174C509.352 500.385 508.672 502.887 507.312 504.68C505.953 506.461 504.09 507.352 501.723 507.352C500.223 507.352 498.898 506.941 497.75 506.121C496.602 505.301 495.717 504.123 495.096 502.588C494.475 501.041 494.164 499.236 494.164 497.174C494.164 493.998 494.838 491.52 496.186 489.738C497.533 487.945 499.402 487.049 501.793 487.049C504.102 487.049 505.936 487.963 507.295 489.791C508.666 491.607 509.352 494.068 509.352 497.174ZM498.945 497.174C498.945 499.213 499.168 500.754 499.613 501.797C500.059 502.84 500.773 503.361 501.758 503.361C503.633 503.361 504.57 501.299 504.57 497.174C504.57 495.123 504.342 493.594 503.885 492.586C503.439 491.566 502.73 491.057 501.758 491.057C500.773 491.057 500.059 491.566 499.613 492.586C499.168 493.594 498.945 495.123 498.945 497.174ZM526.596 492.498C526.596 493.6 526.268 494.52 525.611 495.258C524.967 495.984 524.023 496.453 522.781 496.664V496.805C524.152 496.98 525.225 497.455 525.998 498.229C526.783 498.99 527.176 499.98 527.176 501.199C527.176 503.074 526.514 504.51 525.189 505.506C523.865 506.502 521.973 507 519.512 507H512.639V487.418H519.477C524.223 487.418 526.596 489.111 526.596 492.498ZM522.324 500.918C522.324 500.086 522.055 499.488 521.516 499.125C520.977 498.762 520.162 498.58 519.072 498.58H517.314V503.502H519.143C521.264 503.502 522.324 502.641 522.324 500.918ZM521.814 492.92C521.814 491.631 520.959 490.986 519.248 490.986H517.314V495.117H518.721C519.752 495.117 520.525 494.953 521.041 494.625C521.557 494.285 521.814 493.717 521.814 492.92ZM539.674 507L538.742 504.328H538.637C537.945 505.477 537.23 506.268 536.492 506.701C535.754 507.135 534.822 507.352 533.697 507.352C532.256 507.352 531.119 506.812 530.287 505.734C529.467 504.656 529.057 503.156 529.057 501.234C529.057 499.172 529.619 497.643 530.744 496.646C531.881 495.639 533.574 495.082 535.824 494.977L538.426 494.871V493.465C538.426 491.637 537.635 490.723 536.053 490.723C534.881 490.723 533.533 491.18 532.01 492.094L530.393 488.859C532.338 487.629 534.453 487.014 536.738 487.014C538.812 487.014 540.389 487.611 541.467 488.807C542.557 489.99 543.102 491.672 543.102 493.852V507H539.674ZM535.613 503.695C536.469 503.695 537.148 503.314 537.652 502.553C538.168 501.779 538.426 500.754 538.426 499.477V497.824L536.984 497.895C535.918 497.953 535.133 498.258 534.629 498.809C534.137 499.359 533.891 500.18 533.891 501.27C533.891 502.887 534.465 503.695 535.613 503.695ZM569.732 492.498C569.732 493.6 569.404 494.52 568.748 495.258C568.104 495.984 567.16 496.453 565.918 496.664V496.805C567.289 496.98 568.361 497.455 569.135 498.229C569.92 498.99 570.312 499.98 570.312 501.199C570.312 503.074 569.65 504.51 568.326 505.506C567.002 506.502 565.109 507 562.648 507H555.775V487.418H562.613C567.359 487.418 569.732 489.111 569.732 492.498ZM565.461 500.918C565.461 500.086 565.191 499.488 564.652 499.125C564.113 498.762 563.299 498.58 562.209 498.58H560.451V503.502H562.279C564.4 503.502 565.461 502.641 565.461 500.918ZM564.951 492.92C564.951 491.631 564.096 490.986 562.385 490.986H560.451V495.117H561.857C562.889 495.117 563.662 494.953 564.178 494.625C564.693 494.285 564.951 493.717 564.951 492.92ZM592.285 487.418V491.197H586.783V507H582.107V487.418H592.285ZM594.904 504.592C594.904 503.678 595.145 502.969 595.625 502.465C596.117 501.961 596.844 501.709 597.805 501.709C598.766 501.709 599.492 501.961 599.984 502.465C600.477 502.957 600.723 503.666 600.723 504.592C600.723 505.506 600.465 506.215 599.949 506.719C599.445 507.223 598.73 507.475 597.805 507.475C596.855 507.475 596.135 507.223 595.643 506.719C595.15 506.203 594.904 505.494 594.904 504.592ZM629.727 507H624.945V495.732H618.635V507H613.854V481.301H618.635V491.514H624.945V481.301H629.727V507ZM648.5 497.174C648.5 500.385 647.82 502.887 646.461 504.68C645.102 506.461 643.238 507.352 640.871 507.352C639.371 507.352 638.047 506.941 636.898 506.121C635.75 505.301 634.865 504.123 634.244 502.588C633.623 501.041 633.312 499.236 633.312 497.174C633.312 493.998 633.986 491.52 635.334 489.738C636.682 487.945 638.551 487.049 640.941 487.049C643.25 487.049 645.084 487.963 646.443 489.791C647.814 491.607 648.5 494.068 648.5 497.174ZM638.094 497.174C638.094 499.213 638.316 500.754 638.762 501.797C639.207 502.84 639.922 503.361 640.906 503.361C642.781 503.361 643.719 501.299 643.719 497.174C643.719 495.123 643.49 493.594 643.033 492.586C642.588 491.566 641.879 491.057 640.906 491.057C639.922 491.057 639.207 491.566 638.762 492.586C638.316 493.594 638.094 495.123 638.094 497.174ZM665.744 492.498C665.744 493.6 665.416 494.52 664.76 495.258C664.115 495.984 663.172 496.453 661.93 496.664V496.805C663.301 496.98 664.373 497.455 665.146 498.229C665.932 498.99 666.324 499.98 666.324 501.199C666.324 503.074 665.662 504.51 664.338 505.506C663.014 506.502 661.121 507 658.66 507H651.787V487.418H658.625C663.371 487.418 665.744 489.111 665.744 492.498ZM661.473 500.918C661.473 500.086 661.203 499.488 660.664 499.125C660.125 498.762 659.311 498.58 658.221 498.58H656.463V503.502H658.291C660.412 503.502 661.473 502.641 661.473 500.918ZM660.963 492.92C660.963 491.631 660.107 490.986 658.396 490.986H656.463V495.117H657.869C658.9 495.117 659.674 494.953 660.189 494.625C660.705 494.285 660.963 493.717 660.963 492.92ZM683.727 497.174C683.727 500.385 683.047 502.887 681.688 504.68C680.328 506.461 678.465 507.352 676.098 507.352C674.598 507.352 673.273 506.941 672.125 506.121C670.977 505.301 670.092 504.123 669.471 502.588C668.85 501.041 668.539 499.236 668.539 497.174C668.539 493.998 669.213 491.52 670.561 489.738C671.908 487.945 673.777 487.049 676.168 487.049C678.477 487.049 680.311 487.963 681.67 489.791C683.041 491.607 683.727 494.068 683.727 497.174ZM673.32 497.174C673.32 499.213 673.543 500.754 673.988 501.797C674.434 502.84 675.148 503.361 676.133 503.361C678.008 503.361 678.945 501.299 678.945 497.174C678.945 495.123 678.717 493.594 678.26 492.586C677.814 491.566 677.105 491.057 676.133 491.057C675.148 491.057 674.434 491.566 673.988 492.586C673.543 493.594 673.32 495.123 673.32 497.174ZM695.75 507.352C694.906 507.352 694.156 507.164 693.5 506.789C692.855 506.402 692.252 505.729 691.689 504.768H691.443C691.631 506.361 691.725 507.322 691.725 507.65V515.648H687.014V487.418H690.635L691.443 489.967H691.654C692.627 488.021 694.039 487.049 695.891 487.049C697.672 487.049 699.066 487.934 700.074 489.703C701.082 491.461 701.586 493.951 701.586 497.174C701.586 500.35 701.064 502.84 700.021 504.645C698.979 506.449 697.555 507.352 695.75 507.352ZM694.309 491.021C693.395 491.021 692.732 491.449 692.322 492.305C691.924 493.148 691.713 494.555 691.689 496.523V497.139C691.689 499.295 691.895 500.865 692.305 501.85C692.715 502.834 693.395 503.326 694.344 503.326C695.984 503.326 696.805 501.252 696.805 497.104C696.805 495.064 696.6 493.541 696.189 492.533C695.791 491.525 695.164 491.021 694.309 491.021ZM719.375 497.174C719.375 500.385 718.695 502.887 717.336 504.68C715.977 506.461 714.113 507.352 711.746 507.352C710.246 507.352 708.922 506.941 707.773 506.121C706.625 505.301 705.74 504.123 705.119 502.588C704.498 501.041 704.188 499.236 704.188 497.174C704.188 493.998 704.861 491.52 706.209 489.738C707.557 487.945 709.426 487.049 711.816 487.049C714.125 487.049 715.959 487.963 717.318 489.791C718.689 491.607 719.375 494.068 719.375 497.174ZM708.969 497.174C708.969 499.213 709.191 500.754 709.637 501.797C710.082 502.84 710.797 503.361 711.781 503.361C713.656 503.361 714.594 501.299 714.594 497.174C714.594 495.123 714.365 493.594 713.908 492.586C713.463 491.566 712.754 491.057 711.781 491.057C710.797 491.057 710.082 491.566 709.637 492.586C709.191 493.594 708.969 495.123 708.969 497.174ZM729.131 507.352C726.799 507.352 725.023 506.502 723.805 504.803C722.586 503.104 721.977 500.607 721.977 497.314C721.977 493.869 722.551 491.297 723.699 489.598C724.859 487.898 726.646 487.049 729.061 487.049C729.787 487.049 730.549 487.154 731.346 487.365C732.143 487.576 732.857 487.881 733.49 488.279L732.154 491.918C731.182 491.344 730.32 491.057 729.57 491.057C728.574 491.057 727.854 491.578 727.408 492.621C726.975 493.652 726.758 495.205 726.758 497.279C726.758 499.307 726.975 500.824 727.408 501.832C727.842 502.828 728.551 503.326 729.535 503.326C730.707 503.326 731.932 502.916 733.209 502.096V506.209C731.979 506.971 730.619 507.352 729.131 507.352ZM742.49 507.352C740.158 507.352 738.383 506.502 737.164 504.803C735.945 503.104 735.336 500.607 735.336 497.314C735.336 493.869 735.91 491.297 737.059 489.598C738.219 487.898 740.006 487.049 742.42 487.049C743.146 487.049 743.908 487.154 744.705 487.365C745.502 487.576 746.217 487.881 746.85 488.279L745.514 491.918C744.541 491.344 743.68 491.057 742.93 491.057C741.934 491.057 741.213 491.578 740.768 492.621C740.334 493.652 740.117 495.205 740.117 497.279C740.117 499.307 740.334 500.824 740.768 501.832C741.201 502.828 741.91 503.326 742.895 503.326C744.066 503.326 745.291 502.916 746.568 502.096V506.209C745.338 506.971 743.979 507.352 742.49 507.352ZM753.723 487.418V496.488C753.723 497.613 753.582 499.482 753.301 502.096L759.664 487.418H765.395V507H761.035V497.789C761.035 496.406 761.17 494.543 761.439 492.199L755.059 507H749.381V487.418H753.723ZM773.727 487.418V496.488C773.727 497.613 773.586 499.482 773.305 502.096L779.668 487.418H785.398V507H781.039V497.789C781.039 496.406 781.174 494.543 781.443 492.199L775.062 507H769.385V487.418H773.727ZM783.799 479.49C783.564 481.459 782.92 482.9 781.865 483.814C780.822 484.729 779.281 485.186 777.242 485.186C775.25 485.186 773.756 484.74 772.76 483.85C771.764 482.947 771.172 481.494 770.984 479.49H774.869C774.998 480.662 775.244 481.453 775.607 481.863C775.982 482.273 776.562 482.479 777.348 482.479C778.121 482.479 778.695 482.244 779.07 481.775C779.457 481.307 779.715 480.545 779.844 479.49H783.799ZM795.857 507.352C793.525 507.352 791.75 506.502 790.531 504.803C789.312 503.104 788.703 500.607 788.703 497.314C788.703 493.869 789.277 491.297 790.426 489.598C791.586 487.898 793.373 487.049 795.787 487.049C796.514 487.049 797.275 487.154 798.072 487.365C798.869 487.576 799.584 487.881 800.217 488.279L798.881 491.918C797.908 491.344 797.047 491.057 796.297 491.057C795.301 491.057 794.58 491.578 794.135 492.621C793.701 493.652 793.484 495.205 793.484 497.279C793.484 499.307 793.701 500.824 794.135 501.832C794.568 502.828 795.277 503.326 796.262 503.326C797.434 503.326 798.658 502.916 799.936 502.096V506.209C798.705 506.971 797.346 507.352 795.857 507.352ZM812.434 487.418H817.355L811.994 496.699L817.689 507H812.539L807.424 496.928V507H802.748V487.418H807.424V496.77L812.434 487.418ZM195.301 547.139C195.301 544.033 195.752 541.127 196.654 538.42C197.568 535.713 198.881 533.34 200.592 531.301H204.723C203.082 533.562 201.84 536.047 200.996 538.754C200.152 541.461 199.73 544.244 199.73 547.104C199.73 549.998 200.17 552.793 201.049 555.488C201.928 558.184 203.141 560.586 204.688 562.695H200.592C198.869 560.703 197.557 558.377 196.654 555.717C195.752 553.057 195.301 550.197 195.301 547.139ZM221.65 542.498C221.65 543.6 221.322 544.52 220.666 545.258C220.021 545.984 219.078 546.453 217.836 546.664V546.805C219.207 546.98 220.279 547.455 221.053 548.229C221.838 548.99 222.23 549.98 222.23 551.199C222.23 553.074 221.568 554.51 220.244 555.506C218.92 556.502 217.027 557 214.566 557H207.693V537.418H214.531C219.277 537.418 221.65 539.111 221.65 542.498ZM217.379 550.918C217.379 550.086 217.109 549.488 216.57 549.125C216.031 548.762 215.217 548.58 214.127 548.58H212.369V553.502H214.197C216.318 553.502 217.379 552.641 217.379 550.918ZM216.869 542.92C216.869 541.631 216.014 540.986 214.303 540.986H212.369V545.117H213.775C214.807 545.117 215.58 544.953 216.096 544.625C216.611 544.285 216.869 543.717 216.869 542.92ZM240.494 557.352C238.162 557.352 236.387 556.502 235.168 554.803C233.949 553.104 233.34 550.607 233.34 547.314C233.34 543.869 233.914 541.297 235.062 539.598C236.223 537.898 238.01 537.049 240.424 537.049C241.15 537.049 241.912 537.154 242.709 537.365C243.506 537.576 244.221 537.881 244.854 538.279L243.518 541.918C242.545 541.344 241.684 541.057 240.934 541.057C239.938 541.057 239.217 541.578 238.771 542.621C238.338 543.652 238.121 545.205 238.121 547.279C238.121 549.307 238.338 550.824 238.771 551.832C239.205 552.828 239.914 553.326 240.898 553.326C242.07 553.326 243.295 552.916 244.572 552.096V556.209C243.342 556.971 241.982 557.352 240.494 557.352ZM261.887 547.174C261.887 550.385 261.207 552.887 259.848 554.68C258.488 556.461 256.625 557.352 254.258 557.352C252.758 557.352 251.434 556.941 250.285 556.121C249.137 555.301 248.252 554.123 247.631 552.588C247.01 551.041 246.699 549.236 246.699 547.174C246.699 543.998 247.373 541.52 248.721 539.738C250.068 537.945 251.938 537.049 254.328 537.049C256.637 537.049 258.471 537.963 259.83 539.791C261.201 541.607 261.887 544.068 261.887 547.174ZM251.48 547.174C251.48 549.213 251.703 550.754 252.148 551.797C252.594 552.84 253.309 553.361 254.293 553.361C256.168 553.361 257.105 551.299 257.105 547.174C257.105 545.123 256.877 543.594 256.42 542.586C255.975 541.566 255.266 541.057 254.293 541.057C253.309 541.057 252.594 541.566 252.148 542.586C251.703 543.594 251.48 545.123 251.48 547.174ZM271.643 557.352C269.311 557.352 267.535 556.502 266.316 554.803C265.098 553.104 264.488 550.607 264.488 547.314C264.488 543.869 265.062 541.297 266.211 539.598C267.371 537.898 269.158 537.049 271.572 537.049C272.299 537.049 273.061 537.154 273.857 537.365C274.654 537.576 275.369 537.881 276.002 538.279L274.666 541.918C273.693 541.344 272.832 541.057 272.082 541.057C271.086 541.057 270.365 541.578 269.92 542.621C269.486 543.652 269.27 545.205 269.27 547.279C269.27 549.307 269.486 550.824 269.92 551.832C270.354 552.828 271.062 553.326 272.047 553.326C273.219 553.326 274.443 552.916 275.721 552.096V556.209C274.49 556.971 273.131 557.352 271.643 557.352ZM290.592 537.418V541.197H286.232V557H281.557V541.197H277.197V537.418H290.592ZM302.264 557L301.332 554.328H301.227C300.535 555.477 299.82 556.268 299.082 556.701C298.344 557.135 297.412 557.352 296.287 557.352C294.846 557.352 293.709 556.812 292.877 555.734C292.057 554.656 291.646 553.156 291.646 551.234C291.646 549.172 292.209 547.643 293.334 546.646C294.471 545.639 296.164 545.082 298.414 544.977L301.016 544.871V543.465C301.016 541.637 300.225 540.723 298.643 540.723C297.471 540.723 296.123 541.18 294.6 542.094L292.982 538.859C294.928 537.629 297.043 537.014 299.328 537.014C301.402 537.014 302.979 537.611 304.057 538.807C305.146 539.99 305.691 541.672 305.691 543.852V557H302.264ZM298.203 553.695C299.059 553.695 299.738 553.314 300.242 552.553C300.758 551.779 301.016 550.754 301.016 549.477V547.824L299.574 547.895C298.508 547.953 297.723 548.258 297.219 548.809C296.727 549.359 296.48 550.18 296.48 551.27C296.48 552.887 297.055 553.695 298.203 553.695ZM323.428 542.498C323.428 543.6 323.1 544.52 322.443 545.258C321.799 545.984 320.855 546.453 319.613 546.664V546.805C320.984 546.98 322.057 547.455 322.83 548.229C323.615 548.99 324.008 549.98 324.008 551.199C324.008 553.074 323.346 554.51 322.021 555.506C320.697 556.502 318.805 557 316.344 557H309.471V537.418H316.309C321.055 537.418 323.428 539.111 323.428 542.498ZM319.156 550.918C319.156 550.086 318.887 549.488 318.348 549.125C317.809 548.762 316.994 548.58 315.904 548.58H314.146V553.502H315.975C318.096 553.502 319.156 552.641 319.156 550.918ZM318.646 542.92C318.646 541.631 317.791 540.986 316.08 540.986H314.146V545.117H315.553C316.584 545.117 317.357 544.953 317.873 544.625C318.389 544.285 318.646 543.717 318.646 542.92ZM334.133 557.352C331.684 557.352 329.75 556.484 328.332 554.75C326.926 553.004 326.223 550.537 326.223 547.35C326.223 544.115 326.861 541.59 328.139 539.773C329.416 537.957 331.197 537.049 333.482 537.049C335.615 537.049 337.297 537.828 338.527 539.387C339.758 540.934 340.373 543.107 340.373 545.908V548.404H330.969C331.004 550.15 331.361 551.451 332.041 552.307C332.721 553.15 333.658 553.572 334.854 553.572C336.377 553.572 337.936 553.098 339.529 552.148V555.998C338.029 556.9 336.23 557.352 334.133 557.352ZM333.447 540.652C332.779 540.652 332.229 541.01 331.795 541.725C331.361 542.428 331.109 543.523 331.039 545.012H335.785C335.762 543.582 335.545 542.498 335.135 541.76C334.725 541.021 334.162 540.652 333.447 540.652ZM362.047 537.418H366.969L361.607 546.699L367.303 557H362.152L357.037 546.928V557H352.361V537.418H357.037V546.77L362.047 537.418ZM383.527 547.174C383.527 550.385 382.848 552.887 381.488 554.68C380.129 556.461 378.266 557.352 375.898 557.352C374.398 557.352 373.074 556.941 371.926 556.121C370.777 555.301 369.893 554.123 369.271 552.588C368.65 551.041 368.34 549.236 368.34 547.174C368.34 543.998 369.014 541.52 370.361 539.738C371.709 537.945 373.578 537.049 375.969 537.049C378.277 537.049 380.111 537.963 381.471 539.791C382.842 541.607 383.527 544.068 383.527 547.174ZM373.121 547.174C373.121 549.213 373.344 550.754 373.789 551.797C374.234 552.84 374.949 553.361 375.934 553.361C377.809 553.361 378.746 551.299 378.746 547.174C378.746 545.123 378.518 543.594 378.061 542.586C377.615 541.566 376.906 541.057 375.934 541.057C374.949 541.057 374.234 541.566 373.789 542.586C373.344 543.594 373.121 545.123 373.121 547.174ZM391.49 537.418V545.047H396.781V537.418H401.492V557H396.781V548.791H391.49V557H386.814V537.418H391.49ZM411.916 557.352C409.584 557.352 407.809 556.502 406.59 554.803C405.371 553.104 404.762 550.607 404.762 547.314C404.762 543.869 405.336 541.297 406.484 539.598C407.645 537.898 409.432 537.049 411.846 537.049C412.572 537.049 413.334 537.154 414.131 537.365C414.928 537.576 415.643 537.881 416.275 538.279L414.939 541.918C413.967 541.344 413.105 541.057 412.355 541.057C411.359 541.057 410.639 541.578 410.193 542.621C409.76 543.652 409.543 545.205 409.543 547.279C409.543 549.307 409.76 550.824 410.193 551.832C410.627 552.828 411.336 553.326 412.32 553.326C413.492 553.326 414.717 552.916 415.994 552.096V556.209C414.764 556.971 413.404 557.352 411.916 557.352ZM433.309 547.174C433.309 550.385 432.629 552.887 431.27 554.68C429.91 556.461 428.047 557.352 425.68 557.352C424.18 557.352 422.855 556.941 421.707 556.121C420.559 555.301 419.674 554.123 419.053 552.588C418.432 551.041 418.121 549.236 418.121 547.174C418.121 543.998 418.795 541.52 420.143 539.738C421.49 537.945 423.359 537.049 425.75 537.049C428.059 537.049 429.893 537.963 431.252 539.791C432.623 541.607 433.309 544.068 433.309 547.174ZM422.902 547.174C422.902 549.213 423.125 550.754 423.57 551.797C424.016 552.84 424.73 553.361 425.715 553.361C427.59 553.361 428.527 551.299 428.527 547.174C428.527 545.123 428.299 543.594 427.842 542.586C427.396 541.566 426.688 541.057 425.715 541.057C424.73 541.057 424.016 541.566 423.57 542.586C423.125 543.594 422.902 545.123 422.902 547.174ZM445.332 557.352C444.488 557.352 443.738 557.164 443.082 556.789C442.438 556.402 441.834 555.729 441.271 554.768H441.025C441.213 556.361 441.307 557.322 441.307 557.65V565.648H436.596V537.418H440.217L441.025 539.967H441.236C442.209 538.021 443.621 537.049 445.473 537.049C447.254 537.049 448.648 537.934 449.656 539.703C450.664 541.461 451.168 543.951 451.168 547.174C451.168 550.35 450.646 552.84 449.604 554.645C448.561 556.449 447.137 557.352 445.332 557.352ZM443.891 541.021C442.977 541.021 442.314 541.449 441.904 542.305C441.506 543.148 441.295 544.555 441.271 546.523V547.139C441.271 549.295 441.477 550.865 441.887 551.85C442.297 552.834 442.977 553.326 443.926 553.326C445.566 553.326 446.387 551.252 446.387 547.104C446.387 545.064 446.182 543.541 445.771 542.533C445.373 541.525 444.746 541.021 443.891 541.021ZM469.098 553.326H471.734V563.979H467.076V557H454.455V537.418H459.131V553.221H464.387V537.418H469.098V553.326ZM478.484 537.418V546.488C478.484 547.613 478.344 549.482 478.062 552.096L484.426 537.418H490.156V557H485.797V547.789C485.797 546.406 485.932 544.543 486.201 542.199L479.82 557H474.143V537.418H478.484ZM492.16 537.418H497.012L499.719 548.475C499.988 549.459 500.205 550.836 500.369 552.605H500.475C500.486 552.324 500.539 551.826 500.633 551.111C500.727 550.385 500.803 549.816 500.861 549.406C500.92 548.996 501.729 545 503.287 537.418H508.209L502.602 558.406C501.922 560.984 501.02 562.836 499.895 563.961C498.77 565.086 497.27 565.648 495.395 565.648C494.469 565.648 493.643 565.549 492.916 565.35V561.43C493.396 561.57 493.936 561.641 494.533 561.641C496.104 561.641 497.135 560.609 497.627 558.547L497.961 557.316L492.16 537.418ZM530.445 557H526.262V541.092C525.922 542.99 525.441 545.123 524.82 547.49L522.271 557H518.299L515.75 547.455C515.199 545.404 514.719 543.283 514.309 541.092V557H510.213V537.418H516.945L519.318 546.559C519.834 548.598 520.145 550.496 520.25 552.254C520.297 551.656 520.42 550.818 520.619 549.74C520.83 548.662 521.064 547.602 521.322 546.559L523.748 537.418H530.445V557ZM543.963 557L543.031 554.328H542.926C542.234 555.477 541.52 556.268 540.781 556.701C540.043 557.135 539.111 557.352 537.986 557.352C536.545 557.352 535.408 556.812 534.576 555.734C533.756 554.656 533.346 553.156 533.346 551.234C533.346 549.172 533.908 547.643 535.033 546.646C536.17 545.639 537.863 545.082 540.113 544.977L542.715 544.871V543.465C542.715 541.637 541.924 540.723 540.342 540.723C539.17 540.723 537.822 541.18 536.299 542.094L534.682 538.859C536.627 537.629 538.742 537.014 541.027 537.014C543.102 537.014 544.678 537.611 545.756 538.807C546.846 539.99 547.391 541.672 547.391 543.852V557H543.963ZM539.902 553.695C540.758 553.695 541.438 553.314 541.941 552.553C542.457 551.779 542.715 550.754 542.715 549.477V547.824L541.273 547.895C540.207 547.953 539.422 548.258 538.918 548.809C538.426 549.359 538.18 550.18 538.18 551.27C538.18 552.887 538.754 553.695 539.902 553.695ZM574.021 542.498C574.021 543.6 573.693 544.52 573.037 545.258C572.393 545.984 571.449 546.453 570.207 546.664V546.805C571.578 546.98 572.65 547.455 573.424 548.229C574.209 548.99 574.602 549.98 574.602 551.199C574.602 553.074 573.939 554.51 572.615 555.506C571.291 556.502 569.398 557 566.938 557H560.064V537.418H566.902C571.648 537.418 574.021 539.111 574.021 542.498ZM569.75 550.918C569.75 550.086 569.48 549.488 568.941 549.125C568.402 548.762 567.588 548.58 566.498 548.58H564.74V553.502H566.568C568.689 553.502 569.75 552.641 569.75 550.918ZM569.24 542.92C569.24 541.631 568.385 540.986 566.674 540.986H564.74V545.117H566.146C567.178 545.117 567.951 544.953 568.467 544.625C568.982 544.285 569.24 543.717 569.24 542.92ZM592.004 547.174C592.004 550.385 591.324 552.887 589.965 554.68C588.605 556.461 586.742 557.352 584.375 557.352C582.875 557.352 581.551 556.941 580.402 556.121C579.254 555.301 578.369 554.123 577.748 552.588C577.127 551.041 576.816 549.236 576.816 547.174C576.816 543.998 577.49 541.52 578.838 539.738C580.186 537.945 582.055 537.049 584.445 537.049C586.754 537.049 588.588 537.963 589.947 539.791C591.318 541.607 592.004 544.068 592.004 547.174ZM581.598 547.174C581.598 549.213 581.82 550.754 582.266 551.797C582.711 552.84 583.426 553.361 584.41 553.361C586.285 553.361 587.223 551.299 587.223 547.174C587.223 545.123 586.994 543.594 586.537 542.586C586.092 541.566 585.383 541.057 584.41 541.057C583.426 541.057 582.711 541.566 582.266 542.586C581.82 543.594 581.598 545.123 581.598 547.174ZM614.363 537.418V541.197H608.861V557H604.186V537.418H614.363ZM630.219 557H625.525V541.197H622.906C622.672 545.17 622.291 548.322 621.764 550.654C621.248 552.986 620.551 554.68 619.672 555.734C618.805 556.789 617.65 557.316 616.209 557.316C615.33 557.316 614.609 557.188 614.047 556.93V553.08C614.398 553.197 614.756 553.256 615.119 553.256C616.104 553.256 616.871 552.002 617.422 549.494C617.973 546.975 618.395 542.949 618.688 537.418H630.219V557ZM643.771 557L642.84 554.328H642.734C642.043 555.477 641.328 556.268 640.59 556.701C639.852 557.135 638.92 557.352 637.795 557.352C636.354 557.352 635.217 556.812 634.385 555.734C633.564 554.656 633.154 553.156 633.154 551.234C633.154 549.172 633.717 547.643 634.842 546.646C635.979 545.639 637.672 545.082 639.922 544.977L642.523 544.871V543.465C642.523 541.637 641.732 540.723 640.15 540.723C638.979 540.723 637.631 541.18 636.107 542.094L634.49 538.859C636.436 537.629 638.551 537.014 640.836 537.014C642.91 537.014 644.486 537.611 645.564 538.807C646.654 539.99 647.199 541.672 647.199 543.852V557H643.771ZM639.711 553.695C640.566 553.695 641.246 553.314 641.75 552.553C642.266 551.779 642.523 550.754 642.523 549.477V547.824L641.082 547.895C640.016 547.953 639.23 548.258 638.727 548.809C638.234 549.359 637.988 550.18 637.988 551.27C637.988 552.887 638.562 553.695 639.711 553.695ZM664.936 542.498C664.936 543.6 664.607 544.52 663.951 545.258C663.307 545.984 662.363 546.453 661.121 546.664V546.805C662.492 546.98 663.564 547.455 664.338 548.229C665.123 548.99 665.516 549.98 665.516 551.199C665.516 553.074 664.854 554.51 663.529 555.506C662.205 556.502 660.312 557 657.852 557H650.979V537.418H657.816C662.562 537.418 664.936 539.111 664.936 542.498ZM660.664 550.918C660.664 550.086 660.395 549.488 659.855 549.125C659.316 548.762 658.502 548.58 657.412 548.58H655.654V553.502H657.482C659.604 553.502 660.664 552.641 660.664 550.918ZM660.154 542.92C660.154 541.631 659.299 540.986 657.588 540.986H655.654V545.117H657.061C658.092 545.117 658.865 544.953 659.381 544.625C659.896 544.285 660.154 543.717 660.154 542.92ZM675.641 557.352C673.191 557.352 671.258 556.484 669.84 554.75C668.434 553.004 667.73 550.537 667.73 547.35C667.73 544.115 668.369 541.59 669.646 539.773C670.924 537.957 672.705 537.049 674.99 537.049C677.123 537.049 678.805 537.828 680.035 539.387C681.266 540.934 681.881 543.107 681.881 545.908V548.404H672.477C672.512 550.15 672.869 551.451 673.549 552.307C674.229 553.15 675.166 553.572 676.361 553.572C677.885 553.572 679.443 553.098 681.037 552.148V555.998C679.537 556.9 677.738 557.352 675.641 557.352ZM674.955 540.652C674.287 540.652 673.736 541.01 673.303 541.725C672.869 542.428 672.617 543.523 672.547 545.012H677.293C677.27 543.582 677.053 542.498 676.643 541.76C676.232 541.021 675.67 540.652 674.955 540.652ZM700.338 557.352C698.006 557.352 696.23 556.502 695.012 554.803C693.793 553.104 693.184 550.607 693.184 547.314C693.184 543.869 693.758 541.297 694.906 539.598C696.066 537.898 697.854 537.049 700.268 537.049C700.994 537.049 701.756 537.154 702.553 537.365C703.35 537.576 704.064 537.881 704.697 538.279L703.361 541.918C702.389 541.344 701.527 541.057 700.777 541.057C699.781 541.057 699.061 541.578 698.615 542.621C698.182 543.652 697.965 545.205 697.965 547.279C697.965 549.307 698.182 550.824 698.615 551.832C699.049 552.828 699.758 553.326 700.742 553.326C701.914 553.326 703.139 552.916 704.416 552.096V556.209C703.186 556.971 701.826 557.352 700.338 557.352ZM728.797 557H714.893V553.66L723.102 535.467H715.139V531.301H728.533V534.641L720.324 552.816H728.797V557ZM741.154 557L740.223 554.328H740.117C739.426 555.477 738.711 556.268 737.973 556.701C737.234 557.135 736.303 557.352 735.178 557.352C733.736 557.352 732.6 556.812 731.768 555.734C730.947 554.656 730.537 553.156 730.537 551.234C730.537 549.172 731.1 547.643 732.225 546.646C733.361 545.639 735.055 545.082 737.305 544.977L739.906 544.871V543.465C739.906 541.637 739.115 540.723 737.533 540.723C736.361 540.723 735.014 541.18 733.49 542.094L731.873 538.859C733.818 537.629 735.934 537.014 738.219 537.014C740.293 537.014 741.869 537.611 742.947 538.807C744.037 539.99 744.582 541.672 744.582 543.852V557H741.154ZM737.094 553.695C737.949 553.695 738.629 553.314 739.133 552.553C739.648 551.779 739.906 550.754 739.906 549.477V547.824L738.465 547.895C737.398 547.953 736.613 548.258 736.109 548.809C735.617 549.359 735.371 550.18 735.371 551.27C735.371 552.887 735.945 553.695 737.094 553.695ZM758.117 557V545.328C758.117 542.457 757.396 541.021 755.955 541.021C754.877 541.021 754.121 541.59 753.688 542.727C753.254 543.852 753.037 545.475 753.037 547.596V557H748.361V529.648H753.037V535.73C753.037 536.516 752.967 537.916 752.826 539.932H753.072C754.01 538.01 755.451 537.049 757.396 537.049C759.189 537.049 760.543 537.658 761.457 538.877C762.371 540.084 762.828 541.865 762.828 544.221V557H758.117ZM776.205 557L775.273 554.328H775.168C774.477 555.477 773.762 556.268 773.023 556.701C772.285 557.135 771.354 557.352 770.229 557.352C768.787 557.352 767.65 556.812 766.818 555.734C765.998 554.656 765.588 553.156 765.588 551.234C765.588 549.172 766.15 547.643 767.275 546.646C768.412 545.639 770.105 545.082 772.355 544.977L774.957 544.871V543.465C774.957 541.637 774.166 540.723 772.584 540.723C771.412 540.723 770.064 541.18 768.541 542.094L766.924 538.859C768.869 537.629 770.984 537.014 773.27 537.014C775.344 537.014 776.92 537.611 777.998 538.807C779.088 539.99 779.633 541.672 779.633 543.852V557H776.205ZM772.145 553.695C773 553.695 773.68 553.314 774.184 552.553C774.699 551.779 774.957 550.754 774.957 549.477V547.824L773.516 547.895C772.449 547.953 771.664 548.258 771.16 548.809C770.668 549.359 770.422 550.18 770.422 551.27C770.422 552.887 770.996 553.695 772.145 553.695ZM212.141 607H207.359V595.732H201.049V607H196.268V581.301H201.049V591.514H207.359V581.301H212.141V607ZM226.01 607L225.078 604.328H224.973C224.281 605.477 223.566 606.268 222.828 606.701C222.09 607.135 221.158 607.352 220.033 607.352C218.592 607.352 217.455 606.812 216.623 605.734C215.803 604.656 215.393 603.156 215.393 601.234C215.393 599.172 215.955 597.643 217.08 596.646C218.217 595.639 219.91 595.082 222.16 594.977L224.762 594.871V593.465C224.762 591.637 223.971 590.723 222.389 590.723C221.217 590.723 219.869 591.18 218.346 592.094L216.729 588.859C218.674 587.629 220.789 587.014 223.074 587.014C225.148 587.014 226.725 587.611 227.803 588.807C228.893 589.99 229.438 591.672 229.438 593.852V607H226.01ZM221.949 603.695C222.805 603.695 223.484 603.314 223.988 602.553C224.504 601.779 224.762 600.754 224.762 599.477V597.824L223.32 597.895C222.254 597.953 221.469 598.258 220.965 598.809C220.473 599.359 220.227 600.18 220.227 601.27C220.227 602.887 220.801 603.695 221.949 603.695ZM238.367 607.352C236.562 607.352 235.139 606.461 234.096 604.68C233.053 602.898 232.531 600.42 232.531 597.244C232.531 594.057 233.041 591.561 234.061 589.756C235.08 587.951 236.486 587.049 238.279 587.049C239.17 587.049 239.938 587.271 240.582 587.717C241.238 588.15 241.842 588.889 242.393 589.932H242.674C242.533 588.15 242.463 586.902 242.463 586.188V579.648H247.139V607H243.658L242.867 604.451H242.709C241.713 606.385 240.266 607.352 238.367 607.352ZM239.879 603.396C240.746 603.396 241.379 603.004 241.777 602.219C242.176 601.422 242.393 599.98 242.428 597.895V597.279C242.428 595.006 242.223 593.406 241.812 592.48C241.414 591.555 240.752 591.092 239.826 591.092C238.959 591.092 238.326 591.625 237.928 592.691C237.541 593.746 237.348 595.287 237.348 597.314C237.348 599.342 237.547 600.865 237.945 601.885C238.344 602.893 238.988 603.396 239.879 603.396ZM255.787 607H251.111V587.418H255.787V607ZM250.918 582.303C250.918 581.529 251.141 580.92 251.586 580.475C252.043 580.018 252.676 579.789 253.484 579.789C254.246 579.789 254.855 580.018 255.312 580.475C255.77 580.92 255.998 581.529 255.998 582.303C255.998 583.1 255.764 583.721 255.295 584.166C254.826 584.6 254.223 584.816 253.484 584.816C252.711 584.816 252.09 584.6 251.621 584.166C251.152 583.721 250.918 583.1 250.918 582.303ZM264.945 607.352C263.141 607.352 261.717 606.461 260.674 604.68C259.631 602.898 259.109 600.42 259.109 597.244C259.109 594.057 259.619 591.561 260.639 589.756C261.658 587.951 263.064 587.049 264.857 587.049C265.748 587.049 266.516 587.271 267.16 587.717C267.816 588.15 268.42 588.889 268.971 589.932H269.252C269.111 588.15 269.041 586.902 269.041 586.188V579.648H273.717V607H270.236L269.445 604.451H269.287C268.291 606.385 266.844 607.352 264.945 607.352ZM266.457 603.396C267.324 603.396 267.957 603.004 268.355 602.219C268.754 601.422 268.971 599.98 269.006 597.895V597.279C269.006 595.006 268.801 593.406 268.391 592.48C267.992 591.555 267.33 591.092 266.404 591.092C265.537 591.092 264.904 591.625 264.506 592.691C264.119 593.746 263.926 595.287 263.926 597.314C263.926 599.342 264.125 600.865 264.523 601.885C264.922 602.893 265.566 603.396 266.457 603.396ZM298.994 607L297.518 600.514H290.82L289.344 607H284.562L290.926 581.195H297.412L303.793 607H298.994ZM296.621 596.277L295.25 590.301C295.168 589.938 294.98 589.029 294.688 587.576C294.406 586.111 294.236 585.133 294.178 584.641C294.025 585.648 293.832 586.762 293.598 587.98C293.363 589.188 292.754 591.953 291.77 596.277H296.621ZM314.129 587.049C314.703 587.049 315.266 587.137 315.816 587.312L315.271 591.848C314.943 591.73 314.516 591.672 313.988 591.672C312.852 591.672 311.979 592.123 311.369 593.025C310.76 593.916 310.455 595.217 310.455 596.928V607H305.779V587.418H309.629L310.156 590.477H310.314C310.83 589.246 311.393 588.367 312.002 587.84C312.611 587.312 313.32 587.049 314.129 587.049ZM324.377 607.352C322.045 607.352 320.27 606.502 319.051 604.803C317.832 603.104 317.223 600.607 317.223 597.314C317.223 593.869 317.797 591.297 318.945 589.598C320.105 587.898 321.893 587.049 324.307 587.049C325.033 587.049 325.795 587.154 326.592 587.365C327.389 587.576 328.104 587.881 328.736 588.279L327.4 591.918C326.428 591.344 325.566 591.057 324.816 591.057C323.82 591.057 323.1 591.578 322.654 592.621C322.221 593.652 322.004 595.205 322.004 597.279C322.004 599.307 322.221 600.824 322.654 601.832C323.088 602.828 323.797 603.326 324.781 603.326C325.953 603.326 327.178 602.916 328.455 602.096V606.209C327.225 606.971 325.865 607.352 324.377 607.352ZM341.023 607V595.328C341.023 592.457 340.303 591.021 338.861 591.021C337.783 591.021 337.027 591.59 336.594 592.727C336.16 593.852 335.943 595.475 335.943 597.596V607H331.268V579.648H335.943V585.73C335.943 586.516 335.873 587.916 335.732 589.932H335.979C336.916 588.01 338.357 587.049 340.303 587.049C342.096 587.049 343.449 587.658 344.363 588.877C345.277 590.084 345.734 591.865 345.734 594.221V607H341.023ZM354.225 607H349.549V587.418H354.225V607ZM349.355 582.303C349.355 581.529 349.578 580.92 350.023 580.475C350.48 580.018 351.113 579.789 351.922 579.789C352.684 579.789 353.293 580.018 353.75 580.475C354.207 580.92 354.436 581.529 354.436 582.303C354.436 583.1 354.201 583.721 353.732 584.166C353.264 584.6 352.66 584.816 351.922 584.816C351.148 584.816 350.527 584.6 350.059 584.166C349.59 583.721 349.355 583.1 349.355 582.303ZM365.035 603.396C365.691 603.396 366.4 603.232 367.162 602.904V606.561C366.4 607.088 365.258 607.352 363.734 607.352C362.035 607.352 360.775 606.848 359.955 605.84C359.135 604.82 358.725 603.297 358.725 601.27V591.127H356.826V589.035L359.27 587.348L360.465 583.199H363.453V587.418H367.004V591.127H363.453V601.428C363.453 602.74 363.98 603.396 365.035 603.396ZM377.129 607.352C374.68 607.352 372.746 606.484 371.328 604.75C369.922 603.004 369.219 600.537 369.219 597.35C369.219 594.115 369.857 591.59 371.135 589.773C372.412 587.957 374.193 587.049 376.479 587.049C378.611 587.049 380.293 587.828 381.523 589.387C382.754 590.934 383.369 593.107 383.369 595.908V598.404H373.965C374 600.15 374.357 601.451 375.037 602.307C375.717 603.15 376.654 603.572 377.85 603.572C379.373 603.572 380.932 603.098 382.525 602.148V605.998C381.025 606.9 379.227 607.352 377.129 607.352ZM376.443 590.652C375.775 590.652 375.225 591.01 374.791 591.725C374.357 592.428 374.105 593.523 374.035 595.012H378.781C378.758 593.582 378.541 592.498 378.131 591.76C377.721 591.021 377.158 590.652 376.443 590.652ZM392.932 607.352C390.6 607.352 388.824 606.502 387.605 604.803C386.387 603.104 385.777 600.607 385.777 597.314C385.777 593.869 386.352 591.297 387.5 589.598C388.66 587.898 390.447 587.049 392.861 587.049C393.588 587.049 394.35 587.154 395.146 587.365C395.943 587.576 396.658 587.881 397.291 588.279L395.955 591.918C394.982 591.344 394.121 591.057 393.371 591.057C392.375 591.057 391.654 591.578 391.209 592.621C390.775 593.652 390.559 595.205 390.559 597.279C390.559 599.307 390.775 600.824 391.209 601.832C391.643 602.828 392.352 603.326 393.336 603.326C394.508 603.326 395.732 602.916 397.01 602.096V606.209C395.779 606.971 394.42 607.352 392.932 607.352ZM406.625 603.396C407.281 603.396 407.99 603.232 408.752 602.904V606.561C407.99 607.088 406.848 607.352 405.324 607.352C403.625 607.352 402.365 606.848 401.545 605.84C400.725 604.82 400.314 603.297 400.314 601.27V591.127H398.416V589.035L400.859 587.348L402.055 583.199H405.043V587.418H408.594V591.127H405.043V601.428C405.043 602.74 405.57 603.396 406.625 603.396ZM422.006 601.27C422.006 603.18 421.443 604.674 420.318 605.752C419.205 606.818 417.559 607.352 415.379 607.352C413.445 607.352 411.846 606.971 410.58 606.209V602.148C411.225 602.594 411.975 602.963 412.83 603.256C413.697 603.549 414.459 603.695 415.115 603.695C415.842 603.695 416.393 603.52 416.768 603.168C417.154 602.805 417.348 602.33 417.348 601.744C417.348 601.146 417.148 600.625 416.75 600.18C416.352 599.734 415.619 599.189 414.553 598.545C413.135 597.701 412.115 596.805 411.494 595.855C410.885 594.895 410.58 593.764 410.58 592.463C410.58 590.799 411.148 589.48 412.285 588.508C413.434 587.535 415.004 587.049 416.996 587.049C418.73 587.049 420.365 587.506 421.9 588.42L420.371 591.777C419.117 591.098 418.016 590.758 417.066 590.758C416.469 590.758 416.018 590.916 415.713 591.232C415.42 591.549 415.273 591.936 415.273 592.393C415.273 592.92 415.455 593.389 415.818 593.799C416.193 594.209 416.885 594.719 417.893 595.328C419.111 596.066 419.967 596.693 420.459 597.209C420.951 597.725 421.332 598.311 421.602 598.967C421.871 599.623 422.006 600.391 422.006 601.27ZM433.379 597.139C433.379 600.221 432.922 603.092 432.008 605.752C431.105 608.412 429.799 610.727 428.088 612.695H423.975C425.557 610.539 426.781 608.125 427.648 605.453C428.516 602.77 428.949 599.986 428.949 597.104C428.949 594.244 428.527 591.461 427.684 588.754C426.84 586.047 425.592 583.562 423.939 581.301H428.088C429.811 583.352 431.123 585.736 432.025 588.455C432.928 591.162 433.379 594.057 433.379 597.139ZM436.631 604.592C436.631 603.678 436.871 602.969 437.352 602.465C437.844 601.961 438.57 601.709 439.531 601.709C440.492 601.709 441.219 601.961 441.711 602.465C442.203 602.957 442.449 603.666 442.449 604.592C442.449 605.506 442.191 606.215 441.676 606.719C441.172 607.223 440.457 607.475 439.531 607.475C438.582 607.475 437.861 607.223 437.369 606.719C436.877 606.203 436.631 605.494 436.631 604.592Z" fill="black"/>
<defs>
<filter id="filter0_d" x="0" y="0" width="982" height="987" filterUnits="userSpaceOnUse" color-interpolation-filters="sRGB">
<feFlood flood-opacity="0" result="BackgroundImageFix"/>
<feColorMatrix in="SourceAlpha" type="matrix" values="0 0 0 0 0 0 0 0 0 0 0 0 0 0 0 0 0 0 127 0"/>
<feOffset dy="4"/>
<feGaussianBlur stdDeviation="50"/>
<feColorMatrix type="matrix" values="0 0 0 0 0 0 0 0 0 0 0 0 0 0 0 0 0 0 0.25 0"/>
<feBlend mode="normal" in2="BackgroundImageFix" result="effect1_dropShadow"/>
<feBlend mode="normal" in="SourceGraphic" in2="effect1_dropShadow" result="shape"/>
</filter>
</defs>
</svg>
