<svg width="816" height="816" viewBox="0 0 816 816" fill="none" xmlns="http://www.w3.org/2000/svg">
<g filter="url(#filter0_d)">
<circle cx="408" cy="404" r="308" fill="white"/>
</g>
<path d="M205.313 335H200.947V315.293H196.435V311.442H209.825V315.293H205.313V335ZM226.905 335H222.555V315.293H216.738V335H212.355V311.442H226.905V335ZM247.289 323.189C247.289 327.088 246.558 330.085 245.097 332.18C243.636 334.275 241.547 335.322 238.829 335.322C236.101 335.322 234.006 334.28 232.545 332.196C231.084 330.102 230.354 327.088 230.354 323.157C230.354 319.257 231.084 316.271 232.545 314.198C234.006 312.114 236.111 311.072 238.861 311.072C241.579 311.072 243.663 312.119 245.113 314.214C246.563 316.298 247.289 319.29 247.289 323.189ZM234.833 323.189C234.833 325.875 235.171 327.921 235.848 329.328C236.525 330.735 237.519 331.439 238.829 331.439C241.472 331.439 242.793 328.689 242.793 323.189C242.793 317.689 241.482 314.939 238.861 314.939C237.529 314.939 236.525 315.643 235.848 317.05C235.171 318.446 234.833 320.493 234.833 323.189ZM264.143 319.161C264.476 317.893 264.922 316.529 265.48 315.068C266.039 313.596 266.539 312.388 266.979 311.442H270.25C269.541 314.311 268.999 317.001 268.623 319.515H264.369L264.143 319.161ZM257.134 319.161C257.402 318.119 257.794 316.894 258.31 315.487C258.826 314.08 259.384 312.731 259.986 311.442H263.241C262.908 312.785 262.58 314.273 262.258 315.906C261.936 317.539 261.726 318.742 261.629 319.515H257.375L257.134 319.161ZM287.201 335H282.851V315.293H277.034V335H272.651V311.442H287.201V335ZM304.217 318.693C304.217 321.196 303.583 323.119 302.315 324.462C301.059 325.794 299.238 326.46 296.853 326.46H295.757V335H291.375V311.442H297.353C301.929 311.442 304.217 313.859 304.217 318.693ZM295.757 322.657H296.595C297.669 322.657 298.47 322.362 298.996 321.771C299.522 321.18 299.786 320.213 299.786 318.871C299.786 317.635 299.544 316.722 299.061 316.131C298.577 315.53 297.831 315.229 296.821 315.229H295.757V322.657ZM317.381 335L316.028 329.054H309.889L308.535 335H304.152L309.985 311.346H315.931L321.78 335H317.381ZM315.206 325.171L313.949 319.692C313.874 319.359 313.702 318.527 313.434 317.195C313.176 315.852 313.02 314.955 312.966 314.504C312.827 315.428 312.649 316.448 312.435 317.565C312.22 318.672 311.661 321.207 310.759 325.171H315.206ZM323.859 311.442H327.919V324.381C327.919 325.724 327.817 327.051 327.613 328.361H327.791L334.977 311.442H340.359V335H336.331V322.093C336.331 320.503 336.454 319.107 336.701 317.904H336.492L329.273 335H323.859V311.442ZM337.99 304.336C337.775 306.141 337.185 307.462 336.218 308.3C335.262 309.138 333.849 309.557 331.98 309.557C330.154 309.557 328.784 309.149 327.871 308.333C326.958 307.505 326.416 306.173 326.244 304.336H329.805C329.923 305.411 330.148 306.136 330.481 306.512C330.825 306.888 331.357 307.076 332.077 307.076C332.786 307.076 333.312 306.861 333.656 306.431C334.01 306.001 334.247 305.303 334.365 304.336H337.99ZM361.677 341.735H357.423V335H346.853V341.735H342.599V331.133H343.984C346.197 325.257 347.615 318.693 348.238 311.442H359.002V331.133H361.677V341.735ZM354.619 331.133V315.293H351.944C351.676 317.904 351.241 320.616 350.639 323.431C350.048 326.234 349.35 328.802 348.544 331.133H354.619ZM368.622 311.797C368.084 313.913 367.139 316.486 365.786 319.515H362.515C363.202 316.765 363.745 314.074 364.142 311.442H368.396L368.622 311.797ZM375.631 311.797C375.104 313.859 374.154 316.432 372.779 319.515H369.524C370.19 316.873 370.727 314.182 371.135 311.442H375.389L375.631 311.797ZM385.267 328.039V324.269H393.372V328.039H385.267ZM417.977 317.05V335H413.658V320.514H408.808V335H404.522V317.05H417.977ZM434.928 325.993C434.928 328.936 434.305 331.229 433.059 332.873C431.812 334.506 430.104 335.322 427.935 335.322C426.56 335.322 425.346 334.946 424.293 334.194C423.24 333.442 422.429 332.363 421.86 330.956C421.291 329.538 421.006 327.883 421.006 325.993C421.006 323.082 421.624 320.81 422.859 319.177C424.094 317.533 425.808 316.711 427.999 316.711C430.115 316.711 431.796 317.549 433.042 319.225C434.299 320.89 434.928 323.146 434.928 325.993ZM425.389 325.993C425.389 327.862 425.593 329.274 426.001 330.23C426.409 331.187 427.064 331.665 427.967 331.665C429.686 331.665 430.545 329.774 430.545 325.993C430.545 324.113 430.335 322.711 429.917 321.787C429.508 320.853 428.858 320.385 427.967 320.385C427.064 320.385 426.409 320.853 426.001 321.787C425.593 322.711 425.389 324.113 425.389 325.993ZM437.312 324.607C437.312 320.525 437.893 317.41 439.053 315.261C440.224 313.113 442.13 311.652 444.773 310.878C446.148 310.492 448.135 310.116 450.735 309.75L451.234 313.521L448.382 313.972C446.567 314.273 445.208 314.665 444.306 315.148C443.414 315.621 442.743 316.33 442.292 317.275C441.851 318.21 441.588 319.456 441.502 321.014H441.631C442.136 320.111 442.748 319.429 443.468 318.967C444.188 318.505 444.972 318.274 445.82 318.274C447.539 318.274 448.871 318.967 449.816 320.353C450.762 321.739 451.234 323.672 451.234 326.154C451.234 329.033 450.622 331.283 449.397 332.905C448.173 334.517 446.465 335.322 444.273 335.322C442.039 335.322 440.32 334.393 439.117 332.535C437.914 330.676 437.312 328.034 437.312 324.607ZM444.435 331.665C446.046 331.665 446.852 329.973 446.852 326.589C446.852 323.312 446.121 321.674 444.66 321.674C444.026 321.674 443.436 321.932 442.888 322.448C442.34 322.953 441.942 323.597 441.695 324.381C441.695 329.237 442.608 331.665 444.435 331.665ZM460.87 335.322C458.625 335.322 456.853 334.527 455.553 332.938C454.264 331.337 453.619 329.076 453.619 326.154C453.619 323.189 454.205 320.874 455.375 319.209C456.546 317.544 458.179 316.711 460.274 316.711C462.229 316.711 463.771 317.426 464.898 318.854C466.026 320.272 466.59 322.265 466.59 324.833V327.121H457.97C458.002 328.721 458.33 329.914 458.953 330.698C459.576 331.471 460.435 331.858 461.531 331.858C462.927 331.858 464.356 331.423 465.817 330.553V334.082C464.442 334.909 462.793 335.322 460.87 335.322ZM460.242 320.015C459.629 320.015 459.125 320.342 458.727 320.998C458.33 321.642 458.099 322.646 458.034 324.011H462.385C462.363 322.7 462.165 321.707 461.789 321.03C461.413 320.353 460.897 320.015 460.242 320.015ZM478.095 331.632V320.45H475.984C475.576 325.09 474.797 328.818 473.648 331.632H478.095ZM484.766 341.397H480.512V335H472.327V341.397H468.073V331.632H469.152C470.012 329.903 470.694 327.787 471.199 325.284C471.704 322.781 472.026 320.036 472.166 317.05H482.43V331.632H484.766V341.397ZM491.034 317.05V325.364C491.034 326.396 490.905 328.109 490.647 330.504L496.48 317.05H501.733V335H497.737V326.557C497.737 325.289 497.861 323.581 498.108 321.433L492.259 335H487.054V317.05H491.034ZM516.445 317.05V320.514H512.449V335H508.163V320.514H504.167V317.05H516.445ZM525.484 335.322C523.239 335.322 521.467 334.527 520.167 332.938C518.878 331.337 518.233 329.076 518.233 326.154C518.233 323.189 518.819 320.874 519.99 319.209C521.161 317.544 522.793 316.711 524.888 316.711C526.843 316.711 528.385 317.426 529.513 318.854C530.641 320.272 531.205 322.265 531.205 324.833V327.121H522.584C522.616 328.721 522.944 329.914 523.567 330.698C524.19 331.471 525.049 331.858 526.145 331.858C527.542 331.858 528.97 331.423 530.431 330.553V334.082C529.056 334.909 527.407 335.322 525.484 335.322ZM524.856 320.015C524.244 320.015 523.739 320.342 523.341 320.998C522.944 321.642 522.713 322.646 522.648 324.011H526.999C526.978 322.7 526.779 321.707 526.403 321.03C526.027 320.353 525.511 320.015 524.856 320.015ZM547.044 335H542.742V320.514H540.341C540.126 324.156 539.777 327.045 539.293 329.183C538.821 331.321 538.182 332.873 537.376 333.84C536.581 334.807 535.523 335.29 534.202 335.29C533.396 335.29 532.735 335.172 532.22 334.936V331.407C532.542 331.514 532.87 331.568 533.203 331.568C534.105 331.568 534.809 330.418 535.313 328.12C535.818 325.81 536.205 322.12 536.474 317.05H547.044V335ZM554.956 324.075H556.47C558.866 324.075 560.627 324.51 561.755 325.38C562.894 326.25 563.463 327.566 563.463 329.328C563.463 333.109 561.089 335 556.341 335H550.669V317.05H554.956V324.075ZM559.048 329.425C559.048 328.662 558.817 328.114 558.355 327.781C557.904 327.448 557.179 327.282 556.18 327.282H554.956V331.793H556.245C557.136 331.793 557.824 331.616 558.307 331.262C558.801 330.896 559.048 330.284 559.048 329.425ZM575.468 335V311.442H579.593V335H575.468ZM210.615 371.707C210.615 372.716 210.314 373.56 209.712 374.236C209.122 374.902 208.257 375.332 207.118 375.525V375.654C208.375 375.815 209.358 376.25 210.067 376.959C210.787 377.658 211.146 378.565 211.146 379.683C211.146 381.401 210.54 382.717 209.326 383.63C208.112 384.543 206.377 385 204.121 385H197.821V367.05H204.089C208.439 367.05 210.615 368.602 210.615 371.707ZM206.699 379.425C206.699 378.662 206.452 378.114 205.958 377.781C205.464 377.448 204.717 377.282 203.718 377.282H202.107V381.793H203.783C205.727 381.793 206.699 381.004 206.699 379.425ZM206.232 372.093C206.232 370.912 205.448 370.321 203.879 370.321H202.107V374.107H203.396C204.341 374.107 205.05 373.957 205.523 373.656C205.996 373.345 206.232 372.824 206.232 372.093ZM219.735 385.322C217.597 385.322 215.97 384.543 214.853 382.986C213.735 381.428 213.177 379.14 213.177 376.122C213.177 372.963 213.703 370.605 214.756 369.048C215.819 367.49 217.458 366.711 219.67 366.711C220.336 366.711 221.035 366.808 221.765 367.001C222.496 367.195 223.151 367.474 223.731 367.839L222.506 371.175C221.615 370.648 220.825 370.385 220.138 370.385C219.225 370.385 218.564 370.863 218.156 371.819C217.758 372.765 217.56 374.188 217.56 376.089C217.56 377.948 217.758 379.339 218.156 380.263C218.553 381.176 219.203 381.632 220.105 381.632C221.18 381.632 222.302 381.256 223.473 380.504V384.275C222.345 384.973 221.099 385.322 219.735 385.322ZM232.674 385.322C230.429 385.322 228.656 384.527 227.356 382.938C226.067 381.337 225.423 379.076 225.423 376.154C225.423 373.189 226.008 370.874 227.179 369.209C228.35 367.544 229.983 366.711 232.078 366.711C234.033 366.711 235.574 367.426 236.702 368.854C237.83 370.272 238.394 372.265 238.394 374.833V377.121H229.773C229.806 378.721 230.133 379.914 230.756 380.698C231.379 381.471 232.239 381.858 233.334 381.858C234.731 381.858 236.16 381.423 237.621 380.553V384.082C236.246 384.909 234.597 385.322 232.674 385.322ZM232.045 370.015C231.433 370.015 230.928 370.342 230.531 370.998C230.133 371.642 229.902 372.646 229.838 374.011H234.188C234.167 372.7 233.968 371.707 233.592 371.03C233.216 370.353 232.701 370.015 232.045 370.015ZM249.238 385.322C248.465 385.322 247.777 385.15 247.176 384.807C246.585 384.452 246.032 383.834 245.516 382.954H245.291C245.462 384.415 245.548 385.295 245.548 385.596V392.928H241.23V367.05H244.549L245.291 369.386H245.484C246.375 367.603 247.67 366.711 249.367 366.711C251 366.711 252.278 367.522 253.202 369.145C254.126 370.756 254.588 373.039 254.588 375.993C254.588 378.904 254.11 381.187 253.154 382.841C252.198 384.495 250.893 385.322 249.238 385.322ZM247.917 370.353C247.079 370.353 246.472 370.745 246.096 371.529C245.731 372.303 245.538 373.592 245.516 375.396V375.96C245.516 377.937 245.704 379.376 246.08 380.279C246.456 381.181 247.079 381.632 247.949 381.632C249.453 381.632 250.205 379.731 250.205 375.928C250.205 374.059 250.017 372.663 249.641 371.739C249.276 370.815 248.701 370.353 247.917 370.353ZM270.895 375.993C270.895 378.936 270.271 381.229 269.025 382.873C267.779 384.506 266.071 385.322 263.901 385.322C262.526 385.322 261.312 384.946 260.26 384.194C259.207 383.442 258.396 382.363 257.827 380.956C257.257 379.538 256.973 377.883 256.973 375.993C256.973 373.082 257.59 370.81 258.826 369.177C260.061 367.533 261.774 366.711 263.966 366.711C266.082 366.711 267.763 367.549 269.009 369.225C270.266 370.89 270.895 373.146 270.895 375.993ZM261.355 375.993C261.355 377.862 261.56 379.274 261.968 380.23C262.376 381.187 263.031 381.665 263.934 381.665C265.652 381.665 266.512 379.774 266.512 375.993C266.512 374.113 266.302 372.711 265.883 371.787C265.475 370.853 264.825 370.385 263.934 370.385C263.031 370.385 262.376 370.853 261.968 371.787C261.56 372.711 261.355 374.113 261.355 375.993ZM279.837 385.322C277.7 385.322 276.072 384.543 274.955 382.986C273.838 381.428 273.279 379.14 273.279 376.122C273.279 372.963 273.806 370.605 274.858 369.048C275.922 367.49 277.56 366.711 279.773 366.711C280.439 366.711 281.137 366.808 281.868 367.001C282.598 367.195 283.253 367.474 283.833 367.839L282.609 371.175C281.717 370.648 280.928 370.385 280.24 370.385C279.327 370.385 278.667 370.863 278.258 371.819C277.861 372.765 277.662 374.188 277.662 376.089C277.662 377.948 277.861 379.339 278.258 380.263C278.656 381.176 279.306 381.632 280.208 381.632C281.282 381.632 282.405 381.256 283.576 380.504V384.275C282.448 384.973 281.202 385.322 279.837 385.322ZM292.083 385.322C289.946 385.322 288.318 384.543 287.201 382.986C286.084 381.428 285.525 379.14 285.525 376.122C285.525 372.963 286.052 370.605 287.104 369.048C288.168 367.49 289.806 366.711 292.019 366.711C292.685 366.711 293.383 366.808 294.114 367.001C294.844 367.195 295.5 367.474 296.08 367.839L294.855 371.175C293.963 370.648 293.174 370.385 292.486 370.385C291.573 370.385 290.913 370.863 290.504 371.819C290.107 372.765 289.908 374.188 289.908 376.089C289.908 377.948 290.107 379.339 290.504 380.263C290.902 381.176 291.552 381.632 292.454 381.632C293.528 381.632 294.651 381.256 295.822 380.504V384.275C294.694 384.973 293.448 385.322 292.083 385.322ZM302.38 367.05V375.364C302.38 376.396 302.251 378.109 301.993 380.504L307.826 367.05H313.079V385H309.083V376.557C309.083 375.289 309.207 373.581 309.454 371.433L303.604 385H298.4V367.05H302.38ZM320.717 367.05V375.364C320.717 376.396 320.588 378.109 320.33 380.504L326.163 367.05H331.416V385H327.42V376.557C327.42 375.289 327.543 373.581 327.791 371.433L321.941 385H316.737V367.05H320.717ZM329.95 359.783C329.735 361.587 329.144 362.909 328.177 363.747C327.221 364.584 325.809 365.003 323.939 365.003C322.113 365.003 320.744 364.595 319.831 363.779C318.917 362.952 318.375 361.62 318.203 359.783H321.764C321.882 360.857 322.108 361.582 322.441 361.958C322.785 362.334 323.316 362.522 324.036 362.522C324.745 362.522 325.271 362.307 325.615 361.877C325.97 361.448 326.206 360.75 326.324 359.783H329.95ZM341.003 385.322C338.866 385.322 337.238 384.543 336.121 382.986C335.004 381.428 334.445 379.14 334.445 376.122C334.445 372.963 334.972 370.605 336.024 369.048C337.088 367.49 338.726 366.711 340.939 366.711C341.605 366.711 342.303 366.808 343.034 367.001C343.764 367.195 344.419 367.474 345 367.839L343.775 371.175C342.883 370.648 342.094 370.385 341.406 370.385C340.493 370.385 339.833 370.863 339.424 371.819C339.027 372.765 338.828 374.188 338.828 376.089C338.828 377.948 339.027 379.339 339.424 380.263C339.822 381.176 340.472 381.632 341.374 381.632C342.448 381.632 343.571 381.256 344.742 380.504V384.275C343.614 384.973 342.368 385.322 341.003 385.322ZM356.198 367.05H360.71L355.795 375.558L361.016 385H356.295L351.606 375.767V385H347.32V367.05H351.606V375.622L356.198 367.05ZM375.889 375.993C375.889 378.936 375.266 381.229 374.02 382.873C372.773 384.506 371.065 385.322 368.896 385.322C367.521 385.322 366.307 384.946 365.254 384.194C364.201 383.442 363.39 382.363 362.821 380.956C362.251 379.538 361.967 377.883 361.967 375.993C361.967 373.082 362.584 370.81 363.82 369.177C365.055 367.533 366.769 366.711 368.96 366.711C371.076 366.711 372.757 367.549 374.003 369.225C375.26 370.89 375.889 373.146 375.889 375.993ZM366.35 375.993C366.35 377.862 366.554 379.274 366.962 380.23C367.37 381.187 368.025 381.665 368.928 381.665C370.646 381.665 371.506 379.774 371.506 375.993C371.506 374.113 371.296 372.711 370.877 371.787C370.469 370.853 369.819 370.385 368.928 370.385C368.025 370.385 367.37 370.853 366.962 371.787C366.554 372.711 366.35 374.113 366.35 375.993ZM388.231 367.05V370.514H383.188V385H378.902V367.05H388.231ZM403.958 375.993C403.958 378.936 403.335 381.229 402.089 382.873C400.843 384.506 399.135 385.322 396.965 385.322C395.59 385.322 394.376 384.946 393.323 384.194C392.271 383.442 391.459 382.363 390.89 380.956C390.321 379.538 390.036 377.883 390.036 375.993C390.036 373.082 390.654 370.81 391.889 369.177C393.125 367.533 394.838 366.711 397.029 366.711C399.146 366.711 400.827 367.549 402.073 369.225C403.33 370.89 403.958 373.146 403.958 375.993ZM394.419 375.993C394.419 377.862 394.623 379.274 395.031 380.23C395.439 381.187 396.095 381.665 396.997 381.665C398.716 381.665 399.575 379.774 399.575 375.993C399.575 374.113 399.366 372.711 398.947 371.787C398.539 370.853 397.889 370.385 396.997 370.385C396.095 370.385 395.439 370.853 395.031 371.787C394.623 372.711 394.419 374.113 394.419 375.993ZM424.003 367.05H428.515L423.6 375.558L428.821 385H424.1L419.411 375.767V385H415.125V367.05H419.411V375.622L424.003 367.05ZM443.693 375.993C443.693 378.936 443.07 381.229 441.824 382.873C440.578 384.506 438.87 385.322 436.7 385.322C435.325 385.322 434.111 384.946 433.059 384.194C432.006 383.442 431.195 382.363 430.625 380.956C430.056 379.538 429.771 377.883 429.771 375.993C429.771 373.082 430.389 370.81 431.625 369.177C432.86 367.533 434.573 366.711 436.765 366.711C438.881 366.711 440.562 367.549 441.808 369.225C443.065 370.89 443.693 373.146 443.693 375.993ZM434.154 375.993C434.154 377.862 434.358 379.274 434.767 380.23C435.175 381.187 435.83 381.665 436.732 381.665C438.451 381.665 439.311 379.774 439.311 375.993C439.311 374.113 439.101 372.711 438.682 371.787C438.274 370.853 437.624 370.385 436.732 370.385C435.83 370.385 435.175 370.853 434.767 371.787C434.358 372.711 434.154 374.113 434.154 375.993ZM450.993 367.05V374.043H455.843V367.05H460.161V385H455.843V377.475H450.993V385H446.707V367.05H450.993ZM472.665 367.05H477.177L472.262 375.558L477.483 385H472.762L468.073 375.767V385H463.787V367.05H468.073V375.622L472.665 367.05ZM477.531 367.05H481.979L484.46 377.185C484.707 378.087 484.906 379.35 485.056 380.972H485.153C485.164 380.714 485.212 380.257 485.298 379.602C485.384 378.936 485.454 378.415 485.507 378.039C485.561 377.663 486.302 374 487.731 367.05H492.243L487.103 386.289C486.479 388.652 485.652 390.35 484.621 391.381C483.59 392.412 482.215 392.928 480.496 392.928C479.647 392.928 478.89 392.836 478.224 392.654V389.061C478.665 389.189 479.159 389.254 479.707 389.254C481.146 389.254 482.091 388.309 482.542 386.418L482.849 385.29L477.531 367.05ZM502.088 385.322C501.314 385.322 500.627 385.15 500.025 384.807C499.435 384.452 498.881 383.834 498.366 382.954H498.14C498.312 384.415 498.398 385.295 498.398 385.596V392.928H494.08V367.05H497.399L498.14 369.386H498.333C499.225 367.603 500.52 366.711 502.217 366.711C503.85 366.711 505.128 367.522 506.052 369.145C506.976 370.756 507.438 373.039 507.438 375.993C507.438 378.904 506.959 381.187 506.003 382.841C505.047 384.495 503.742 385.322 502.088 385.322ZM500.767 370.353C499.929 370.353 499.322 370.745 498.946 371.529C498.581 372.303 498.387 373.592 498.366 375.396V375.96C498.366 377.937 498.554 379.376 498.93 380.279C499.306 381.181 499.929 381.632 500.799 381.632C502.303 381.632 503.055 379.731 503.055 375.928C503.055 374.059 502.867 372.663 502.491 371.739C502.125 370.815 501.551 370.353 500.767 370.353ZM516.38 385.322C514.243 385.322 512.615 384.543 511.498 382.986C510.381 381.428 509.822 379.14 509.822 376.122C509.822 372.963 510.349 370.605 511.401 369.048C512.465 367.49 514.103 366.711 516.316 366.711C516.982 366.711 517.68 366.808 518.411 367.001C519.141 367.195 519.796 367.474 520.376 367.839L519.152 371.175C518.26 370.648 517.471 370.385 516.783 370.385C515.87 370.385 515.209 370.863 514.801 371.819C514.404 372.765 514.205 374.188 514.205 376.089C514.205 377.948 514.404 379.339 514.801 380.263C515.199 381.176 515.849 381.632 516.751 381.632C517.825 381.632 518.948 381.256 520.119 380.504V384.275C518.991 384.973 517.745 385.322 516.38 385.322ZM531.495 385L530.641 382.551H530.544C529.91 383.604 529.255 384.329 528.578 384.726C527.901 385.124 527.047 385.322 526.016 385.322C524.695 385.322 523.653 384.828 522.89 383.84C522.138 382.852 521.762 381.477 521.762 379.715C521.762 377.824 522.278 376.422 523.309 375.509C524.351 374.585 525.903 374.075 527.966 373.979L530.351 373.882V372.593C530.351 370.917 529.625 370.079 528.175 370.079C527.101 370.079 525.866 370.498 524.469 371.336L522.987 368.371C524.77 367.243 526.709 366.679 528.804 366.679C530.705 366.679 532.15 367.227 533.138 368.323C534.137 369.408 534.637 370.949 534.637 372.947V385H531.495ZM527.772 381.971C528.557 381.971 529.18 381.622 529.642 380.923C530.114 380.214 530.351 379.274 530.351 378.104V376.589L529.029 376.653C528.052 376.707 527.332 376.986 526.87 377.491C526.419 377.996 526.193 378.748 526.193 379.747C526.193 381.229 526.72 381.971 527.772 381.971ZM203.332 419.161C203.665 417.893 204.11 416.529 204.669 415.068C205.228 413.596 205.727 412.388 206.167 411.442H209.438C208.729 414.311 208.187 417.001 207.811 419.515H203.557L203.332 419.161ZM196.322 419.161C196.591 418.119 196.983 416.894 197.499 415.487C198.014 414.08 198.573 412.731 199.174 411.442H202.429C202.096 412.785 201.769 414.273 201.446 415.906C201.124 417.539 200.915 418.742 200.818 419.515H196.564L196.322 419.161ZM211.839 411.442H217.85C220.299 411.442 222.082 411.92 223.199 412.876C224.316 413.822 224.875 415.331 224.875 417.404C224.875 418.769 224.58 419.913 223.989 420.836C223.398 421.75 222.592 422.303 221.572 422.496V422.657C222.904 422.99 223.865 423.613 224.456 424.526C225.047 425.439 225.342 426.653 225.342 428.168C225.342 430.306 224.768 431.981 223.618 433.195C222.479 434.398 220.917 435 218.929 435H211.839V411.442ZM215.964 420.917H217.979C218.902 420.917 219.552 420.67 219.928 420.176C220.304 419.682 220.492 418.946 220.492 417.968C220.492 416.991 220.277 416.292 219.848 415.874C219.418 415.444 218.741 415.229 217.817 415.229H215.964V420.917ZM215.964 424.575V431.165H218.172C219.085 431.165 219.762 430.886 220.202 430.327C220.653 429.769 220.879 428.904 220.879 427.733C220.879 425.627 219.955 424.575 218.107 424.575H215.964ZM229.354 435V411.442H233.479V435H229.354ZM246.87 435L242.39 414.939H242.213C242.417 416.486 242.519 417.904 242.519 419.193V435H238.458V411.442H245.194L249.222 429.957H249.351L253.347 411.442H260.179V435H256.022V419.032C256.022 417.71 256.097 416.357 256.248 414.971H256.119L251.655 435H246.87ZM263.418 428.039V424.269H271.523V428.039H263.418ZM285.574 417.05V420.514H281.578V435H277.292V420.514H273.295V417.05H285.574ZM294.613 435.322C292.368 435.322 290.596 434.527 289.296 432.938C288.007 431.337 287.362 429.076 287.362 426.154C287.362 423.189 287.948 420.874 289.119 419.209C290.29 417.544 291.922 416.711 294.017 416.711C295.972 416.711 297.514 417.426 298.642 418.854C299.77 420.272 300.333 422.265 300.333 424.833V427.121H291.713C291.745 428.721 292.073 429.914 292.696 430.698C293.319 431.471 294.178 431.858 295.274 431.858C296.67 431.858 298.099 431.423 299.56 430.553V434.082C298.185 434.909 296.536 435.322 294.613 435.322ZM293.985 420.015C293.373 420.015 292.868 420.342 292.47 420.998C292.073 421.642 291.842 422.646 291.777 424.011H296.128C296.106 422.7 295.908 421.707 295.532 421.03C295.156 420.353 294.64 420.015 293.985 420.015ZM306.263 425.832L301.784 417.05H306.231L308.616 422.528L310.823 417.05H315.238L310.727 425.832L315.432 435H310.952L308.406 429.264L306.038 435H301.574L306.263 425.832ZM321.796 417.05V424.043H326.646V417.05H330.965V435H326.646V427.475H321.796V435H317.51V417.05H321.796ZM347.884 425.993C347.884 428.936 347.261 431.229 346.015 432.873C344.769 434.506 343.061 435.322 340.891 435.322C339.516 435.322 338.302 434.946 337.249 434.194C336.196 433.442 335.385 432.363 334.816 430.956C334.247 429.538 333.962 427.883 333.962 425.993C333.962 423.082 334.58 420.81 335.815 419.177C337.05 417.533 338.764 416.711 340.955 416.711C343.071 416.711 344.752 417.549 345.999 419.225C347.255 420.89 347.884 423.146 347.884 425.993ZM338.345 425.993C338.345 427.862 338.549 429.274 338.957 430.23C339.365 431.187 340.021 431.665 340.923 431.665C342.642 431.665 343.501 429.774 343.501 425.993C343.501 424.113 343.292 422.711 342.873 421.787C342.464 420.853 341.814 420.385 340.923 420.385C340.021 420.385 339.365 420.853 338.957 421.787C338.549 422.711 338.345 424.113 338.345 425.993ZM363.9 435H359.598V420.514H357.197C356.982 424.156 356.633 427.045 356.15 429.183C355.677 431.321 355.038 432.873 354.232 433.84C353.438 434.807 352.379 435.29 351.058 435.29C350.252 435.29 349.592 435.172 349.076 434.936V431.407C349.398 431.514 349.726 431.568 350.059 431.568C350.961 431.568 351.665 430.418 352.17 428.12C352.675 425.81 353.062 422.12 353.33 417.05H363.9V435ZM380.819 425.993C380.819 428.936 380.196 431.229 378.95 432.873C377.704 434.506 375.996 435.322 373.826 435.322C372.451 435.322 371.237 434.946 370.185 434.194C369.132 433.442 368.321 432.363 367.751 430.956C367.182 429.538 366.897 427.883 366.897 425.993C366.897 423.082 367.515 420.81 368.75 419.177C369.986 417.533 371.699 416.711 373.891 416.711C376.007 416.711 377.688 417.549 378.934 419.225C380.191 420.89 380.819 423.146 380.819 425.993ZM371.28 425.993C371.28 427.862 371.484 429.274 371.893 430.23C372.301 431.187 372.956 431.665 373.858 431.665C375.577 431.665 376.437 429.774 376.437 425.993C376.437 424.113 376.227 422.711 375.808 421.787C375.4 420.853 374.75 420.385 373.858 420.385C372.956 420.385 372.301 420.853 371.893 421.787C371.484 422.711 371.28 424.113 371.28 425.993ZM393.162 417.05V420.514H388.119V435H383.833V417.05H393.162ZM399.575 417.05V425.364C399.575 426.396 399.446 428.109 399.188 430.504L405.021 417.05H410.274V435H406.278V426.557C406.278 425.289 406.402 423.581 406.649 421.433L400.8 435H395.595V417.05H399.575ZM417.912 417.05V425.364C417.912 426.396 417.783 428.109 417.525 430.504L423.358 417.05H428.611V435H424.615V426.557C424.615 425.289 424.739 423.581 424.986 421.433L419.137 435H413.932V417.05H417.912ZM452.427 435H439.794V431.729L443.983 425.799C445.133 424.167 445.922 422.958 446.352 422.174C446.782 421.379 447.099 420.622 447.303 419.902C447.507 419.171 447.609 418.419 447.609 417.646C447.609 416.744 447.405 416.067 446.997 415.616C446.599 415.165 446.078 414.939 445.434 414.939C444.864 414.939 444.333 415.089 443.838 415.39C443.344 415.691 442.743 416.233 442.034 417.018L439.584 414.439C440.712 413.161 441.76 412.286 442.727 411.813C443.693 411.34 444.741 411.104 445.869 411.104C447.77 411.104 449.252 411.663 450.316 412.78C451.39 413.897 451.927 415.449 451.927 417.437C451.927 418.339 451.831 419.193 451.637 419.999C451.444 420.804 451.148 421.615 450.751 422.432C450.364 423.237 449.875 424.081 449.285 424.961C448.694 425.832 447.168 427.835 444.708 430.972V431.101H452.427V435ZM467.96 423.221C467.96 427.486 467.444 430.569 466.413 432.47C465.393 434.372 463.744 435.322 461.466 435.322C459.189 435.322 457.551 434.366 456.552 432.454C455.563 430.542 455.069 427.464 455.069 423.221C455.069 418.967 455.59 415.879 456.632 413.956C457.674 412.033 459.307 411.072 461.531 411.072C463.797 411.072 465.436 412.012 466.445 413.892C467.455 415.771 467.96 418.881 467.96 423.221ZM459.452 423.221C459.452 426.519 459.592 428.743 459.871 429.892C460.161 431.031 460.704 431.6 461.499 431.6C462.036 431.6 462.449 431.353 462.739 430.859C463.04 430.365 463.255 429.548 463.384 428.41C463.513 427.26 463.577 425.531 463.577 423.221C463.577 419.977 463.427 417.764 463.126 416.583C462.825 415.401 462.283 414.81 461.499 414.81C460.704 414.81 460.161 415.401 459.871 416.583C459.592 417.753 459.452 419.966 459.452 423.221ZM480.899 435H476.581V421.175C476.581 419.671 476.656 417.941 476.806 415.986C476.731 416.094 476.452 416.421 475.968 416.969C475.496 417.517 474.566 418.5 473.181 419.918L470.731 417.243L477 411.442H480.899V435ZM485.62 424.994C485.62 420.192 486.367 416.685 487.86 414.472C489.353 412.248 491.63 411.136 494.692 411.136C495.175 411.136 495.659 411.168 496.142 411.233C496.625 411.287 496.991 411.346 497.238 411.41V415.036C496.497 414.864 495.766 414.778 495.046 414.778C493.822 414.778 492.817 415.046 492.033 415.583C491.249 416.121 490.653 416.926 490.245 418C489.836 419.064 489.589 420.562 489.503 422.496H489.681C490.057 421.604 490.572 420.933 491.228 420.482C491.883 420.02 492.64 419.789 493.5 419.789C495.079 419.789 496.309 420.434 497.189 421.723C498.07 423.001 498.511 424.833 498.511 427.217C498.511 429.709 497.931 431.686 496.771 433.147C495.61 434.597 494.037 435.322 492.049 435.322C489.944 435.322 488.343 434.452 487.248 432.712C486.163 430.972 485.62 428.399 485.62 424.994ZM492.082 431.632C492.726 431.632 493.242 431.278 493.628 430.569C494.026 429.86 494.225 428.753 494.225 427.25C494.225 426.036 494.047 425.08 493.693 424.381C493.349 423.672 492.823 423.318 492.114 423.318C491.48 423.318 490.964 423.646 490.567 424.301C490.169 424.956 489.971 425.783 489.971 426.782C489.971 428.351 490.153 429.554 490.519 430.392C490.895 431.219 491.416 431.632 492.082 431.632ZM506.132 411.797C505.595 413.913 504.65 416.486 503.296 419.515H500.025C500.713 416.765 501.255 414.074 501.653 411.442H505.907L506.132 411.797ZM513.142 411.797C512.615 413.859 511.665 416.432 510.29 419.515H507.035C507.701 416.873 508.238 414.182 508.646 411.442H512.9L513.142 411.797ZM536.232 421.707C536.232 422.716 535.931 423.56 535.33 424.236C534.739 424.902 533.874 425.332 532.735 425.525V425.654C533.992 425.815 534.975 426.25 535.684 426.959C536.404 427.658 536.764 428.565 536.764 429.683C536.764 431.401 536.157 432.717 534.943 433.63C533.729 434.543 531.994 435 529.738 435H523.438V417.05H529.706C534.057 417.05 536.232 418.602 536.232 421.707ZM532.316 429.425C532.316 428.662 532.069 428.114 531.575 427.781C531.081 427.448 530.334 427.282 529.335 427.282H527.724V431.793H529.4C531.344 431.793 532.316 431.004 532.316 429.425ZM531.849 422.093C531.849 420.912 531.065 420.321 529.497 420.321H527.724V424.107H529.013C529.958 424.107 530.667 423.957 531.14 423.656C531.613 423.345 531.849 422.824 531.849 422.093ZM202.107 467.05V474.043H206.957V467.05H211.275V485H206.957V477.475H202.107V485H197.821V467.05H202.107ZM228.194 475.993C228.194 478.936 227.571 481.229 226.325 482.873C225.079 484.506 223.371 485.322 221.201 485.322C219.826 485.322 218.612 484.946 217.56 484.194C216.507 483.442 215.696 482.363 215.126 480.956C214.557 479.538 214.272 477.883 214.272 475.993C214.272 473.082 214.89 470.81 216.125 469.177C217.361 467.533 219.074 466.711 221.266 466.711C223.382 466.711 225.063 467.549 226.309 469.225C227.566 470.89 228.194 473.146 228.194 475.993ZM218.655 475.993C218.655 477.862 218.859 479.274 219.268 480.23C219.676 481.187 220.331 481.665 221.233 481.665C222.952 481.665 223.812 479.774 223.812 475.993C223.812 474.113 223.602 472.711 223.183 471.787C222.775 470.853 222.125 470.385 221.233 470.385C220.331 470.385 219.676 470.853 219.268 471.787C218.859 472.711 218.655 474.113 218.655 475.993ZM249.754 485H245.919V470.417C245.607 472.158 245.167 474.113 244.598 476.283L242.261 485H238.62L236.283 476.25C235.778 474.371 235.338 472.426 234.962 470.417V485H231.208V467.05H237.379L239.554 475.429C240.027 477.298 240.312 479.038 240.408 480.649C240.451 480.102 240.564 479.333 240.747 478.345C240.94 477.357 241.155 476.385 241.391 475.429L243.615 467.05H249.754V485ZM257.327 467.05V475.364C257.327 476.396 257.198 478.109 256.94 480.504L262.773 467.05H268.026V485H264.03V476.557C264.03 475.289 264.154 473.581 264.401 471.433L258.552 485H253.347V467.05H257.327ZM275.97 467.05V474.043H280.82V467.05H285.139V485H280.82V477.475H275.97V485H271.684V467.05H275.97ZM297.562 485L296.708 482.551H296.611C295.978 483.604 295.322 484.329 294.646 484.726C293.969 485.124 293.115 485.322 292.083 485.322C290.762 485.322 289.72 484.828 288.958 483.84C288.206 482.852 287.83 481.477 287.83 479.715C287.83 477.824 288.345 476.422 289.376 475.509C290.418 474.585 291.971 474.075 294.033 473.979L296.418 473.882V472.593C296.418 470.917 295.693 470.079 294.243 470.079C293.168 470.079 291.933 470.498 290.537 471.336L289.054 468.371C290.837 467.243 292.776 466.679 294.871 466.679C296.772 466.679 298.217 467.227 299.206 468.323C300.205 469.408 300.704 470.949 300.704 472.947V485H297.562ZM293.84 481.971C294.624 481.971 295.247 481.622 295.709 480.923C296.182 480.214 296.418 479.274 296.418 478.104V476.589L295.097 476.653C294.119 476.707 293.399 476.986 292.938 477.491C292.486 477.996 292.261 478.748 292.261 479.747C292.261 481.229 292.787 481.971 293.84 481.971ZM317.591 481.632H320.008V491.397H315.738V485H304.168V467.05H308.455V481.536H313.272V467.05H317.591V481.632ZM326.195 467.05V475.364C326.195 476.396 326.066 478.109 325.809 480.504L331.642 467.05H336.895V485H332.898V476.557C332.898 475.289 333.022 473.581 333.269 471.433L327.42 485H322.215V467.05H326.195ZM344.532 467.05V475.364C344.532 476.396 344.403 478.109 344.146 480.504L349.979 467.05H355.231V485H351.235V476.557C351.235 475.289 351.359 473.581 351.606 471.433L345.757 485H340.552V467.05H344.532ZM372.553 469.161C372.886 467.893 373.332 466.529 373.891 465.068C374.449 463.596 374.949 462.388 375.389 461.442H378.66C377.951 464.311 377.409 467.001 377.033 469.515H372.779L372.553 469.161ZM365.544 469.161C365.812 468.119 366.205 466.894 366.72 465.487C367.236 464.08 367.794 462.731 368.396 461.442H371.651C371.318 462.785 370.99 464.273 370.668 465.906C370.346 467.539 370.136 468.742 370.04 469.515H365.786L365.544 469.161ZM388.876 464.939C387.619 464.939 386.625 465.675 385.895 467.146C385.175 468.618 384.815 470.665 384.815 473.286C384.815 478.743 386.239 481.471 389.085 481.471C390.332 481.471 391.637 481.074 393.001 480.279V484.178C391.852 484.941 390.38 485.322 388.586 485.322C385.933 485.322 383.892 484.27 382.463 482.164C381.045 480.048 380.336 477.078 380.336 473.253C380.336 469.429 381.066 466.448 382.527 464.311C383.999 462.173 386.04 461.104 388.65 461.104C389.51 461.104 390.332 461.222 391.116 461.458C391.911 461.695 392.759 462.108 393.662 462.699L392.211 466.26C391.728 465.927 391.212 465.626 390.665 465.358C390.117 465.079 389.521 464.939 388.876 464.939ZM409.533 467.05V485H405.215V470.514H400.365V485H396.079V467.05H409.533ZM426.484 475.993C426.484 478.936 425.861 481.229 424.615 482.873C423.369 484.506 421.661 485.322 419.491 485.322C418.116 485.322 416.902 484.946 415.85 484.194C414.797 483.442 413.986 482.363 413.417 480.956C412.847 479.538 412.562 477.883 412.562 475.993C412.562 473.082 413.18 470.81 414.416 469.177C415.651 467.533 417.364 466.711 419.556 466.711C421.672 466.711 423.353 467.549 424.599 469.225C425.856 470.89 426.484 473.146 426.484 475.993ZM416.945 475.993C416.945 477.862 417.149 479.274 417.558 480.23C417.966 481.187 418.621 481.665 419.523 481.665C421.242 481.665 422.102 479.774 422.102 475.993C422.102 474.113 421.892 472.711 421.473 471.787C421.065 470.853 420.415 470.385 419.523 470.385C418.621 470.385 417.966 470.853 417.558 471.787C417.149 472.711 416.945 474.113 416.945 475.993ZM437.506 485.322C436.732 485.322 436.045 485.15 435.443 484.807C434.853 484.452 434.299 483.834 433.784 482.954H433.558C433.73 484.415 433.816 485.295 433.816 485.596V492.928H429.498V467.05H432.817L433.558 469.386H433.751C434.643 467.603 435.938 466.711 437.635 466.711C439.268 466.711 440.546 467.522 441.47 469.145C442.394 470.756 442.855 473.039 442.855 475.993C442.855 478.904 442.377 481.187 441.421 482.841C440.465 484.495 439.16 485.322 437.506 485.322ZM436.185 470.353C435.347 470.353 434.74 470.745 434.364 471.529C433.999 472.303 433.805 473.592 433.784 475.396V475.96C433.784 477.937 433.972 479.376 434.348 480.279C434.724 481.181 435.347 481.632 436.217 481.632C437.721 481.632 438.473 479.731 438.473 475.928C438.473 474.059 438.285 472.663 437.909 471.739C437.543 470.815 436.969 470.353 436.185 470.353ZM456.922 467.05V470.514H452.926V485H448.64V470.514H444.644V467.05H456.922ZM463.319 467.05V475.364C463.319 476.396 463.19 478.109 462.933 480.504L468.766 467.05H474.019V485H470.022V476.557C470.022 475.289 470.146 473.581 470.393 471.433L464.544 485H459.339V467.05H463.319ZM490.47 471.707C490.47 472.716 490.169 473.56 489.568 474.236C488.977 474.902 488.112 475.332 486.974 475.525V475.654C488.23 475.815 489.213 476.25 489.922 476.959C490.642 477.658 491.002 478.565 491.002 479.683C491.002 481.401 490.395 482.717 489.181 483.63C487.967 484.543 486.232 485 483.977 485H477.676V467.05H483.944C488.295 467.05 490.47 468.602 490.47 471.707ZM486.555 479.425C486.555 478.662 486.308 478.114 485.813 477.781C485.319 477.448 484.573 477.282 483.574 477.282H481.962V481.793H483.638C485.583 481.793 486.555 481.004 486.555 479.425ZM486.087 472.093C486.087 470.912 485.303 470.321 483.735 470.321H481.962V474.107H483.251C484.197 474.107 484.906 473.957 485.378 473.656C485.851 473.345 486.087 472.824 486.087 472.093ZM497.947 467.05V474.043H502.797V467.05H507.115V485H502.797V477.475H497.947V485H493.661V467.05H497.947ZM515.027 474.075H516.316C518.69 474.075 520.441 474.51 521.569 475.38C522.708 476.25 523.277 477.566 523.277 479.328C523.277 483.109 520.914 485 516.187 485H510.741V467.05H515.027V474.075ZM518.878 479.425C518.878 478.662 518.642 478.114 518.169 477.781C517.707 477.448 516.977 477.282 515.978 477.282H515.027V481.793H516.042C516.955 481.793 517.653 481.616 518.137 481.262C518.631 480.896 518.878 480.284 518.878 479.425ZM530.109 485H525.791V467.05H530.109V485ZM537.698 467.05V475.364C537.698 476.396 537.569 478.109 537.312 480.504L543.145 467.05H548.397V485H544.401V476.557C544.401 475.289 544.525 473.581 544.772 471.433L538.923 485H533.718V467.05H537.698ZM546.931 459.783C546.716 461.587 546.125 462.909 545.159 463.747C544.203 464.584 542.79 465.003 540.921 465.003C539.095 465.003 537.725 464.595 536.812 463.779C535.899 462.952 535.356 461.62 535.185 459.783H538.746C538.864 460.857 539.089 461.582 539.422 461.958C539.766 462.334 540.298 462.522 541.018 462.522C541.727 462.522 542.253 462.307 542.597 461.877C542.951 461.448 543.188 460.75 543.306 459.783H546.931ZM573.502 475.993C573.502 478.936 572.879 481.229 571.633 482.873C570.387 484.506 568.679 485.322 566.509 485.322C565.134 485.322 563.92 484.946 562.867 484.194C561.814 483.442 561.003 482.363 560.434 480.956C559.865 479.538 559.58 477.883 559.58 475.993C559.58 473.082 560.198 470.81 561.433 469.177C562.668 467.533 564.382 466.711 566.573 466.711C568.689 466.711 570.371 467.549 571.617 469.225C572.874 470.89 573.502 473.146 573.502 475.993ZM563.963 475.993C563.963 477.862 564.167 479.274 564.575 480.23C564.983 481.187 565.639 481.665 566.541 481.665C568.26 481.665 569.119 479.774 569.119 475.993C569.119 474.113 568.91 472.711 568.491 471.787C568.083 470.853 567.433 470.385 566.541 470.385C565.639 470.385 564.983 470.853 564.575 471.787C564.167 472.711 563.963 474.113 563.963 475.993ZM575.887 474.607C575.887 470.525 576.467 467.41 577.627 465.261C578.798 463.113 580.705 461.652 583.347 460.878C584.722 460.492 586.709 460.116 589.309 459.75L589.809 463.521L586.957 463.972C585.141 464.273 583.782 464.665 582.88 465.148C581.988 465.621 581.317 466.33 580.866 467.275C580.425 468.21 580.162 469.456 580.076 471.014H580.205C580.71 470.111 581.322 469.429 582.042 468.967C582.762 468.505 583.546 468.274 584.395 468.274C586.113 468.274 587.445 468.967 588.391 470.353C589.336 471.739 589.809 473.672 589.809 476.154C589.809 479.033 589.196 481.283 587.972 482.905C586.747 484.517 585.039 485.322 582.848 485.322C580.613 485.322 578.895 484.393 577.691 482.535C576.488 480.676 575.887 478.034 575.887 474.607ZM583.009 481.665C584.62 481.665 585.426 479.973 585.426 476.589C585.426 473.312 584.695 471.674 583.234 471.674C582.601 471.674 582.01 471.932 581.462 472.448C580.914 472.953 580.517 473.597 580.27 474.381C580.27 479.237 581.183 481.665 583.009 481.665ZM599.75 474.075H601.233C603.628 474.075 605.39 474.51 606.518 475.38C607.657 476.25 608.226 477.566 608.226 479.328C608.226 483.109 605.852 485 601.104 485H595.432V470.514H591.307V467.05H599.75V474.075ZM603.843 479.425C603.843 478.662 603.607 478.114 603.134 477.781C602.672 477.448 601.942 477.282 600.943 477.282H599.75V481.793H601.007C601.92 481.793 602.619 481.616 603.102 481.262C603.596 480.896 603.843 480.284 603.843 479.425ZM617.652 485.322C615.407 485.322 613.635 484.527 612.335 482.938C611.046 481.337 610.401 479.076 610.401 476.154C610.401 473.189 610.987 470.874 612.158 469.209C613.329 467.544 614.961 466.711 617.056 466.711C619.011 466.711 620.553 467.426 621.681 468.854C622.809 470.272 623.373 472.265 623.373 474.833V477.121H614.752C614.784 478.721 615.112 479.914 615.735 480.698C616.358 481.471 617.217 481.858 618.313 481.858C619.709 481.858 621.138 481.423 622.599 480.553V484.082C621.224 484.909 619.575 485.322 617.652 485.322ZM617.024 470.015C616.412 470.015 615.907 470.342 615.509 470.998C615.112 471.642 614.881 472.646 614.816 474.011H619.167C619.146 472.7 618.947 471.707 618.571 471.03C618.195 470.353 617.679 470.015 617.024 470.015ZM635.087 467.05H639.599L634.684 475.558L639.905 485H635.184L630.495 475.767V485H626.208V467.05H630.495V475.622L635.087 467.05ZM652.828 467.05V470.514H648.832V485H644.545V470.514H640.549V467.05H652.828ZM660.82 461.797C660.283 463.913 659.337 466.486 657.984 469.515H654.713C655.4 466.765 655.943 464.074 656.34 461.442H660.594L660.82 461.797ZM667.829 461.797C667.303 463.859 666.352 466.432 664.977 469.515H661.722C662.388 466.873 662.925 464.182 663.333 461.442H667.587L667.829 461.797ZM669.94 482.792C669.94 481.955 670.16 481.305 670.601 480.843C671.052 480.381 671.718 480.15 672.599 480.15C673.479 480.15 674.146 480.381 674.597 480.843C675.048 481.294 675.273 481.944 675.273 482.792C675.273 483.63 675.037 484.28 674.564 484.742C674.103 485.204 673.447 485.435 672.599 485.435C671.729 485.435 671.068 485.204 670.617 484.742C670.166 484.27 669.94 483.62 669.94 482.792Z" fill="black"/>
<defs>
<filter id="filter0_d" x="0" y="0" width="816" height="816" filterUnits="userSpaceOnUse" color-interpolation-filters="sRGB">
<feFlood flood-opacity="0" result="BackgroundImageFix"/>
<feColorMatrix in="SourceAlpha" type="matrix" values="0 0 0 0 0 0 0 0 0 0 0 0 0 0 0 0 0 0 127 0"/>
<feOffset dy="4"/>
<feGaussianBlur stdDeviation="50"/>
<feColorMatrix type="matrix" values="0 0 0 0 0 0 0 0 0 0 0 0 0 0 0 0 0 0 0.25 0"/>
<feBlend mode="normal" in2="BackgroundImageFix" result="effect1_dropShadow"/>
<feBlend mode="normal" in="SourceGraphic" in2="effect1_dropShadow" result="shape"/>
</filter>
</defs>
</svg>
