<?xml version="1.0" encoding="UTF-8" standalone="no"?>
<!DOCTYPE svg PUBLIC "-//W3C//DTD SVG 1.1//EN" "http://www.w3.org/Graphics/SVG/1.1/DTD/svg11.dtd">
<svg xmlns="http://www.w3.org/2000/svg" xmlns:xlink="http://www.w3.org/1999/xlink" version="1.1" width="842pt" height="595.22pt" viewBox="0 0 842 595.22">
<g enable-background="new">
<path transform="matrix(0,1,1,0,97.551,349.98)" d="M 0 0 L 0 -20.28 L -120.24 -20.28 L -120.24 73.8 L -120.18 76.8 C -118.978 95.677 -104.262 110.727 -85.38 112.26 L -82.38 112.38 L -79.38 112.26 C -60.498 110.727 -45.782 95.677 -44.58 76.8 L -44.52 73.8 L -44.52 0 L 0 0 M -101.28 75.96 L -101.28 0 L -63.84 0 L -63.84 76.44 C -64.832 100.368 -98.194 101.802 -101.22 78.06 L -101.28 75.96 " fill-rule="evenodd"/>
<path transform="matrix(0,1,1,0,325.251,229.74)" d="M 0 0 L .06 3 C 4.137 46.805 63.873 51.532 74.82 8.94 L 75.36 6 L 120.24 39.48 L 120.24 19.32 L 75.72 -13.92 L 75.72 -73.8 L 120.24 -73.8 L 120.24 -94.14 L 0 -94.14 L 0 0 M 18.96 -73.8 L 56.4 -73.8 L 56.4 2.64 C 55.146 27.885 19.544 27.343 18.96 2.16 L 18.96 -73.8 " fill-rule="evenodd"/>
<path transform="matrix(0,1,1,0,0,0)" d="M 229.74 397.371 L 349.98 397.371 L 349.98 417.651 L 229.74 417.651 Z "/>
<path transform="matrix(0,1,1,0,455.091,229.74)" d="M 0 0 L 0 82.14 L .18 85.98 C 2.896 115.057 25.362 137.727 54.42 140.64 L 58.2 140.88 L 62.04 140.88 C 92.465 139.849 117.411 116.359 120 85.98 L 120.24 82.14 L 120.24 0 L 0 0 M 18.96 80.76 L 18.96 20.34 L 99.6 20.34 L 99.6 80.76 L 99.48 83.88 C 97.959 103.164 83.108 118.591 63.9 120.84 L 60.84 121.08 L 57.72 121.08 C 38.518 120.353 22.264 105.973 19.44 86.94 L 19.08 83.88 L 18.96 80.76 " fill-rule="evenodd"/>
<path transform="matrix(0,1,1,0,628.671,229.74)" d="M 0 0 L 0 118.68 L 18.96 118.68 L 18.96 20.34 L 47.22 20.34 L 47.22 87.72 L 67.5 87.72 L 67.5 20.34 L 99.6 20.34 L 99.6 118.68 L 120.24 118.68 L 120.24 0 L 0 0 " fill-rule="evenodd"/>
<text xml:space="preserve" transform="matrix(1 0 0 1 0 0)" font-size="32.1" font-family="ArialMT"><tspan y="414.9" x="74.0905 92.45491 109.18543 126.97525 144.07172 160.73804 178.52787 194.52008 209.05496 226.84479">&#x0422;&#x0432;&#x043e;&#x0440;&#x0447;&#x0435;&#x0441;&#x043a;&#x043e;&#x0435;</tspan></text>
<text xml:space="preserve" transform="matrix(1 0 0 1 0 0)" font-size="32.1" font-family="ArialMT"><tspan y="414.9" x="244.61212"> </tspan></text>
<text xml:space="preserve" transform="matrix(1 0 0 1 0 0)" font-size="32.1" font-family="ArialMT"><tspan y="414.9" x="253.61296 276.67683 294.50837 312.3399 330.26777 345.0723 361.74504 378.8415 397.66493 413.69886 428.3846 445.11515 462.86967 480.5728 498.27598 516.10757">&#x041f;&#x0440;&#x043e;&#x0438;&#x0437;&#x0432;&#x043e;&#x0434;&#x0441;&#x0442;&#x0432;&#x0435;&#x043d;&#x043d;&#x043e;&#x0435;</tspan></text>
<text xml:space="preserve" transform="matrix(1 0 0 1 0 0)" font-size="32.1" font-family="ArialMT"><tspan y="414.9" x="533.9326"> </tspan></text>
<text xml:space="preserve" transform="matrix(1 0 0 1 0 0)" font-size="32.1" font-family="ArialMT"><tspan y="414.9" x="542.87246 567.904 585.19308 605.31338 622.40988 641.18197 659.18368 676.96066 694.866 712.643 730.6447">&#x041e;&#x0431;&#x044a;&#x0435;&#x0434;&#x0438;&#x043d;&#x0435;&#x043d;&#x0438;&#x0435;</tspan></text>
</g>
</svg>
