<svg width="696" height="664" viewBox="0 0 696 664" fill="none" xmlns="http://www.w3.org/2000/svg">
<path d="M534.5 340C534.5 446.311 448.095 532.5 341.5 532.5C234.905 532.5 148.5 446.311 148.5 340C148.5 233.689 234.905 147.5 341.5 147.5C448.095 147.5 534.5 233.689 534.5 340Z" stroke="white" stroke-width="3"/>
<rect x="406.5" y="2.5" width="287" height="287" rx="37.5" fill="#272727" stroke="white" stroke-width="5"/>
<rect x="335" y="372" width="296" height="292" rx="40" fill="#C4C4C4"/>
<rect y="48" width="294" height="292" rx="40" fill="white"/>
<path d="M38.2876 114.68H34.3403V129H28.5571V95.5859H34.3403V109.631H37.5303L47.3525 95.5859H54.4668L42.9922 111.582L55.4766 129H48.5L38.2876 114.68ZM56.4634 116.355C56.4634 113.922 56.9453 111.735 57.9092 109.792C58.873 107.833 60.2271 106.334 61.9712 105.293C63.7153 104.238 65.7196 103.71 67.9839 103.71C71.3345 103.71 74.0501 104.789 76.1309 106.946C78.2269 109.103 79.359 111.964 79.5273 115.529L79.5503 116.837C79.5503 119.285 79.076 121.473 78.1274 123.4C77.1942 125.328 75.8478 126.82 74.0884 127.875C72.3442 128.931 70.3247 129.459 68.0298 129.459C64.5262 129.459 61.7188 128.296 59.6074 125.971C57.5114 123.63 56.4634 120.516 56.4634 116.63V116.355ZM62.04 116.837C62.04 119.392 62.5679 121.396 63.6235 122.85C64.6792 124.288 66.1479 125.007 68.0298 125.007C69.9116 125.007 71.3727 124.272 72.4131 122.804C73.4688 121.335 73.9966 119.185 73.9966 116.355C73.9966 113.846 73.4535 111.857 72.3672 110.388C71.2962 108.919 69.8351 108.185 67.9839 108.185C66.1632 108.185 64.7174 108.912 63.6465 110.365C62.5755 111.803 62.04 113.961 62.04 116.837ZM99.0112 122.138L106.355 104.169H113.332V129H107.755V112.568L100.916 129H97.1294L90.2676 112.477V129H84.6909V104.169H91.7134L99.0112 122.138ZM134.445 129C134.2 128.526 133.986 127.753 133.802 126.682C132.028 128.533 129.855 129.459 127.285 129.459C124.791 129.459 122.756 128.748 121.18 127.325C119.604 125.902 118.816 124.142 118.816 122.046C118.816 119.4 119.796 117.372 121.754 115.965C123.728 114.542 126.543 113.831 130.199 113.831H133.619V112.201C133.619 110.916 133.259 109.891 132.54 109.126C131.821 108.346 130.727 107.956 129.258 107.956C127.988 107.956 126.948 108.277 126.137 108.919C125.326 109.547 124.921 110.35 124.921 111.329H119.344C119.344 109.967 119.796 108.698 120.698 107.52C121.601 106.326 122.825 105.393 124.37 104.72C125.931 104.047 127.667 103.71 129.58 103.71C132.486 103.71 134.804 104.444 136.533 105.913C138.262 107.367 139.149 109.417 139.195 112.063V123.263C139.195 125.496 139.509 127.279 140.136 128.61V129H134.445ZM128.317 124.984C129.419 124.984 130.452 124.716 131.416 124.181C132.395 123.645 133.129 122.926 133.619 122.023V117.342H130.612C128.547 117.342 126.994 117.701 125.954 118.42C124.913 119.139 124.393 120.157 124.393 121.473C124.393 122.544 124.745 123.4 125.449 124.043C126.168 124.67 127.124 124.984 128.317 124.984ZM166.069 129H160.492V118.971H150.831V129H145.254V104.169H150.831V114.519H160.492V104.169H166.069V129ZM172.127 124.548C173.673 122.819 174.705 121.182 175.226 119.637C175.761 118.076 176.082 116.087 176.189 113.67L176.511 104.169H193.746V124.548H197.188V136.39H191.634V129H175.708V136.39H170.062L170.085 124.548H172.127ZM178.668 124.548H188.192V108.965H181.927L181.766 113.716C181.552 118.275 180.519 121.886 178.668 124.548ZM221.79 129H216.213V118.971H206.551V129H200.975V104.169H206.551V114.519H216.213V104.169H221.79V129ZM242.582 129C242.337 128.526 242.123 127.753 241.939 126.682C240.164 128.533 237.992 129.459 235.421 129.459C232.928 129.459 230.893 128.748 229.317 127.325C227.741 125.902 226.953 124.142 226.953 122.046C226.953 119.4 227.932 117.372 229.891 115.965C231.864 114.542 234.679 113.831 238.336 113.831H241.755V112.201C241.755 110.916 241.396 109.891 240.677 109.126C239.958 108.346 238.864 107.956 237.395 107.956C236.125 107.956 235.085 108.277 234.274 108.919C233.463 109.547 233.058 110.35 233.058 111.329H227.481C227.481 109.967 227.932 108.698 228.835 107.52C229.738 106.326 230.962 105.393 232.507 104.72C234.067 104.047 235.804 103.71 237.716 103.71C240.623 103.71 242.941 104.444 244.67 105.913C246.399 107.367 247.286 109.417 247.332 112.063V123.263C247.332 125.496 247.646 127.279 248.273 128.61V129H242.582ZM236.454 124.984C237.556 124.984 238.588 124.716 239.552 124.181C240.531 123.645 241.266 122.926 241.755 122.023V117.342H238.749C236.684 117.342 235.131 117.701 234.09 118.42C233.05 119.139 232.53 120.157 232.53 121.473C232.53 122.544 232.882 123.4 233.585 124.043C234.305 124.67 235.261 124.984 236.454 124.984ZM273.058 104.169V129H267.504V119.889H262.295L256.994 129H251.21L257.062 118.971C255.533 118.329 254.354 117.411 253.528 116.217C252.717 115.024 252.312 113.655 252.312 112.109C252.312 109.799 253.199 107.91 254.974 106.441C256.764 104.957 259.174 104.2 262.203 104.169H273.058ZM257.889 112.247C257.889 113.287 258.271 114.137 259.036 114.794C259.816 115.437 260.811 115.758 262.02 115.758H267.504V108.598H262.364C261.002 108.598 259.916 108.942 259.105 109.631C258.294 110.319 257.889 111.191 257.889 112.247ZM49.6016 171.837C49.6016 175.677 48.7295 178.745 46.9854 181.04C45.2412 183.319 42.9004 184.459 39.9629 184.459C37.2396 184.459 35.0594 183.564 33.4224 181.774V193.547H27.8457V159.169H32.9863L33.2158 161.693C34.8529 159.704 37.0789 158.71 39.894 158.71C42.9233 158.71 45.2948 159.842 47.0083 162.106C48.7371 164.355 49.6016 167.484 49.6016 171.493V171.837ZM44.0479 171.355C44.0479 168.876 43.5506 166.91 42.5562 165.457C41.577 164.004 40.1694 163.277 38.3335 163.277C36.0539 163.277 34.4168 164.218 33.4224 166.1V177.115C34.4321 179.043 36.0845 180.007 38.3794 180.007C40.1541 180.007 41.5387 179.295 42.5332 177.873C43.543 176.434 44.0479 174.262 44.0479 171.355ZM69.1772 184C68.9325 183.526 68.7183 182.753 68.5347 181.682C66.7599 183.533 64.5874 184.459 62.0171 184.459C59.5233 184.459 57.4884 183.748 55.9126 182.325C54.3368 180.902 53.5488 179.142 53.5488 177.046C53.5488 174.4 54.528 172.372 56.4863 170.965C58.46 169.542 61.2751 168.831 64.9316 168.831H68.3511V167.201C68.3511 165.916 67.9915 164.891 67.2725 164.126C66.5534 163.346 65.4595 162.956 63.9907 162.956C62.7209 162.956 61.6805 163.277 60.8696 163.919C60.0588 164.547 59.6533 165.35 59.6533 166.329H54.0767C54.0767 164.967 54.528 163.698 55.4307 162.52C56.3333 161.326 57.5573 160.393 59.1025 159.72C60.6631 159.047 62.3996 158.71 64.312 158.71C67.2189 158.71 69.5368 159.444 71.2656 160.913C72.9945 162.367 73.8818 164.417 73.9277 167.063V178.263C73.9277 180.496 74.2414 182.279 74.8687 183.61V184H69.1772ZM63.0498 179.984C64.1514 179.984 65.1841 179.716 66.1479 179.181C67.1271 178.645 67.8615 177.926 68.3511 177.023V172.342H65.3447C63.2793 172.342 61.7264 172.701 60.686 173.42C59.6457 174.139 59.1255 175.157 59.1255 176.473C59.1255 177.544 59.4774 178.4 60.1812 179.043C60.9002 179.67 61.8564 179.984 63.0498 179.984ZM91.4609 160.546C94.582 160.546 97.0835 161.594 98.9653 163.69C100.847 165.771 101.788 168.601 101.788 172.181V172.457C101.788 176.037 100.763 178.936 98.7129 181.154C96.6781 183.373 93.9089 184.482 90.4053 184.482C86.9935 184.482 84.2396 183.35 82.1436 181.085C80.0475 178.821 78.9995 175.731 78.9995 171.814V170.208C78.9995 164.853 79.9481 160.615 81.8452 157.494C83.7424 154.373 86.5728 152.422 90.3364 151.642C92.4478 151.213 93.8094 150.762 94.4214 150.288C95.0487 149.798 95.3623 149.14 95.3623 148.314H99.8604C99.8604 149.859 99.6079 151.114 99.103 152.078C98.5981 153.042 97.8255 153.829 96.7852 154.441C95.7448 155.038 93.9548 155.604 91.415 156.14C89.0895 156.629 87.3148 157.501 86.0908 158.756C84.8822 160.01 84.0713 161.747 83.6582 163.965C85.8766 161.686 88.4775 160.546 91.4609 160.546ZM90.3594 165.021C88.554 165.021 87.1388 165.633 86.1138 166.857C85.0887 168.066 84.5762 169.932 84.5762 172.457C84.5762 174.843 85.0811 176.702 86.0908 178.033C87.1006 179.364 88.5387 180.03 90.4053 180.03C92.2565 180.03 93.687 179.364 94.6968 178.033C95.7218 176.687 96.2344 174.667 96.2344 171.975C96.2344 169.833 95.7218 168.142 94.6968 166.903C93.687 165.648 92.2412 165.021 90.3594 165.021ZM105.116 171.355C105.116 168.922 105.598 166.735 106.562 164.792C107.525 162.833 108.879 161.334 110.624 160.293C112.368 159.238 114.372 158.71 116.636 158.71C119.987 158.71 122.702 159.789 124.783 161.946C126.879 164.103 128.011 166.964 128.18 170.529L128.203 171.837C128.203 174.285 127.728 176.473 126.78 178.4C125.847 180.328 124.5 181.82 122.741 182.875C120.997 183.931 118.977 184.459 116.682 184.459C113.179 184.459 110.371 183.296 108.26 180.971C106.164 178.63 105.116 175.516 105.116 171.63V171.355ZM110.692 171.837C110.692 174.392 111.22 176.396 112.276 177.85C113.332 179.288 114.8 180.007 116.682 180.007C118.564 180.007 120.025 179.272 121.065 177.804C122.121 176.335 122.649 174.185 122.649 171.355C122.649 168.846 122.106 166.857 121.02 165.388C119.949 163.919 118.487 163.185 116.636 163.185C114.816 163.185 113.37 163.912 112.299 165.365C111.228 166.803 110.692 168.961 110.692 171.837ZM151.771 163.598H143.716V184H138.14V163.598H130.176V159.169H151.771V163.598ZM169.97 184C169.725 183.526 169.511 182.753 169.328 181.682C167.553 183.533 165.38 184.459 162.81 184.459C160.316 184.459 158.281 183.748 156.706 182.325C155.13 180.902 154.342 179.142 154.342 177.046C154.342 174.4 155.321 172.372 157.279 170.965C159.253 169.542 162.068 168.831 165.725 168.831H169.144V167.201C169.144 165.916 168.785 164.891 168.065 164.126C167.346 163.346 166.252 162.956 164.784 162.956C163.514 162.956 162.473 163.277 161.663 163.919C160.852 164.547 160.446 165.35 160.446 166.329H154.87C154.87 164.967 155.321 163.698 156.224 162.52C157.126 161.326 158.35 160.393 159.896 159.72C161.456 159.047 163.193 158.71 165.105 158.71C168.012 158.71 170.33 159.444 172.059 160.913C173.787 162.367 174.675 164.417 174.721 167.063V178.263C174.721 180.496 175.034 182.279 175.662 183.61V184H169.97ZM163.843 179.984C164.944 179.984 165.977 179.716 166.941 179.181C167.92 178.645 168.654 177.926 169.144 177.023V172.342H166.138C164.072 172.342 162.519 172.701 161.479 173.42C160.439 174.139 159.918 175.157 159.918 176.473C159.918 177.544 160.27 178.4 160.974 179.043C161.693 179.67 162.649 179.984 163.843 179.984Z" fill="black"/>
<path d="M440.436 150.376C440.735 152.742 441.446 154.426 442.569 155.43C443.707 156.433 445.377 156.935 447.578 156.935C449.914 156.935 451.718 156.081 452.991 154.374C454.279 152.667 454.968 150.204 455.058 146.984H443.513V142.402H455.058C454.938 139.168 454.212 136.697 452.879 134.99C451.561 133.283 449.704 132.43 447.309 132.43C445.212 132.43 443.603 132.954 442.479 134.002C441.371 135.05 440.683 136.757 440.413 139.123H434.753C435.112 135.559 436.385 132.789 438.571 130.812C440.772 128.836 443.685 127.848 447.309 127.848C449.989 127.848 452.347 128.477 454.384 129.734C456.42 130.992 457.985 132.789 459.078 135.125C460.186 137.461 460.748 140.164 460.763 143.233V145.996C460.763 149.096 460.224 151.821 459.146 154.172C458.082 156.508 456.548 158.305 454.541 159.562C452.535 160.82 450.214 161.449 447.578 161.449C443.865 161.449 440.885 160.476 438.639 158.529C436.393 156.568 435.105 153.85 434.775 150.376H440.436ZM486.278 161H480.82V151.185H471.364V161H465.906V136.697H471.364V146.827H480.82V136.697H486.278V161ZM511.232 141.032H503.349V161H497.891V141.032H490.097V136.697H511.232V141.032ZM523.653 153.184L528.595 136.697H534.412L524.754 164.684C523.271 168.771 520.756 170.815 517.207 170.815C516.413 170.815 515.537 170.681 514.579 170.411V166.188L515.612 166.256C516.99 166.256 518.023 166.001 518.712 165.492C519.416 164.998 519.97 164.16 520.374 162.977L521.16 160.888L512.625 136.697H518.51L523.653 153.184ZM555.975 143.346C555.975 144.424 555.645 145.42 554.986 146.333C554.342 147.231 553.429 147.95 552.246 148.489C555.031 149.463 556.424 151.342 556.424 154.127C556.424 156.358 555.518 158.14 553.706 159.473C551.894 160.79 549.468 161.449 546.429 161.449C544.572 161.449 542.88 161.142 541.353 160.528C539.825 159.899 538.635 159.016 537.781 157.878C536.928 156.725 536.501 155.362 536.501 153.79H541.937C541.937 154.778 542.378 155.609 543.262 156.283C544.145 156.942 545.261 157.271 546.608 157.271C547.941 157.271 548.997 156.965 549.775 156.351C550.569 155.722 550.966 154.906 550.966 153.902C550.966 152.719 550.621 151.866 549.933 151.342C549.244 150.818 548.181 150.556 546.743 150.556H542.835V146.625H546.878C549.319 146.595 550.539 145.592 550.539 143.615C550.539 142.627 550.187 141.856 549.483 141.302C548.78 140.748 547.814 140.471 546.586 140.471C545.388 140.471 544.377 140.77 543.554 141.369C542.73 141.953 542.318 142.694 542.318 143.593H536.883C536.883 141.451 537.781 139.7 539.578 138.337C541.375 136.959 543.659 136.271 546.429 136.271C549.438 136.271 551.782 136.884 553.459 138.112C555.136 139.34 555.975 141.085 555.975 143.346ZM576.234 136.697H581.67V161H576.234V144.783L566.711 161H561.275V136.697H566.711V152.914L576.234 136.697ZM601.997 161C601.757 160.536 601.548 159.78 601.368 158.731C599.631 160.543 597.505 161.449 594.989 161.449C592.549 161.449 590.557 160.753 589.015 159.36C587.472 157.968 586.701 156.246 586.701 154.194C586.701 151.604 587.66 149.62 589.576 148.242C591.508 146.85 594.263 146.153 597.842 146.153H601.188V144.559C601.188 143.301 600.837 142.298 600.133 141.549C599.429 140.785 598.358 140.403 596.921 140.403C595.678 140.403 594.66 140.718 593.866 141.347C593.073 141.961 592.676 142.747 592.676 143.705H587.218C587.218 142.372 587.66 141.13 588.543 139.977C589.426 138.809 590.624 137.895 592.137 137.236C593.664 136.577 595.364 136.248 597.235 136.248C600.08 136.248 602.349 136.967 604.041 138.404C605.733 139.827 606.602 141.833 606.646 144.424V155.385C606.646 157.571 606.953 159.315 607.567 160.618V161H601.997ZM596 157.069C597.078 157.069 598.089 156.807 599.032 156.283C599.991 155.759 600.709 155.055 601.188 154.172V149.59H598.246C596.225 149.59 594.705 149.942 593.687 150.646C592.668 151.349 592.159 152.345 592.159 153.633C592.159 154.681 592.504 155.52 593.192 156.148C593.896 156.762 594.832 157.069 596 157.069ZM630.77 143.346C630.77 144.424 630.44 145.42 629.781 146.333C629.137 147.231 628.224 147.95 627.041 148.489C629.826 149.463 631.219 151.342 631.219 154.127C631.219 156.358 630.313 158.14 628.501 159.473C626.689 160.79 624.263 161.449 621.224 161.449C619.367 161.449 617.675 161.142 616.147 160.528C614.62 159.899 613.43 159.016 612.576 157.878C611.723 156.725 611.296 155.362 611.296 153.79H616.731C616.731 154.778 617.173 155.609 618.057 156.283C618.94 156.942 620.056 157.271 621.403 157.271C622.736 157.271 623.792 156.965 624.57 156.351C625.364 155.722 625.761 154.906 625.761 153.902C625.761 152.719 625.416 151.866 624.728 151.342C624.039 150.818 622.976 150.556 621.538 150.556H617.63V146.625H621.673C624.114 146.595 625.334 145.592 625.334 143.615C625.334 142.627 624.982 141.856 624.278 141.302C623.575 140.748 622.609 140.471 621.381 140.471C620.183 140.471 619.172 140.77 618.349 141.369C617.525 141.953 617.113 142.694 617.113 143.593H611.678C611.678 141.451 612.576 139.7 614.373 138.337C616.17 136.959 618.453 136.271 621.224 136.271C624.233 136.271 626.577 136.884 628.254 138.112C629.931 139.34 630.77 141.085 630.77 143.346ZM650.288 154.284L657.476 136.697H664.304V161H658.846V144.918L652.152 161H648.446L641.73 144.828V161H636.272V136.697H643.146L650.288 154.284Z" fill="white"/>
<path d="M26.6396 221.648H29.481V235.731H36.6797V221.648H39.521V235.709H41.4976L41.2729 241.942H38.6675V238H26.6396V221.648ZM48.9321 238.225C47.2026 238.225 45.7988 237.682 44.7207 236.596C43.6501 235.503 43.1147 234.051 43.1147 232.239V231.902C43.1147 230.689 43.3468 229.607 43.811 228.656C44.2827 227.698 44.9416 226.953 45.7876 226.421C46.6336 225.89 47.577 225.624 48.6177 225.624C50.2723 225.624 51.5488 226.152 52.4473 227.208C53.3532 228.263 53.8062 229.757 53.8062 231.688V232.789H45.8662C45.9486 233.792 46.2817 234.586 46.8657 235.17C47.4572 235.754 48.1984 236.046 49.0894 236.046C50.3397 236.046 51.3579 235.541 52.144 234.53L53.6152 235.934C53.1286 236.66 52.4772 237.225 51.6611 237.629C50.8525 238.026 49.9429 238.225 48.9321 238.225ZM48.6064 227.814C47.8577 227.814 47.2513 228.076 46.7871 228.6C46.3304 229.124 46.0384 229.854 45.9111 230.79H51.1108V230.588C51.0509 229.674 50.8076 228.986 50.3809 228.521C49.9541 228.05 49.3626 227.814 48.6064 227.814ZM66.2271 238H63.498V233.092H58.77V238H56.041V225.849H58.77V230.914H63.498V225.849H66.2271V238ZM76.7275 225.849H79.4453V238H76.7275V229.892L71.9658 238H69.248V225.849H71.9658V233.957L76.7275 225.849ZM91.9111 228.016H87.9692V238H85.2402V228.016H81.3433V225.849H91.9111V228.016ZM96.6729 229.712H99.3457C100.341 229.712 101.21 229.884 101.951 230.229C102.692 230.573 103.254 231.056 103.636 231.677C104.025 232.299 104.22 233.021 104.22 233.845C104.22 235.095 103.778 236.098 102.895 236.854C102.011 237.611 100.836 237.993 99.3682 238H93.9438V225.849H96.6729V229.712ZM96.6729 231.902V235.821H99.3345C100.001 235.821 100.525 235.657 100.907 235.327C101.296 234.99 101.491 234.515 101.491 233.901C101.491 233.287 101.3 232.804 100.918 232.452C100.544 232.093 100.035 231.909 99.3906 231.902H96.6729ZM112.339 238V225.849H117.27C118.932 225.849 120.197 226.141 121.065 226.725C121.934 227.301 122.368 228.132 122.368 229.218C122.368 229.779 122.192 230.285 121.84 230.734C121.496 231.176 120.983 231.516 120.302 231.756C121.095 231.921 121.724 232.254 122.188 232.755C122.653 233.257 122.885 233.848 122.885 234.53C122.885 235.66 122.465 236.521 121.627 237.113C120.796 237.704 119.598 238 118.033 238H112.339ZM115.068 232.823V235.844H118.056C119.456 235.844 120.156 235.342 120.156 234.339C120.156 233.328 119.444 232.823 118.022 232.823H115.068ZM115.068 230.869H117.314C118.864 230.869 119.639 230.412 119.639 229.499C119.639 228.54 118.905 228.046 117.438 228.016H115.068V230.869ZM129.567 233.193H128.186V238H125.457V225.849H128.186V230.7H129.387L132.745 225.849H136.114L131.723 231.666L136.485 238H132.936L129.567 233.193ZM148.311 225.849V238H145.582V228.05H142.145L141.92 232.284C141.778 234.32 141.385 235.784 140.741 236.675C140.105 237.558 139.128 238 137.81 238H136.968L136.957 235.731L137.518 235.675C138.117 235.593 138.551 235.23 138.821 234.586C139.098 233.935 139.274 232.752 139.349 231.037L139.573 225.849H148.311ZM158.474 238C158.354 237.768 158.25 237.39 158.16 236.866C157.291 237.772 156.228 238.225 154.97 238.225C153.75 238.225 152.754 237.876 151.983 237.18C151.212 236.484 150.826 235.623 150.826 234.597C150.826 233.302 151.305 232.31 152.264 231.621C153.229 230.925 154.607 230.577 156.396 230.577H158.07V229.779C158.07 229.15 157.894 228.649 157.542 228.274C157.19 227.893 156.655 227.702 155.936 227.702C155.315 227.702 154.806 227.859 154.409 228.173C154.012 228.48 153.813 228.873 153.813 229.353H151.084C151.084 228.686 151.305 228.065 151.747 227.488C152.189 226.904 152.788 226.448 153.544 226.118C154.308 225.789 155.157 225.624 156.093 225.624C157.516 225.624 158.65 225.983 159.496 226.702C160.342 227.413 160.776 228.417 160.799 229.712V235.192C160.799 236.285 160.952 237.158 161.259 237.809V238H158.474ZM155.476 236.035C156.015 236.035 156.52 235.904 156.992 235.642C157.471 235.38 157.83 235.028 158.07 234.586V232.295H156.599C155.588 232.295 154.828 232.471 154.319 232.823C153.81 233.175 153.555 233.673 153.555 234.316C153.555 234.84 153.727 235.26 154.072 235.574C154.424 235.881 154.892 236.035 155.476 236.035ZM163.708 235.821C164.464 234.975 164.969 234.174 165.224 233.418C165.486 232.654 165.643 231.681 165.695 230.498L165.853 225.849H174.287V235.821H175.971V241.616H173.253V238H165.459V241.616H162.697L162.708 235.821H163.708ZM166.908 235.821H171.569V228.196H168.503L168.424 230.521C168.319 232.752 167.814 234.519 166.908 235.821ZM30.7163 260.193H29.335V265H26.606V252.849H29.335V257.7H30.5366L33.8945 252.849H37.2637L32.8726 258.666L37.6343 265H34.0854L30.7163 260.193ZM46.394 265C46.2743 264.768 46.1694 264.39 46.0796 263.866C45.2111 264.772 44.1479 265.225 42.8901 265.225C41.6698 265.225 40.674 264.876 39.9028 264.18C39.1317 263.484 38.7461 262.623 38.7461 261.597C38.7461 260.302 39.2253 259.31 40.1836 258.621C41.1494 257.925 42.527 257.577 44.3164 257.577H45.9897V256.779C45.9897 256.15 45.8138 255.649 45.4619 255.274C45.11 254.893 44.5747 254.702 43.856 254.702C43.2345 254.702 42.7254 254.859 42.3286 255.173C41.9318 255.48 41.7334 255.873 41.7334 256.353H39.0044C39.0044 255.686 39.2253 255.065 39.667 254.488C40.1087 253.904 40.7077 253.448 41.4639 253.118C42.2275 252.789 43.0773 252.624 44.0132 252.624C45.4357 252.624 46.57 252.983 47.416 253.702C48.262 254.413 48.6963 255.417 48.7188 256.712V262.192C48.7188 263.285 48.8722 264.158 49.1792 264.809V265H46.394ZM43.3955 263.035C43.9346 263.035 44.4399 262.904 44.9116 262.642C45.3908 262.38 45.7502 262.028 45.9897 261.586V259.295H44.5186C43.5078 259.295 42.7479 259.471 42.2388 259.823C41.7297 260.175 41.4751 260.673 41.4751 261.316C41.4751 261.84 41.6473 262.26 41.9917 262.574C42.3436 262.881 42.8115 263.035 43.3955 263.035ZM62.2739 260.115H60.8252V265H58.0962V260.115H56.6587L53.8623 265H50.5156L54.5474 258.677L50.729 252.849H54.0645L56.8159 257.622H58.0962V252.849H60.8252V257.622H62.1167L64.8794 252.849H68.2148L64.4077 258.644L68.4619 265H65.0703L62.2739 260.115ZM70.2026 262.821C70.9588 261.975 71.4642 261.174 71.7188 260.418C71.9808 259.654 72.138 258.681 72.1904 257.498L72.3477 252.849H80.7817V262.821H82.4663V268.616H79.7485V265H71.9546V268.616H69.1919L69.2031 262.821H70.2026ZM73.4033 262.821H78.064V255.196H74.998L74.9194 257.521C74.8146 259.752 74.3092 261.519 73.4033 262.821ZM83.9038 258.812C83.9038 257.622 84.1396 256.551 84.6113 255.6C85.083 254.642 85.7456 253.908 86.5991 253.399C87.4526 252.882 88.4334 252.624 89.5415 252.624C91.1812 252.624 92.5101 253.152 93.5283 254.208C94.554 255.263 95.1081 256.663 95.1904 258.408L95.2017 259.048C95.2017 260.246 94.9696 261.316 94.5054 262.26C94.0487 263.203 93.3898 263.933 92.5288 264.45C91.6753 264.966 90.687 265.225 89.564 265.225C87.8494 265.225 86.4756 264.656 85.4424 263.518C84.4167 262.372 83.9038 260.848 83.9038 258.947V258.812ZM86.6328 259.048C86.6328 260.298 86.8911 261.279 87.4077 261.99C87.9243 262.694 88.6431 263.046 89.564 263.046C90.4849 263.046 91.1999 262.687 91.709 261.968C92.2256 261.249 92.4839 260.197 92.4839 258.812C92.4839 257.584 92.2181 256.611 91.6865 255.892C91.1624 255.173 90.4474 254.814 89.5415 254.814C88.6506 254.814 87.943 255.17 87.4189 255.881C86.8949 256.585 86.6328 257.64 86.6328 259.048ZM105.601 255.05H100.323V265H97.605V252.849H105.601V255.05ZM106.41 258.812C106.41 257.622 106.646 256.551 107.117 255.6C107.589 254.642 108.251 253.908 109.105 253.399C109.958 252.882 110.939 252.624 112.047 252.624C113.687 252.624 115.016 253.152 116.034 254.208C117.06 255.263 117.614 256.663 117.696 258.408L117.708 259.048C117.708 260.246 117.475 261.316 117.011 262.26C116.555 263.203 115.896 263.933 115.035 264.45C114.181 264.966 113.193 265.225 112.07 265.225C110.355 265.225 108.981 264.656 107.948 263.518C106.923 262.372 106.41 260.848 106.41 258.947V258.812ZM109.139 259.048C109.139 260.298 109.397 261.279 109.914 261.99C110.43 262.694 111.149 263.046 112.07 263.046C112.991 263.046 113.706 262.687 114.215 261.968C114.731 261.249 114.99 260.197 114.99 258.812C114.99 257.584 114.724 256.611 114.192 255.892C113.668 255.173 112.953 254.814 112.047 254.814C111.156 254.814 110.449 255.17 109.925 255.881C109.401 256.585 109.139 257.64 109.139 259.048ZM135.485 265H132.756V260.946C132.053 261.111 131.311 261.193 130.533 261.193C128.871 261.193 127.602 260.796 126.726 260.002C125.85 259.201 125.412 258.056 125.412 256.566V252.837H128.141V256.566C128.141 257.449 128.335 258.075 128.725 258.441C129.121 258.808 129.724 258.992 130.533 258.992C131.266 258.992 132.008 258.906 132.756 258.733V252.849H135.485V265ZM143.74 265.225C142.01 265.225 140.606 264.682 139.528 263.596C138.458 262.503 137.922 261.051 137.922 259.239V258.902C137.922 257.689 138.154 256.607 138.619 255.656C139.09 254.698 139.749 253.953 140.595 253.421C141.441 252.89 142.385 252.624 143.425 252.624C145.08 252.624 146.356 253.152 147.255 254.208C148.161 255.263 148.614 256.757 148.614 258.688V259.789H140.674C140.756 260.792 141.089 261.586 141.673 262.17C142.265 262.754 143.006 263.046 143.897 263.046C145.147 263.046 146.166 262.541 146.952 261.53L148.423 262.934C147.936 263.66 147.285 264.225 146.469 264.629C145.66 265.026 144.75 265.225 143.74 265.225ZM143.414 254.814C142.665 254.814 142.059 255.076 141.595 255.6C141.138 256.124 140.846 256.854 140.719 257.79H145.918V257.588C145.859 256.674 145.615 255.986 145.188 255.521C144.762 255.05 144.17 254.814 143.414 254.814ZM161.068 252.849V265H158.339V255.05H154.903L154.678 259.284C154.536 261.32 154.143 262.784 153.499 263.675C152.863 264.558 151.886 265 150.568 265H149.726L149.714 262.731L150.276 262.675C150.875 262.593 151.309 262.23 151.579 261.586C151.856 260.935 152.032 259.752 152.106 258.037L152.331 252.849H161.068ZM163.46 258.812C163.46 257.622 163.696 256.551 164.168 255.6C164.64 254.642 165.302 253.908 166.156 253.399C167.009 252.882 167.99 252.624 169.098 252.624C170.738 252.624 172.067 253.152 173.085 254.208C174.111 255.263 174.665 256.663 174.747 258.408L174.758 259.048C174.758 260.246 174.526 261.316 174.062 262.26C173.605 263.203 172.946 263.933 172.085 264.45C171.232 264.966 170.244 265.225 169.121 265.225C167.406 265.225 166.032 264.656 164.999 263.518C163.973 262.372 163.46 260.848 163.46 258.947V258.812ZM166.189 259.048C166.189 260.298 166.448 261.279 166.964 261.99C167.481 262.694 168.2 263.046 169.121 263.046C170.042 263.046 170.757 262.687 171.266 261.968C171.782 261.249 172.041 260.197 172.041 258.812C172.041 257.584 171.775 256.611 171.243 255.892C170.719 255.173 170.004 254.814 169.098 254.814C168.207 254.814 167.5 255.17 166.976 255.881C166.451 256.585 166.189 257.64 166.189 259.048ZM177.274 265V252.849H182.204C183.866 252.849 185.132 253.141 186 253.725C186.868 254.301 187.303 255.132 187.303 256.218C187.303 256.779 187.127 257.285 186.775 257.734C186.431 258.176 185.918 258.516 185.236 258.756C186.03 258.921 186.659 259.254 187.123 259.755C187.587 260.257 187.819 260.848 187.819 261.53C187.819 262.66 187.4 263.521 186.562 264.113C185.73 264.704 184.533 265 182.968 265H177.274ZM180.003 259.823V262.844H182.99C184.39 262.844 185.09 262.342 185.09 261.339C185.09 260.328 184.379 259.823 182.957 259.823H180.003ZM180.003 257.869H182.249C183.799 257.869 184.574 257.412 184.574 256.499C184.574 255.54 183.84 255.046 182.373 255.016H180.003V257.869ZM195.535 265.225C193.805 265.225 192.401 264.682 191.323 263.596C190.253 262.503 189.717 261.051 189.717 259.239V258.902C189.717 257.689 189.949 256.607 190.414 255.656C190.885 254.698 191.544 253.953 192.39 253.421C193.236 252.89 194.18 252.624 195.22 252.624C196.875 252.624 198.151 253.152 199.05 254.208C199.956 255.263 200.409 256.757 200.409 258.688V259.789H192.469C192.551 260.792 192.884 261.586 193.468 262.17C194.06 262.754 194.801 263.046 195.692 263.046C196.942 263.046 197.96 262.541 198.747 261.53L200.218 262.934C199.731 263.66 199.08 264.225 198.264 264.629C197.455 265.026 196.545 265.225 195.535 265.225ZM195.209 254.814C194.46 254.814 193.854 255.076 193.39 255.6C192.933 256.124 192.641 256.854 192.514 257.79H197.713V257.588C197.653 256.674 197.41 255.986 196.983 255.521C196.557 255.05 195.965 254.814 195.209 254.814ZM206.855 260.193H205.474V265H202.745V252.849H205.474V257.7H206.675L210.033 252.849H213.402L209.011 258.666L213.773 265H210.224L206.855 260.193ZM222.533 265C222.413 264.768 222.308 264.39 222.218 263.866C221.35 264.772 220.287 265.225 219.029 265.225C217.808 265.225 216.813 264.876 216.042 264.18C215.27 263.484 214.885 262.623 214.885 261.597C214.885 260.302 215.364 259.31 216.322 258.621C217.288 257.925 218.666 257.577 220.455 257.577H222.128V256.779C222.128 256.15 221.952 255.649 221.601 255.274C221.249 254.893 220.713 254.702 219.995 254.702C219.373 254.702 218.864 254.859 218.467 255.173C218.07 255.48 217.872 255.873 217.872 256.353H215.143C215.143 255.686 215.364 255.065 215.806 254.488C216.247 253.904 216.846 253.448 217.603 253.118C218.366 252.789 219.216 252.624 220.152 252.624C221.574 252.624 222.709 252.983 223.555 253.702C224.401 254.413 224.835 255.417 224.857 256.712V262.192C224.857 263.285 225.011 264.158 225.318 264.809V265H222.533ZM219.534 263.035C220.073 263.035 220.579 262.904 221.05 262.642C221.529 262.38 221.889 262.028 222.128 261.586V259.295H220.657C219.646 259.295 218.887 259.471 218.377 259.823C217.868 260.175 217.614 260.673 217.614 261.316C217.614 261.84 217.786 262.26 218.13 262.574C218.482 262.881 218.95 263.035 219.534 263.035ZM233.651 265V252.849H238.581C240.243 252.849 241.508 253.141 242.377 253.725C243.245 254.301 243.68 255.132 243.68 256.218C243.68 256.779 243.504 257.285 243.152 257.734C242.807 258.176 242.295 258.516 241.613 258.756C242.407 258.921 243.036 259.254 243.5 259.755C243.964 260.257 244.196 260.848 244.196 261.53C244.196 262.66 243.777 263.521 242.938 264.113C242.107 264.704 240.91 265 239.345 265H233.651ZM236.38 259.823V262.844H239.367C240.767 262.844 241.467 262.342 241.467 261.339C241.467 260.328 240.756 259.823 239.333 259.823H236.38ZM236.38 257.869H238.626C240.176 257.869 240.951 257.412 240.951 256.499C240.951 255.54 240.217 255.046 238.75 255.016H236.38V257.869ZM37.0391 286.048C37.0391 287.927 36.6123 289.428 35.7588 290.551C34.9053 291.667 33.7598 292.225 32.3223 292.225C30.9896 292.225 29.9227 291.787 29.1216 290.911V296.672H26.3926V279.849H28.9082L29.0205 281.084C29.8216 280.111 30.911 279.624 32.2886 279.624C33.771 279.624 34.9315 280.178 35.77 281.286C36.616 282.387 37.0391 283.918 37.0391 285.879V286.048ZM34.3213 285.812C34.3213 284.599 34.078 283.637 33.5913 282.926C33.1121 282.215 32.4233 281.859 31.5249 281.859C30.4093 281.859 29.6082 282.319 29.1216 283.24V288.631C29.6157 289.574 30.4243 290.046 31.5474 290.046C32.4159 290.046 33.0934 289.698 33.5801 289.001C34.0742 288.298 34.3213 287.235 34.3213 285.812ZM46.6187 292C46.4989 291.768 46.394 291.39 46.3042 290.866C45.4357 291.772 44.3726 292.225 43.1147 292.225C41.8944 292.225 40.8986 291.876 40.1274 291.18C39.3563 290.484 38.9707 289.623 38.9707 288.597C38.9707 287.302 39.4499 286.31 40.4082 285.621C41.374 284.925 42.7516 284.577 44.541 284.577H46.2144V283.779C46.2144 283.15 46.0384 282.649 45.6865 282.274C45.3346 281.893 44.7993 281.702 44.0806 281.702C43.4591 281.702 42.95 281.859 42.5532 282.173C42.1564 282.48 41.958 282.873 41.958 283.353H39.229C39.229 282.686 39.4499 282.065 39.8916 281.488C40.3333 280.904 40.9323 280.448 41.6885 280.118C42.4521 279.789 43.3019 279.624 44.2378 279.624C45.6603 279.624 46.7946 279.983 47.6406 280.702C48.4867 281.413 48.9209 282.417 48.9434 283.712V289.192C48.9434 290.285 49.0968 291.158 49.4038 291.809V292H46.6187ZM43.6201 290.035C44.1592 290.035 44.6646 289.904 45.1362 289.642C45.6154 289.38 45.9748 289.028 46.2144 288.586V286.295H44.7432C43.7324 286.295 42.9725 286.471 42.4634 286.823C41.9543 287.175 41.6997 287.673 41.6997 288.316C41.6997 288.84 41.8719 289.26 42.2163 289.574C42.5682 289.881 43.0361 290.035 43.6201 290.035ZM57.5234 280.522C59.0508 280.522 60.2749 281.035 61.1958 282.061C62.1167 283.079 62.5771 284.464 62.5771 286.216V286.351C62.5771 288.103 62.0755 289.522 61.0723 290.607C60.0765 291.693 58.7214 292.236 57.0068 292.236C55.3372 292.236 53.9896 291.682 52.9639 290.574C51.9382 289.466 51.4253 287.953 51.4253 286.037V285.25C51.4253 282.63 51.8895 280.556 52.8179 279.029C53.7463 277.501 55.1313 276.547 56.9731 276.165C58.0063 275.955 58.6727 275.735 58.9722 275.502C59.2791 275.263 59.4326 274.941 59.4326 274.537H61.6338C61.6338 275.293 61.5103 275.907 61.2632 276.378C61.0161 276.85 60.638 277.236 60.1289 277.535C59.6198 277.827 58.7438 278.104 57.501 278.366C56.363 278.606 55.4945 279.033 54.8955 279.646C54.304 280.26 53.9072 281.11 53.7051 282.196C54.7907 281.08 56.0635 280.522 57.5234 280.522ZM56.9844 282.712C56.1009 282.712 55.4084 283.012 54.9067 283.611C54.4051 284.202 54.1543 285.116 54.1543 286.351C54.1543 287.519 54.4014 288.429 54.8955 289.08C55.3896 289.731 56.0934 290.057 57.0068 290.057C57.9128 290.057 58.6128 289.731 59.1069 289.08C59.6086 288.421 59.8594 287.433 59.8594 286.115C59.8594 285.067 59.6086 284.24 59.1069 283.633C58.6128 283.019 57.9053 282.712 56.9844 282.712ZM64.2056 285.812C64.2056 284.622 64.4414 283.551 64.9131 282.6C65.3848 281.642 66.0474 280.908 66.9009 280.399C67.7544 279.882 68.7352 279.624 69.8433 279.624C71.4829 279.624 72.8118 280.152 73.8301 281.208C74.8558 282.263 75.4098 283.663 75.4922 285.408L75.5034 286.048C75.5034 287.246 75.2713 288.316 74.8071 289.26C74.3504 290.203 73.6916 290.933 72.8306 291.45C71.9771 291.966 70.9888 292.225 69.8657 292.225C68.1512 292.225 66.7773 291.656 65.7441 290.518C64.7184 289.372 64.2056 287.848 64.2056 285.947V285.812ZM66.9346 286.048C66.9346 287.298 67.1929 288.279 67.7095 288.99C68.2261 289.694 68.9448 290.046 69.8657 290.046C70.7866 290.046 71.5016 289.687 72.0107 288.968C72.5273 288.249 72.7856 287.197 72.7856 285.812C72.7856 284.584 72.5199 283.611 71.9883 282.892C71.4642 282.173 70.7492 281.814 69.8433 281.814C68.9523 281.814 68.2448 282.17 67.7207 282.881C67.1966 283.585 66.9346 284.64 66.9346 286.048ZM87.0371 282.016H83.0952V292H80.3662V282.016H76.4692V279.849H87.0371V282.016ZM93.2476 288.092L95.7183 279.849H98.627L93.7979 293.842C93.0566 295.886 91.7988 296.908 90.0244 296.908C89.6276 296.908 89.1896 296.84 88.7104 296.706V294.594L89.2271 294.628C89.9159 294.628 90.4325 294.501 90.7769 294.246C91.1287 293.999 91.4058 293.58 91.6079 292.988L92.001 291.944L87.7334 279.849H90.6758L93.2476 288.092ZM111.037 284.992H109.105V292H106.275V275.648H109.105V282.521H110.666L115.473 275.648H118.954L113.339 283.476L119.448 292H116.034L111.037 284.992ZM119.931 285.812C119.931 284.622 120.167 283.551 120.639 282.6C121.11 281.642 121.773 280.908 122.626 280.399C123.48 279.882 124.461 279.624 125.569 279.624C127.208 279.624 128.537 280.152 129.556 281.208C130.581 282.263 131.135 283.663 131.218 285.408L131.229 286.048C131.229 287.246 130.997 288.316 130.533 289.26C130.076 290.203 129.417 290.933 128.556 291.45C127.703 291.966 126.714 292.225 125.591 292.225C123.877 292.225 122.503 291.656 121.47 290.518C120.444 289.372 119.931 287.848 119.931 285.947V285.812ZM122.66 286.048C122.66 287.298 122.918 288.279 123.435 288.99C123.952 289.694 124.67 290.046 125.591 290.046C126.512 290.046 127.227 289.687 127.736 288.968C128.253 288.249 128.511 287.197 128.511 285.812C128.511 284.584 128.245 283.611 127.714 282.892C127.19 282.173 126.475 281.814 125.569 281.814C124.678 281.814 123.97 282.17 123.446 282.881C122.922 283.585 122.66 284.64 122.66 286.048ZM140.752 288.642L144.346 279.849H147.76V292H145.031V283.959L141.685 292H139.832L136.474 283.914V292H133.745V279.849H137.181L140.752 288.642ZM161.136 292H158.407V282.05H153.667V292H150.938V279.849H161.136V292ZM171.299 292C171.18 291.768 171.075 291.39 170.985 290.866C170.116 291.772 169.053 292.225 167.795 292.225C166.575 292.225 165.579 291.876 164.808 291.18C164.037 290.484 163.651 289.623 163.651 288.597C163.651 287.302 164.131 286.31 165.089 285.621C166.055 284.925 167.432 284.577 169.222 284.577H170.895V283.779C170.895 283.15 170.719 282.649 170.367 282.274C170.015 281.893 169.48 281.702 168.761 281.702C168.14 281.702 167.631 281.859 167.234 282.173C166.837 282.48 166.639 282.873 166.639 283.353H163.91C163.91 282.686 164.131 282.065 164.572 281.488C165.014 280.904 165.613 280.448 166.369 280.118C167.133 279.789 167.983 279.624 168.918 279.624C170.341 279.624 171.475 279.983 172.321 280.702C173.167 281.413 173.602 282.417 173.624 283.712V289.192C173.624 290.285 173.778 291.158 174.084 291.809V292H171.299ZM168.301 290.035C168.84 290.035 169.345 289.904 169.817 289.642C170.296 289.38 170.655 289.028 170.895 288.586V286.295H169.424C168.413 286.295 167.653 286.471 167.144 286.823C166.635 287.175 166.38 287.673 166.38 288.316C166.38 288.84 166.553 289.26 166.897 289.574C167.249 289.881 167.717 290.035 168.301 290.035ZM186.775 292H184.046V287.092H179.318V292H176.589V279.849H179.318V284.914H184.046V279.849H186.775V292ZM197.275 279.849H199.993V292H197.275V283.892L192.514 292H189.796V279.849H192.514V287.957L197.275 279.849ZM210.482 279.849H213.2V292H210.482V283.892L205.721 292H203.003V279.849H205.721V287.957L210.482 279.849Z" fill="black"/>
<path d="M374.438 408.25L381 425.688L387.547 408.25H392.656V431H388.719V423.5L389.109 413.469L382.391 431H379.562L372.859 413.484L373.25 423.5V431H369.312V408.25H374.438ZM401.062 419.469H404.781C406.167 419.469 407.375 419.708 408.406 420.188C409.438 420.667 410.219 421.339 410.75 422.203C411.292 423.068 411.562 424.073 411.562 425.219C411.562 426.958 410.948 428.354 409.719 429.406C408.49 430.458 406.854 430.99 404.812 431H397.266V414.094H401.062V419.469ZM418.172 431H414.375V414.094H418.172V431ZM401.062 422.516V427.969H404.766C405.693 427.969 406.422 427.74 406.953 427.281C407.495 426.812 407.766 426.151 407.766 425.297C407.766 424.443 407.5 423.771 406.969 423.281C406.448 422.781 405.74 422.526 404.844 422.516H401.062ZM438.656 415.031C440.781 415.031 442.484 415.745 443.766 417.172C445.047 418.589 445.688 420.516 445.688 422.953V423.141C445.688 425.578 444.99 427.552 443.594 429.062C442.208 430.573 440.323 431.328 437.938 431.328C435.615 431.328 433.74 430.557 432.312 429.016C430.885 427.474 430.172 425.37 430.172 422.703V421.609C430.172 417.964 430.818 415.078 432.109 412.953C433.401 410.828 435.328 409.5 437.891 408.969C439.328 408.677 440.255 408.37 440.672 408.047C441.099 407.714 441.312 407.266 441.312 406.703H444.375C444.375 407.755 444.203 408.609 443.859 409.266C443.516 409.922 442.99 410.458 442.281 410.875C441.573 411.281 440.354 411.667 438.625 412.031C437.042 412.365 435.833 412.958 435 413.812C434.177 414.667 433.625 415.849 433.344 417.359C434.854 415.807 436.625 415.031 438.656 415.031ZM437.906 418.078C436.677 418.078 435.714 418.495 435.016 419.328C434.318 420.151 433.969 421.422 433.969 423.141C433.969 424.766 434.312 426.031 435 426.938C435.688 427.844 436.667 428.297 437.938 428.297C439.198 428.297 440.172 427.844 440.859 426.938C441.557 426.021 441.906 424.646 441.906 422.812C441.906 421.354 441.557 420.203 440.859 419.359C440.172 418.505 439.188 418.078 437.906 418.078ZM456.109 431.312C453.703 431.312 451.75 430.557 450.25 429.047C448.76 427.526 448.016 425.505 448.016 422.984V422.516C448.016 420.828 448.339 419.323 448.984 418C449.641 416.667 450.557 415.63 451.734 414.891C452.911 414.151 454.224 413.781 455.672 413.781C457.974 413.781 459.75 414.516 461 415.984C462.26 417.453 462.891 419.531 462.891 422.219V423.75H451.844C451.958 425.146 452.422 426.25 453.234 427.062C454.057 427.875 455.089 428.281 456.328 428.281C458.068 428.281 459.484 427.578 460.578 426.172L462.625 428.125C461.948 429.135 461.042 429.922 459.906 430.484C458.781 431.036 457.516 431.312 456.109 431.312ZM455.656 416.828C454.615 416.828 453.771 417.193 453.125 417.922C452.49 418.651 452.083 419.667 451.906 420.969H459.141V420.688C459.057 419.417 458.719 418.458 458.125 417.812C457.531 417.156 456.708 416.828 455.656 416.828ZM480.656 422.719C480.656 425.333 480.062 427.422 478.875 428.984C477.688 430.536 476.094 431.312 474.094 431.312C472.24 431.312 470.755 430.703 469.641 429.484V437.5H465.844V414.094H469.344L469.5 415.812C470.615 414.458 472.13 413.781 474.047 413.781C476.109 413.781 477.724 414.552 478.891 416.094C480.068 417.625 480.656 419.755 480.656 422.484V422.719ZM476.875 422.391C476.875 420.703 476.536 419.365 475.859 418.375C475.193 417.385 474.234 416.891 472.984 416.891C471.432 416.891 470.318 417.531 469.641 418.812V426.312C470.328 427.625 471.453 428.281 473.016 428.281C474.224 428.281 475.167 427.797 475.844 426.828C476.531 425.849 476.875 424.37 476.875 422.391ZM491.328 431.312C488.922 431.312 486.969 430.557 485.469 429.047C483.979 427.526 483.234 425.505 483.234 422.984V422.516C483.234 420.828 483.557 419.323 484.203 418C484.859 416.667 485.776 415.63 486.953 414.891C488.13 414.151 489.443 413.781 490.891 413.781C493.193 413.781 494.969 414.516 496.219 415.984C497.479 417.453 498.109 419.531 498.109 422.219V423.75H487.062C487.177 425.146 487.641 426.25 488.453 427.062C489.276 427.875 490.307 428.281 491.547 428.281C493.286 428.281 494.703 427.578 495.797 426.172L497.844 428.125C497.167 429.135 496.26 429.922 495.125 430.484C494 431.036 492.734 431.312 491.328 431.312ZM490.875 416.828C489.833 416.828 488.99 417.193 488.344 417.922C487.708 418.651 487.302 419.667 487.125 420.969H494.359V420.688C494.276 419.417 493.938 418.458 493.344 417.812C492.75 417.156 491.927 416.828 490.875 416.828ZM511.109 426.328L516.109 414.094H520.859V431H517.062V419.812L512.406 431H509.828L505.156 419.75V431H501.359V414.094H506.141L511.109 426.328ZM532.078 428.281C533.026 428.281 533.812 428.005 534.438 427.453C535.062 426.901 535.396 426.219 535.438 425.406H539.016C538.974 426.458 538.646 427.443 538.031 428.359C537.417 429.266 536.583 429.984 535.531 430.516C534.479 431.047 533.344 431.312 532.125 431.312C529.76 431.312 527.885 430.547 526.5 429.016C525.115 427.484 524.422 425.37 524.422 422.672V422.281C524.422 419.708 525.109 417.651 526.484 416.109C527.859 414.557 529.734 413.781 532.109 413.781C534.12 413.781 535.755 414.37 537.016 415.547C538.286 416.714 538.953 418.25 539.016 420.156H535.438C535.396 419.188 535.062 418.391 534.438 417.766C533.823 417.141 533.036 416.828 532.078 416.828C530.849 416.828 529.901 417.276 529.234 418.172C528.568 419.057 528.229 420.406 528.219 422.219V422.828C528.219 424.661 528.547 426.031 529.203 426.938C529.87 427.833 530.828 428.281 532.078 428.281ZM555.422 414.094V431H551.641V424.797H548.094L544.484 431H540.547L544.531 424.172C543.49 423.734 542.688 423.109 542.125 422.297C541.573 421.484 541.297 420.552 541.297 419.5C541.297 417.927 541.901 416.641 543.109 415.641C544.328 414.63 545.969 414.115 548.031 414.094H555.422ZM545.094 419.594C545.094 420.302 545.354 420.88 545.875 421.328C546.406 421.766 547.083 421.984 547.906 421.984H551.641V417.109H548.141C547.214 417.109 546.474 417.344 545.922 417.812C545.37 418.281 545.094 418.875 545.094 419.594ZM381.75 456.719C381.75 457.469 381.521 458.161 381.062 458.797C380.615 459.422 379.979 459.922 379.156 460.297C381.094 460.974 382.062 462.281 382.062 464.219C382.062 465.771 381.432 467.01 380.172 467.938C378.911 468.854 377.224 469.312 375.109 469.312C373.818 469.312 372.641 469.099 371.578 468.672C370.516 468.234 369.688 467.62 369.094 466.828C368.5 466.026 368.203 465.078 368.203 463.984H371.984C371.984 464.672 372.292 465.25 372.906 465.719C373.521 466.177 374.297 466.406 375.234 466.406C376.161 466.406 376.896 466.193 377.438 465.766C377.99 465.328 378.266 464.76 378.266 464.062C378.266 463.24 378.026 462.646 377.547 462.281C377.068 461.917 376.328 461.734 375.328 461.734H372.609V459H375.422C377.12 458.979 377.969 458.281 377.969 456.906C377.969 456.219 377.724 455.682 377.234 455.297C376.745 454.911 376.073 454.719 375.219 454.719C374.385 454.719 373.682 454.927 373.109 455.344C372.536 455.75 372.25 456.266 372.25 456.891H368.469C368.469 455.401 369.094 454.182 370.344 453.234C371.594 452.276 373.182 451.797 375.109 451.797C377.203 451.797 378.833 452.224 380 453.078C381.167 453.932 381.75 455.146 381.75 456.719ZM395.391 469C395.224 468.677 395.078 468.151 394.953 467.422C393.745 468.682 392.266 469.312 390.516 469.312C388.818 469.312 387.432 468.828 386.359 467.859C385.286 466.891 384.75 465.693 384.75 464.266C384.75 462.464 385.417 461.083 386.75 460.125C388.094 459.156 390.01 458.672 392.5 458.672H394.828V457.562C394.828 456.688 394.583 455.99 394.094 455.469C393.604 454.938 392.859 454.672 391.859 454.672C390.995 454.672 390.286 454.891 389.734 455.328C389.182 455.755 388.906 456.302 388.906 456.969H385.109C385.109 456.042 385.417 455.177 386.031 454.375C386.646 453.562 387.479 452.927 388.531 452.469C389.594 452.01 390.776 451.781 392.078 451.781C394.057 451.781 395.635 452.281 396.812 453.281C397.99 454.271 398.594 455.667 398.625 457.469V465.094C398.625 466.615 398.839 467.828 399.266 468.734V469H395.391ZM391.219 466.266C391.969 466.266 392.672 466.083 393.328 465.719C393.995 465.354 394.495 464.865 394.828 464.25V461.062H392.781C391.375 461.062 390.318 461.307 389.609 461.797C388.901 462.286 388.547 462.979 388.547 463.875C388.547 464.604 388.786 465.188 389.266 465.625C389.755 466.052 390.406 466.266 391.219 466.266ZM417.516 466.281C418.464 466.281 419.25 466.005 419.875 465.453C420.5 464.901 420.833 464.219 420.875 463.406H424.453C424.411 464.458 424.083 465.443 423.469 466.359C422.854 467.266 422.021 467.984 420.969 468.516C419.917 469.047 418.781 469.312 417.562 469.312C415.198 469.312 413.323 468.547 411.938 467.016C410.552 465.484 409.859 463.37 409.859 460.672V460.281C409.859 457.708 410.547 455.651 411.922 454.109C413.297 452.557 415.172 451.781 417.547 451.781C419.557 451.781 421.193 452.37 422.453 453.547C423.724 454.714 424.391 456.25 424.453 458.156H420.875C420.833 457.188 420.5 456.391 419.875 455.766C419.26 455.141 418.474 454.828 417.516 454.828C416.286 454.828 415.339 455.276 414.672 456.172C414.005 457.057 413.667 458.406 413.656 460.219V460.828C413.656 462.661 413.984 464.031 414.641 464.938C415.307 465.833 416.266 466.281 417.516 466.281ZM437.422 469C437.255 468.677 437.109 468.151 436.984 467.422C435.776 468.682 434.297 469.312 432.547 469.312C430.849 469.312 429.464 468.828 428.391 467.859C427.318 466.891 426.781 465.693 426.781 464.266C426.781 462.464 427.448 461.083 428.781 460.125C430.125 459.156 432.042 458.672 434.531 458.672H436.859V457.562C436.859 456.688 436.615 455.99 436.125 455.469C435.635 454.938 434.891 454.672 433.891 454.672C433.026 454.672 432.318 454.891 431.766 455.328C431.214 455.755 430.938 456.302 430.938 456.969H427.141C427.141 456.042 427.448 455.177 428.062 454.375C428.677 453.562 429.51 452.927 430.562 452.469C431.625 452.01 432.807 451.781 434.109 451.781C436.089 451.781 437.667 452.281 438.844 453.281C440.021 454.271 440.625 455.667 440.656 457.469V465.094C440.656 466.615 440.87 467.828 441.297 468.734V469H437.422ZM433.25 466.266C434 466.266 434.703 466.083 435.359 465.719C436.026 465.354 436.526 464.865 436.859 464.25V461.062H434.812C433.406 461.062 432.349 461.307 431.641 461.797C430.932 462.286 430.578 462.979 430.578 463.875C430.578 464.604 430.818 465.188 431.297 465.625C431.786 466.052 432.438 466.266 433.25 466.266ZM454.672 464.328L459.672 452.094H464.422V469H460.625V457.812L455.969 469H453.391L448.719 457.75V469H444.922V452.094H449.703L454.672 464.328ZM472.781 457.469H476.5C477.885 457.469 479.094 457.708 480.125 458.188C481.156 458.667 481.938 459.339 482.469 460.203C483.01 461.068 483.281 462.073 483.281 463.219C483.281 464.958 482.667 466.354 481.438 467.406C480.208 468.458 478.573 468.99 476.531 469H468.984V452.094H472.781V457.469ZM489.891 469H486.094V452.094H489.891V469ZM472.781 460.516V465.969H476.484C477.411 465.969 478.141 465.74 478.672 465.281C479.214 464.812 479.484 464.151 479.484 463.297C479.484 462.443 479.219 461.771 478.688 461.281C478.167 460.781 477.458 460.526 476.562 460.516H472.781ZM501.891 469.312C499.484 469.312 497.531 468.557 496.031 467.047C494.542 465.526 493.797 463.505 493.797 460.984V460.516C493.797 458.828 494.12 457.323 494.766 456C495.422 454.667 496.339 453.63 497.516 452.891C498.693 452.151 500.005 451.781 501.453 451.781C503.755 451.781 505.531 452.516 506.781 453.984C508.042 455.453 508.672 457.531 508.672 460.219V461.75H497.625C497.74 463.146 498.203 464.25 499.016 465.062C499.839 465.875 500.87 466.281 502.109 466.281C503.849 466.281 505.266 465.578 506.359 464.172L508.406 466.125C507.729 467.135 506.823 467.922 505.688 468.484C504.562 469.036 503.297 469.312 501.891 469.312ZM501.438 454.828C500.396 454.828 499.552 455.193 498.906 455.922C498.271 456.651 497.865 457.667 497.688 458.969H504.922V458.688C504.839 457.417 504.5 456.458 503.906 455.812C503.312 455.156 502.49 454.828 501.438 454.828ZM379.047 507C378.88 506.677 378.734 506.151 378.609 505.422C377.401 506.682 375.922 507.312 374.172 507.312C372.474 507.312 371.089 506.828 370.016 505.859C368.943 504.891 368.406 503.693 368.406 502.266C368.406 500.464 369.073 499.083 370.406 498.125C371.75 497.156 373.667 496.672 376.156 496.672H378.484V495.562C378.484 494.688 378.24 493.99 377.75 493.469C377.26 492.938 376.516 492.672 375.516 492.672C374.651 492.672 373.943 492.891 373.391 493.328C372.839 493.755 372.562 494.302 372.562 494.969H368.766C368.766 494.042 369.073 493.177 369.688 492.375C370.302 491.562 371.135 490.927 372.188 490.469C373.25 490.01 374.432 489.781 375.734 489.781C377.714 489.781 379.292 490.281 380.469 491.281C381.646 492.271 382.25 493.667 382.281 495.469V503.094C382.281 504.615 382.495 505.828 382.922 506.734V507H379.047ZM374.875 504.266C375.625 504.266 376.328 504.083 376.984 503.719C377.651 503.354 378.151 502.865 378.484 502.25V499.062H376.438C375.031 499.062 373.974 499.307 373.266 499.797C372.557 500.286 372.203 500.979 372.203 501.875C372.203 502.604 372.443 503.188 372.922 503.625C373.411 504.052 374.062 504.266 374.875 504.266ZM396.297 502.328L401.297 490.094H406.047V507H402.25V495.812L397.594 507H395.016L390.344 495.75V507H386.547V490.094H391.328L396.297 502.328ZM418.281 491.031C420.406 491.031 422.109 491.745 423.391 493.172C424.672 494.589 425.312 496.516 425.312 498.953V499.141C425.312 501.578 424.615 503.552 423.219 505.062C421.833 506.573 419.948 507.328 417.562 507.328C415.24 507.328 413.365 506.557 411.938 505.016C410.51 503.474 409.797 501.37 409.797 498.703V497.609C409.797 493.964 410.443 491.078 411.734 488.953C413.026 486.828 414.953 485.5 417.516 484.969C418.953 484.677 419.88 484.37 420.297 484.047C420.724 483.714 420.938 483.266 420.938 482.703H424C424 483.755 423.828 484.609 423.484 485.266C423.141 485.922 422.615 486.458 421.906 486.875C421.198 487.281 419.979 487.667 418.25 488.031C416.667 488.365 415.458 488.958 414.625 489.812C413.802 490.667 413.25 491.849 412.969 493.359C414.479 491.807 416.25 491.031 418.281 491.031ZM417.531 494.078C416.302 494.078 415.339 494.495 414.641 495.328C413.943 496.151 413.594 497.422 413.594 499.141C413.594 500.766 413.938 502.031 414.625 502.938C415.312 503.844 416.292 504.297 417.562 504.297C418.823 504.297 419.797 503.844 420.484 502.938C421.182 502.021 421.531 500.646 421.531 498.812C421.531 497.354 421.182 496.203 420.484 495.359C419.797 494.505 418.812 494.078 417.531 494.078ZM438.562 490.094H442.344V507H438.562V495.719L431.938 507H428.156V490.094H431.938V501.375L438.562 490.094ZM446.531 490.094H450.328V503.969H456.922V490.094H460.719V503.969H463.016L462.703 512.016H459.25V507H446.531V490.094ZM476.25 490.094H480.031V507H476.25V495.719L469.625 507H465.844V490.094H469.625V501.375L476.25 490.094ZM483.359 498.391C483.359 496.734 483.688 495.245 484.344 493.922C485 492.589 485.922 491.568 487.109 490.859C488.297 490.141 489.661 489.781 491.203 489.781C493.484 489.781 495.333 490.516 496.75 491.984C498.177 493.453 498.948 495.401 499.062 497.828L499.078 498.719C499.078 500.385 498.755 501.875 498.109 503.188C497.474 504.5 496.557 505.516 495.359 506.234C494.172 506.953 492.797 507.312 491.234 507.312C488.849 507.312 486.938 506.521 485.5 504.938C484.073 503.344 483.359 501.224 483.359 498.578V498.391ZM487.156 498.719C487.156 500.458 487.516 501.823 488.234 502.812C488.953 503.792 489.953 504.281 491.234 504.281C492.516 504.281 493.51 503.781 494.219 502.781C494.938 501.781 495.297 500.318 495.297 498.391C495.297 496.682 494.927 495.328 494.188 494.328C493.458 493.328 492.464 492.828 491.203 492.828C489.964 492.828 488.979 493.323 488.25 494.312C487.521 495.292 487.156 496.76 487.156 498.719ZM515.094 494.719C515.094 495.469 514.865 496.161 514.406 496.797C513.958 497.422 513.323 497.922 512.5 498.297C514.438 498.974 515.406 500.281 515.406 502.219C515.406 503.771 514.776 505.01 513.516 505.938C512.255 506.854 510.568 507.312 508.453 507.312C507.161 507.312 505.984 507.099 504.922 506.672C503.859 506.234 503.031 505.62 502.438 504.828C501.844 504.026 501.547 503.078 501.547 501.984H505.328C505.328 502.672 505.635 503.25 506.25 503.719C506.865 504.177 507.641 504.406 508.578 504.406C509.505 504.406 510.24 504.193 510.781 503.766C511.333 503.328 511.609 502.76 511.609 502.062C511.609 501.24 511.37 500.646 510.891 500.281C510.411 499.917 509.672 499.734 508.672 499.734H505.953V497H508.766C510.464 496.979 511.312 496.281 511.312 494.906C511.312 494.219 511.068 493.682 510.578 493.297C510.089 492.911 509.417 492.719 508.562 492.719C507.729 492.719 507.026 492.927 506.453 493.344C505.88 493.75 505.594 494.266 505.594 494.891H501.812C501.812 493.401 502.438 492.182 503.688 491.234C504.938 490.276 506.526 489.797 508.453 489.797C510.547 489.797 512.177 490.224 513.344 491.078C514.51 491.932 515.094 493.146 515.094 494.719ZM532.953 507H529.156V500.172H522.578V507H518.781V490.094H522.578V497.141H529.156V490.094H532.953V507ZM541.094 495.469H544.812C546.198 495.469 547.406 495.708 548.438 496.188C549.469 496.667 550.25 497.339 550.781 498.203C551.323 499.068 551.594 500.073 551.594 501.219C551.594 502.958 550.979 504.354 549.75 505.406C548.521 506.458 546.885 506.99 544.844 507H537.297V490.094H541.094V495.469ZM558.203 507H554.406V490.094H558.203V507ZM541.094 498.516V503.969H544.797C545.724 503.969 546.453 503.74 546.984 503.281C547.526 502.812 547.797 502.151 547.797 501.297C547.797 500.443 547.531 499.771 547 499.281C546.479 498.781 545.771 498.526 544.875 498.516H541.094ZM570.203 507.312C567.797 507.312 565.844 506.557 564.344 505.047C562.854 503.526 562.109 501.505 562.109 498.984V498.516C562.109 496.828 562.432 495.323 563.078 494C563.734 492.667 564.651 491.63 565.828 490.891C567.005 490.151 568.318 489.781 569.766 489.781C572.068 489.781 573.844 490.516 575.094 491.984C576.354 493.453 576.984 495.531 576.984 498.219V499.75H565.938C566.052 501.146 566.516 502.25 567.328 503.062C568.151 503.875 569.182 504.281 570.422 504.281C572.161 504.281 573.578 503.578 574.672 502.172L576.719 504.125C576.042 505.135 575.135 505.922 574 506.484C572.875 507.036 571.609 507.312 570.203 507.312ZM569.75 492.828C568.708 492.828 567.865 493.193 567.219 493.922C566.583 494.651 566.177 495.667 566 496.969H573.234V496.688C573.151 495.417 572.812 494.458 572.219 493.812C571.625 493.156 570.802 492.828 569.75 492.828ZM383.281 545H379.484V531.156H372.891V545H369.094V528.094H383.281V545ZM402.125 536.719C402.125 539.333 401.531 541.422 400.344 542.984C399.156 544.536 397.562 545.312 395.562 545.312C393.708 545.312 392.224 544.703 391.109 543.484V551.5H387.312V528.094H390.812L390.969 529.812C392.083 528.458 393.599 527.781 395.516 527.781C397.578 527.781 399.193 528.552 400.359 530.094C401.536 531.625 402.125 533.755 402.125 536.484V536.719ZM398.344 536.391C398.344 534.703 398.005 533.365 397.328 532.375C396.661 531.385 395.703 530.891 394.453 530.891C392.901 530.891 391.786 531.531 391.109 532.812V540.312C391.797 541.625 392.922 542.281 394.484 542.281C395.693 542.281 396.635 541.797 397.312 540.828C398 539.849 398.344 538.37 398.344 536.391ZM404.641 536.391C404.641 534.734 404.969 533.245 405.625 531.922C406.281 530.589 407.203 529.568 408.391 528.859C409.578 528.141 410.943 527.781 412.484 527.781C414.766 527.781 416.615 528.516 418.031 529.984C419.458 531.453 420.229 533.401 420.344 535.828L420.359 536.719C420.359 538.385 420.036 539.875 419.391 541.188C418.755 542.5 417.839 543.516 416.641 544.234C415.453 544.953 414.078 545.312 412.516 545.312C410.13 545.312 408.219 544.521 406.781 542.938C405.354 541.344 404.641 539.224 404.641 536.578V536.391ZM408.438 536.719C408.438 538.458 408.797 539.823 409.516 540.812C410.234 541.792 411.234 542.281 412.516 542.281C413.797 542.281 414.792 541.781 415.5 540.781C416.219 539.781 416.578 538.318 416.578 536.391C416.578 534.682 416.208 533.328 415.469 532.328C414.74 531.328 413.745 530.828 412.484 530.828C411.245 530.828 410.26 531.323 409.531 532.312C408.802 533.292 408.438 534.76 408.438 536.719ZM431.016 545.312C428.609 545.312 426.656 544.557 425.156 543.047C423.667 541.526 422.922 539.505 422.922 536.984V536.516C422.922 534.828 423.245 533.323 423.891 532C424.547 530.667 425.464 529.63 426.641 528.891C427.818 528.151 429.13 527.781 430.578 527.781C432.88 527.781 434.656 528.516 435.906 529.984C437.167 531.453 437.797 533.531 437.797 536.219V537.75H426.75C426.865 539.146 427.328 540.25 428.141 541.062C428.964 541.875 429.995 542.281 431.234 542.281C432.974 542.281 434.391 541.578 435.484 540.172L437.531 542.125C436.854 543.135 435.948 543.922 434.812 544.484C433.688 545.036 432.422 545.312 431.016 545.312ZM430.562 530.828C429.521 530.828 428.677 531.193 428.031 531.922C427.396 532.651 426.99 533.667 426.812 534.969H434.047V534.688C433.964 533.417 433.625 532.458 433.031 531.812C432.438 531.156 431.615 530.828 430.562 530.828ZM446.766 538.312H444.844V545H441.047V528.094H444.844V534.844H446.516L451.188 528.094H455.875L449.766 536.188L456.391 545H451.453L446.766 538.312ZM471.781 531.109H466.297V545H462.5V531.109H457.078V528.094H471.781V531.109ZM478.406 533.469H482.125C483.51 533.469 484.719 533.708 485.75 534.188C486.781 534.667 487.562 535.339 488.094 536.203C488.635 537.068 488.906 538.073 488.906 539.219C488.906 540.958 488.292 542.354 487.062 543.406C485.833 544.458 484.198 544.99 482.156 545H474.609V528.094H478.406V533.469ZM495.516 545H491.719V528.094H495.516V545ZM478.406 536.516V541.969H482.109C483.036 541.969 483.766 541.74 484.297 541.281C484.839 540.812 485.109 540.151 485.109 539.297C485.109 538.443 484.844 537.771 484.312 537.281C483.792 536.781 483.083 536.526 482.188 536.516H478.406Z" fill="black"/>
<path d="M371.503 583.924V590H368.662V573.648H374.917C376.744 573.648 378.193 574.124 379.264 575.075C380.342 576.026 380.881 577.283 380.881 578.848C380.881 580.45 380.353 581.697 379.297 582.588C378.249 583.479 376.778 583.924 374.884 583.924H371.503ZM371.503 581.645H374.917C375.928 581.645 376.699 581.409 377.231 580.937C377.763 580.458 378.028 579.769 378.028 578.871C378.028 577.987 377.759 577.283 377.22 576.759C376.681 576.228 375.939 575.954 374.996 575.939H371.503V581.645ZM388.304 590.225C386.575 590.225 385.171 589.682 384.093 588.596C383.022 587.503 382.487 586.051 382.487 584.239V583.902C382.487 582.689 382.719 581.607 383.183 580.656C383.655 579.698 384.314 578.953 385.16 578.421C386.006 577.89 386.949 577.624 387.99 577.624C389.644 577.624 390.921 578.152 391.819 579.208C392.725 580.263 393.178 581.757 393.178 583.688V584.789H385.238C385.321 585.792 385.654 586.586 386.238 587.17C386.829 587.754 387.57 588.046 388.461 588.046C389.712 588.046 390.73 587.541 391.516 586.53L392.987 587.934C392.501 588.66 391.849 589.225 391.033 589.629C390.225 590.026 389.315 590.225 388.304 590.225ZM387.979 579.814C387.23 579.814 386.623 580.076 386.159 580.6C385.702 581.124 385.41 581.854 385.283 582.79H390.483V582.588C390.423 581.674 390.18 580.986 389.753 580.521C389.326 580.05 388.735 579.814 387.979 579.814ZM405.61 590H402.881V580.05H398.142V590H395.413V577.849H405.61V590ZM412.764 586.092L415.235 577.849H418.144L413.314 591.842C412.573 593.886 411.315 594.908 409.541 594.908C409.144 594.908 408.706 594.84 408.227 594.706V592.594L408.744 592.628C409.432 592.628 409.949 592.501 410.293 592.246C410.645 591.999 410.922 591.58 411.125 590.988L411.518 589.944L407.25 577.849H410.192L412.764 586.092ZM429.284 580.016H425.342V590H422.613V580.016H418.716V577.849H429.284V580.016ZM438.19 590C438.07 589.768 437.965 589.39 437.875 588.866C437.007 589.772 435.944 590.225 434.686 590.225C433.466 590.225 432.47 589.876 431.699 589.18C430.928 588.484 430.542 587.623 430.542 586.597C430.542 585.302 431.021 584.31 431.979 583.621C432.945 582.925 434.323 582.577 436.112 582.577H437.786V581.779C437.786 581.15 437.61 580.649 437.258 580.274C436.906 579.893 436.371 579.702 435.652 579.702C435.03 579.702 434.521 579.859 434.125 580.173C433.728 580.48 433.529 580.873 433.529 581.353H430.8C430.8 580.686 431.021 580.065 431.463 579.488C431.905 578.904 432.504 578.448 433.26 578.118C434.023 577.789 434.873 577.624 435.809 577.624C437.232 577.624 438.366 577.983 439.212 578.702C440.058 579.413 440.492 580.417 440.515 581.712V587.192C440.515 588.285 440.668 589.158 440.975 589.809V590H438.19ZM435.191 588.035C435.73 588.035 436.236 587.904 436.708 587.642C437.187 587.38 437.546 587.028 437.786 586.586V584.295H436.314C435.304 584.295 434.544 584.471 434.035 584.823C433.526 585.175 433.271 585.673 433.271 586.316C433.271 586.84 433.443 587.26 433.788 587.574C434.139 587.881 434.607 588.035 435.191 588.035ZM443.479 577.849H446.208V587.821H450.948V577.849H453.677V587.821H455.328L455.103 593.605H452.621V590H443.479V577.849ZM464.84 577.849H467.558V590H464.84V581.892L460.078 590H457.36V577.849H460.078V585.957L464.84 577.849ZM480.192 577.849V590H477.474V585.542H474.925L472.331 590H469.5L472.364 585.092C471.616 584.778 471.039 584.329 470.635 583.745C470.238 583.161 470.04 582.491 470.04 581.734C470.04 580.604 470.474 579.679 471.342 578.96C472.218 578.234 473.397 577.864 474.88 577.849H480.192ZM472.769 581.802C472.769 582.311 472.956 582.726 473.33 583.048C473.712 583.363 474.199 583.52 474.79 583.52H477.474V580.016H474.958C474.292 580.016 473.761 580.185 473.364 580.521C472.967 580.858 472.769 581.285 472.769 581.802ZM500.744 583.026H489.311V580.825H500.744V583.026ZM519.813 590H517.084V585.092H512.356V590H509.627V577.849H512.356V582.914H517.084V577.849H519.813V590ZM529.988 590C529.868 589.768 529.763 589.39 529.673 588.866C528.805 589.772 527.742 590.225 526.484 590.225C525.264 590.225 524.268 589.876 523.497 589.18C522.725 588.484 522.34 587.623 522.34 586.597C522.34 585.302 522.819 584.31 523.777 583.621C524.743 582.925 526.121 582.577 527.91 582.577H529.583V581.779C529.583 581.15 529.408 580.649 529.056 580.274C528.704 579.893 528.168 579.702 527.45 579.702C526.828 579.702 526.319 579.859 525.922 580.173C525.526 580.48 525.327 580.873 525.327 581.353H522.598C522.598 580.686 522.819 580.065 523.261 579.488C523.702 578.904 524.301 578.448 525.058 578.118C525.821 577.789 526.671 577.624 527.607 577.624C529.029 577.624 530.164 577.983 531.01 578.702C531.856 579.413 532.29 580.417 532.312 581.712V587.192C532.312 588.285 532.466 589.158 532.773 589.809V590H529.988ZM526.989 588.035C527.528 588.035 528.034 587.904 528.505 587.642C528.985 587.38 529.344 587.028 529.583 586.586V584.295H528.112C527.102 584.295 526.342 584.471 525.833 584.823C525.323 585.175 525.069 585.673 525.069 586.316C525.069 586.84 525.241 587.26 525.585 587.574C525.937 587.881 526.405 588.035 526.989 588.035ZM538.006 577.849V587.821H541.802V577.849H544.531V587.821H548.338V577.849H551.056V590H535.277V577.849H538.006ZM561.276 590C561.156 589.768 561.051 589.39 560.961 588.866C560.093 589.772 559.03 590.225 557.772 590.225C556.552 590.225 555.556 589.876 554.785 589.18C554.014 588.484 553.628 587.623 553.628 586.597C553.628 585.302 554.107 584.31 555.065 583.621C556.031 582.925 557.409 582.577 559.198 582.577H560.872V581.779C560.872 581.15 560.696 580.649 560.344 580.274C559.992 579.893 559.457 579.702 558.738 579.702C558.116 579.702 557.607 579.859 557.21 580.173C556.814 580.48 556.615 580.873 556.615 581.353H553.886C553.886 580.686 554.107 580.065 554.549 579.488C554.991 578.904 555.59 578.448 556.346 578.118C557.109 577.789 557.959 577.624 558.895 577.624C560.318 577.624 561.452 577.983 562.298 578.702C563.144 579.413 563.578 580.417 563.601 581.712V587.192C563.601 588.285 563.754 589.158 564.061 589.809V590H561.276ZM558.277 588.035C558.816 588.035 559.322 587.904 559.793 587.642C560.273 587.38 560.632 587.028 560.872 586.586V584.295H559.4C558.39 584.295 557.63 584.471 557.121 584.823C556.611 585.175 556.357 585.673 556.357 586.316C556.357 586.84 556.529 587.26 556.874 587.574C557.225 587.881 557.693 588.035 558.277 588.035ZM367.887 610.812C367.887 609.622 368.123 608.551 368.595 607.6C369.066 606.642 369.729 605.908 370.583 605.399C371.436 604.882 372.417 604.624 373.525 604.624C375.165 604.624 376.493 605.152 377.512 606.208C378.537 607.263 379.091 608.663 379.174 610.408L379.185 611.048C379.185 612.246 378.953 613.316 378.489 614.26C378.032 615.203 377.373 615.933 376.512 616.45C375.659 616.966 374.67 617.225 373.547 617.225C371.833 617.225 370.459 616.656 369.426 615.518C368.4 614.372 367.887 612.848 367.887 610.947V610.812ZM370.616 611.048C370.616 612.298 370.875 613.279 371.391 613.99C371.908 614.694 372.626 615.046 373.547 615.046C374.468 615.046 375.183 614.687 375.692 613.968C376.209 613.249 376.467 612.197 376.467 610.812C376.467 609.584 376.201 608.611 375.67 607.892C375.146 607.173 374.431 606.814 373.525 606.814C372.634 606.814 371.926 607.17 371.402 607.881C370.878 608.585 370.616 609.64 370.616 611.048ZM386.485 615.046C387.166 615.046 387.731 614.847 388.181 614.451C388.63 614.054 388.869 613.563 388.899 612.979H391.471C391.441 613.736 391.205 614.443 390.764 615.102C390.322 615.753 389.723 616.27 388.967 616.652C388.211 617.034 387.395 617.225 386.519 617.225C384.819 617.225 383.471 616.674 382.476 615.574C381.48 614.473 380.982 612.953 380.982 611.014V610.733C380.982 608.884 381.476 607.405 382.464 606.297C383.453 605.182 384.8 604.624 386.507 604.624C387.952 604.624 389.128 605.047 390.034 605.893C390.947 606.732 391.426 607.836 391.471 609.206H388.899C388.869 608.51 388.63 607.937 388.181 607.488C387.739 607.039 387.174 606.814 386.485 606.814C385.601 606.814 384.92 607.136 384.441 607.78C383.962 608.416 383.718 609.386 383.711 610.688V611.126C383.711 612.444 383.947 613.429 384.418 614.08C384.898 614.724 385.586 615.046 386.485 615.046ZM403.825 617H401.096V612.092H396.368V617H393.639V604.849H396.368V609.914H401.096V604.849H403.825V617ZM406.228 610.812C406.228 609.622 406.464 608.551 406.936 607.6C407.407 606.642 408.07 605.908 408.923 605.399C409.777 604.882 410.758 604.624 411.866 604.624C413.505 604.624 414.834 605.152 415.853 606.208C416.878 607.263 417.432 608.663 417.515 610.408L417.526 611.048C417.526 612.246 417.294 613.316 416.83 614.26C416.373 615.203 415.714 615.933 414.853 616.45C414 616.966 413.011 617.225 411.888 617.225C410.174 617.225 408.8 616.656 407.767 615.518C406.741 614.372 406.228 612.848 406.228 610.947V610.812ZM408.957 611.048C408.957 612.298 409.215 613.279 409.732 613.99C410.249 614.694 410.967 615.046 411.888 615.046C412.809 615.046 413.524 614.687 414.033 613.968C414.55 613.249 414.808 612.197 414.808 610.812C414.808 609.584 414.542 608.611 414.011 607.892C413.487 607.173 412.772 606.814 411.866 606.814C410.975 606.814 410.267 607.17 409.743 607.881C409.219 608.585 408.957 609.64 408.957 611.048ZM420.042 617V604.849H424.972C426.634 604.849 427.899 605.141 428.768 605.725C429.636 606.301 430.07 607.132 430.07 608.218C430.07 608.779 429.894 609.285 429.542 609.734C429.198 610.176 428.685 610.516 428.004 610.756C428.798 610.921 429.426 611.254 429.891 611.755C430.355 612.257 430.587 612.848 430.587 613.53C430.587 614.66 430.168 615.521 429.329 616.113C428.498 616.704 427.3 617 425.735 617H420.042ZM422.771 611.823V614.844H425.758C427.158 614.844 427.858 614.342 427.858 613.339C427.858 612.328 427.147 611.823 425.724 611.823H422.771ZM422.771 609.869H425.017C426.566 609.869 427.341 609.412 427.341 608.499C427.341 607.54 426.608 607.046 425.14 607.016H422.771V609.869ZM443.244 617H440.515V612.092H435.787V617H433.058V604.849H435.787V609.914H440.515V604.849H443.244V617ZM453.418 617C453.299 616.768 453.194 616.39 453.104 615.866C452.236 616.772 451.172 617.225 449.915 617.225C448.694 617.225 447.698 616.876 446.927 616.18C446.156 615.484 445.771 614.623 445.771 613.597C445.771 612.302 446.25 611.31 447.208 610.621C448.174 609.925 449.551 609.577 451.341 609.577H453.014V608.779C453.014 608.15 452.838 607.649 452.486 607.274C452.134 606.893 451.599 606.702 450.88 606.702C450.259 606.702 449.75 606.859 449.353 607.173C448.956 607.48 448.758 607.873 448.758 608.353H446.029C446.029 607.686 446.25 607.065 446.691 606.488C447.133 605.904 447.732 605.448 448.488 605.118C449.252 604.789 450.102 604.624 451.038 604.624C452.46 604.624 453.594 604.983 454.44 605.702C455.286 606.413 455.721 607.417 455.743 608.712V614.192C455.743 615.285 455.897 616.158 456.204 616.809V617H453.418ZM450.42 615.035C450.959 615.035 451.464 614.904 451.936 614.642C452.415 614.38 452.775 614.028 453.014 613.586V611.295H451.543C450.532 611.295 449.772 611.471 449.263 611.823C448.754 612.175 448.5 612.673 448.5 613.316C448.5 613.84 448.672 614.26 449.016 614.574C449.368 614.881 449.836 615.035 450.42 615.035ZM468.333 604.849V617H465.615V612.542H463.065L460.471 617H457.641L460.505 612.092C459.756 611.778 459.18 611.329 458.775 610.745C458.379 610.161 458.18 609.491 458.18 608.734C458.18 607.604 458.614 606.679 459.483 605.96C460.359 605.234 461.538 604.864 463.021 604.849H468.333ZM460.909 608.802C460.909 609.311 461.096 609.726 461.471 610.048C461.853 610.363 462.339 610.52 462.931 610.52H465.615V607.016H463.099C462.433 607.016 461.901 607.185 461.504 607.521C461.108 607.858 460.909 608.285 460.909 608.802ZM477.193 604.849H479.922V614.821H484.662V604.849H487.391V614.821H489.042L488.817 620.605H486.335V617H477.193V604.849ZM496.319 617.225C494.589 617.225 493.186 616.682 492.107 615.596C491.037 614.503 490.501 613.051 490.501 611.239V610.902C490.501 609.689 490.734 608.607 491.198 607.656C491.669 606.698 492.328 605.953 493.174 605.421C494.02 604.89 494.964 604.624 496.004 604.624C497.659 604.624 498.936 605.152 499.834 606.208C500.74 607.263 501.193 608.757 501.193 610.688V611.789H493.253C493.335 612.792 493.668 613.586 494.252 614.17C494.844 614.754 495.585 615.046 496.476 615.046C497.726 615.046 498.745 614.541 499.531 613.53L501.002 614.934C500.515 615.66 499.864 616.225 499.048 616.629C498.239 617.026 497.33 617.225 496.319 617.225ZM495.993 606.814C495.244 606.814 494.638 607.076 494.174 607.6C493.717 608.124 493.425 608.854 493.298 609.79H498.498V609.588C498.438 608.674 498.194 607.986 497.768 607.521C497.341 607.05 496.749 606.814 495.993 606.814ZM513.614 617H510.885V612.092H506.157V617H503.428V604.849H506.157V609.914H510.885V604.849H513.614V617ZM526.821 617H524.092V612.092H519.364V617H516.635V604.849H519.364V609.914H524.092V604.849H526.821V617ZM529.224 610.812C529.224 609.622 529.46 608.551 529.932 607.6C530.403 606.642 531.066 605.908 531.919 605.399C532.773 604.882 533.754 604.624 534.862 604.624C536.501 604.624 537.83 605.152 538.849 606.208C539.874 607.263 540.428 608.663 540.511 610.408L540.522 611.048C540.522 612.246 540.29 613.316 539.826 614.26C539.369 615.203 538.71 615.933 537.849 616.45C536.996 616.966 536.007 617.225 534.884 617.225C533.17 617.225 531.796 616.656 530.763 615.518C529.737 614.372 529.224 612.848 529.224 610.947V610.812ZM531.953 611.048C531.953 612.298 532.211 613.279 532.728 613.99C533.245 614.694 533.963 615.046 534.884 615.046C535.805 615.046 536.52 614.687 537.029 613.968C537.546 613.249 537.804 612.197 537.804 610.812C537.804 609.584 537.538 608.611 537.007 607.892C536.483 607.173 535.768 606.814 534.862 606.814C533.971 606.814 533.263 607.17 532.739 607.881C532.215 608.585 531.953 609.64 531.953 611.048ZM547.822 615.046C548.503 615.046 549.068 614.847 549.518 614.451C549.967 614.054 550.206 613.563 550.236 612.979H552.808C552.778 613.736 552.542 614.443 552.101 615.102C551.659 615.753 551.06 616.27 550.304 616.652C549.548 617.034 548.731 617.225 547.855 617.225C546.156 617.225 544.808 616.674 543.812 615.574C542.817 614.473 542.319 612.953 542.319 611.014V610.733C542.319 608.884 542.813 607.405 543.801 606.297C544.79 605.182 546.137 604.624 547.844 604.624C549.289 604.624 550.465 605.047 551.371 605.893C552.284 606.732 552.763 607.836 552.808 609.206H550.236C550.206 608.51 549.967 607.937 549.518 607.488C549.076 607.039 548.511 606.814 547.822 606.814C546.938 606.814 546.257 607.136 545.778 607.78C545.299 608.416 545.055 609.386 545.048 610.688V611.126C545.048 612.444 545.284 613.429 545.755 614.08C546.235 614.724 546.923 615.046 547.822 615.046ZM564.432 607.016H560.49V617H557.761V607.016H553.864V604.849H564.432V607.016ZM569.193 608.712H571.866C572.862 608.712 573.73 608.884 574.472 609.229C575.213 609.573 575.774 610.056 576.156 610.677C576.546 611.299 576.74 612.021 576.74 612.845C576.74 614.095 576.299 615.098 575.415 615.854C574.532 616.611 573.356 616.993 571.889 617H566.464V604.849H569.193V608.712ZM569.193 610.902V614.821H571.855C572.521 614.821 573.045 614.657 573.427 614.327C573.817 613.99 574.011 613.515 574.011 612.901C574.011 612.287 573.82 611.804 573.438 611.452C573.064 611.093 572.555 610.909 571.911 610.902H569.193ZM581.816 612.182H579.469L579.211 600.648H582.086L581.816 612.182ZM579.132 615.708C579.132 615.282 579.271 614.93 579.548 614.653C579.825 614.368 580.203 614.226 580.682 614.226C581.161 614.226 581.539 614.368 581.816 614.653C582.093 614.93 582.232 615.282 582.232 615.708C582.232 616.12 582.097 616.465 581.828 616.742C581.558 617.019 581.176 617.157 580.682 617.157C580.188 617.157 579.806 617.019 579.537 616.742C579.267 616.465 579.132 616.12 579.132 615.708Z" fill="black"/>
</svg>
