<svg width="696" height="664" viewBox="0 0 696 664" fill="none" xmlns="http://www.w3.org/2000/svg">
<path d="M534.5 340C534.5 446.311 448.095 532.5 341.5 532.5C234.905 532.5 148.5 446.311 148.5 340C148.5 233.689 234.905 147.5 341.5 147.5C448.095 147.5 534.5 233.689 534.5 340Z" stroke="white" stroke-width="3"/>
<rect x="406.5" y="2.5" width="287" height="287" rx="37.5" fill="#272727" stroke="white" stroke-width="5"/>
<rect x="335" y="372" width="296" height="292" rx="40" fill="#C4C4C4"/>
<rect y="48" width="294" height="292" rx="40" fill="white"/>
<path d="M44.854 130H37.8545L29.2485 112.995V130H23.0522V96.4482H29.2485V112.696L37.9922 96.4482H44.6704L35.4678 112.604L44.854 130ZM66.4033 117.171C66.4033 121.363 65.516 124.63 63.7412 126.971C61.9665 129.296 59.5339 130.459 56.4434 130.459C54.485 130.459 52.7562 129.924 51.2568 128.853C49.7575 127.782 48.6024 126.244 47.7915 124.24C46.9806 122.22 46.5752 119.864 46.5752 117.171C46.5752 113.025 47.4549 109.789 49.2144 107.464C50.9738 105.123 53.4141 103.953 56.5352 103.953C59.5492 103.953 61.9435 105.146 63.7183 107.533C65.5083 109.904 66.4033 113.117 66.4033 117.171ZM52.8174 117.171C52.8174 119.833 53.1081 121.845 53.6895 123.207C54.2708 124.569 55.2041 125.25 56.4893 125.25C58.9372 125.25 60.1611 122.557 60.1611 117.171C60.1611 114.494 59.8628 112.497 59.2661 111.182C58.6847 109.851 57.7591 109.185 56.4893 109.185C55.2041 109.185 54.2708 109.851 53.6895 111.182C53.1081 112.497 52.8174 114.494 52.8174 117.171ZM97.1094 130H91.6475V109.231C91.2038 111.709 90.5765 114.494 89.7656 117.584L86.438 130H81.2515L77.9238 117.539C77.2048 114.861 76.5775 112.092 76.042 109.231V130H70.6948V104.435H79.4844L82.5825 116.368C83.2557 119.03 83.6611 121.509 83.7988 123.804C83.86 123.023 84.0207 121.93 84.2808 120.522C84.5562 119.114 84.8621 117.73 85.1987 116.368L88.3657 104.435H97.1094V130ZM114.757 130L113.541 126.512H113.403C112.501 128.011 111.567 129.044 110.604 129.61C109.64 130.176 108.423 130.459 106.955 130.459C105.073 130.459 103.589 129.755 102.502 128.348C101.431 126.94 100.896 124.982 100.896 122.473C100.896 119.78 101.63 117.783 103.099 116.483C104.583 115.167 106.794 114.44 109.731 114.303L113.128 114.165V112.329C113.128 109.942 112.095 108.749 110.03 108.749C108.5 108.749 106.74 109.346 104.751 110.539L102.64 106.316C105.18 104.71 107.941 103.907 110.925 103.907C113.633 103.907 115.691 104.687 117.098 106.248C118.521 107.793 119.232 109.988 119.232 112.834V130H114.757ZM109.456 125.686C110.573 125.686 111.46 125.188 112.118 124.194C112.791 123.184 113.128 121.845 113.128 120.178V118.021L111.246 118.112C109.854 118.189 108.829 118.587 108.171 119.306C107.528 120.025 107.207 121.096 107.207 122.519C107.207 124.63 107.957 125.686 109.456 125.686ZM130.271 104.435V114.395H137.179V104.435H143.329V130H137.179V119.283H130.271V130H124.167V104.435H130.271ZM160.839 125.204V109.277H157.833C157.252 115.886 156.142 121.195 154.505 125.204H160.839ZM170.34 139.111H164.282V130H152.624V139.111H146.565V125.204H148.103C149.326 122.74 150.298 119.726 151.017 116.162C151.736 112.597 152.195 108.688 152.394 104.435H167.013V125.204H170.34V139.111ZM179.704 104.435V114.395H186.611V104.435H192.762V130H186.611V119.283H179.704V130H173.599V104.435H179.704ZM210.456 130L209.239 126.512H209.102C208.199 128.011 207.266 129.044 206.302 129.61C205.338 130.176 204.122 130.459 202.653 130.459C200.771 130.459 199.287 129.755 198.201 128.348C197.13 126.94 196.594 124.982 196.594 122.473C196.594 119.78 197.329 117.783 198.797 116.483C200.281 115.167 202.492 114.44 205.43 114.303L208.826 114.165V112.329C208.826 109.942 207.793 108.749 205.728 108.749C204.198 108.749 202.439 109.346 200.45 110.539L198.338 106.316C200.878 104.71 203.64 103.907 206.623 103.907C209.331 103.907 211.389 104.687 212.796 106.248C214.219 107.793 214.931 109.988 214.931 112.834V130H210.456ZM205.154 125.686C206.271 125.686 207.159 125.188 207.816 124.194C208.49 123.184 208.826 121.845 208.826 120.178V118.021L206.944 118.112C205.552 118.189 204.527 118.587 203.869 119.306C203.227 120.025 202.905 121.096 202.905 122.519C202.905 124.63 203.655 125.686 205.154 125.686ZM224.317 130H217.409L223.766 119.512C220.691 118.288 219.153 115.909 219.153 112.375C219.153 109.881 219.979 107.938 221.632 106.546C223.299 105.138 225.587 104.435 228.494 104.435H237.903V130H231.798V120.361H229.595L224.317 130ZM225.35 112.421C225.35 114.716 226.619 115.863 229.159 115.863H231.798V109.001H228.654C226.451 109.001 225.35 110.141 225.35 112.421ZM33.999 194.459C32.8975 194.459 31.9183 194.214 31.0615 193.725C30.2201 193.22 29.4321 192.34 28.6978 191.085H28.3765C28.6213 193.166 28.7437 194.421 28.7437 194.849V205.291H22.5933V168.435H27.3208L28.3765 171.762H28.6519C29.9217 169.222 31.7653 167.953 34.1826 167.953C36.5081 167.953 38.3288 169.108 39.6445 171.418C40.9603 173.713 41.6182 176.964 41.6182 181.171C41.6182 185.318 40.9373 188.569 39.5757 190.925C38.214 193.281 36.3551 194.459 33.999 194.459ZM32.1172 173.139C30.9238 173.139 30.0594 173.698 29.5239 174.814C29.0037 175.916 28.7284 177.752 28.6978 180.322V181.125C28.6978 183.941 28.9655 185.991 29.501 187.276C30.0365 188.561 30.9238 189.204 32.1631 189.204C34.305 189.204 35.376 186.496 35.376 181.08C35.376 178.417 35.1082 176.429 34.5728 175.113C34.0526 173.797 33.234 173.139 32.1172 173.139ZM58.4399 194L57.2236 190.512H57.0859C56.1833 192.011 55.25 193.044 54.2861 193.61C53.3223 194.176 52.106 194.459 50.6372 194.459C48.7554 194.459 47.2713 193.755 46.1851 192.348C45.1141 190.94 44.5786 188.982 44.5786 186.473C44.5786 183.78 45.313 181.783 46.7817 180.483C48.2658 179.167 50.4766 178.44 53.4141 178.303L56.8105 178.165V176.329C56.8105 173.942 55.7778 172.749 53.7124 172.749C52.1825 172.749 50.423 173.346 48.4341 174.539L46.3228 170.316C48.8625 168.71 51.624 167.907 54.6074 167.907C57.3154 167.907 59.3732 168.687 60.7808 170.248C62.2036 171.793 62.915 173.988 62.915 176.834V194H58.4399ZM53.1387 189.686C54.2555 189.686 55.1429 189.188 55.8008 188.194C56.474 187.184 56.8105 185.845 56.8105 184.178V182.021L54.9287 182.112C53.5365 182.189 52.5114 182.587 51.8535 183.306C51.2109 184.025 50.8896 185.096 50.8896 186.519C50.8896 188.63 51.6393 189.686 53.1387 189.686ZM66.9541 179.198C66.9541 173.384 67.7803 168.947 69.4326 165.887C71.1003 162.827 73.8159 160.747 77.5796 159.645C79.5379 159.094 82.3683 158.559 86.0708 158.039L86.7822 163.409L82.7202 164.051C80.1346 164.48 78.1992 165.038 76.9141 165.727C75.6442 166.4 74.688 167.41 74.0454 168.756C73.4181 170.087 73.0433 171.862 72.9209 174.08H73.1045C73.8236 172.795 74.6956 171.823 75.7207 171.166C76.7458 170.508 77.8626 170.179 79.0713 170.179C81.5192 170.179 83.4163 171.166 84.7627 173.139C86.109 175.113 86.7822 177.867 86.7822 181.401C86.7822 185.501 85.9102 188.706 84.166 191.017C82.4219 193.312 79.9893 194.459 76.8682 194.459C73.6859 194.459 71.238 193.136 69.5244 190.489C67.8109 187.842 66.9541 184.078 66.9541 179.198ZM77.0977 189.25C79.3926 189.25 80.54 186.84 80.54 182.021C80.54 177.354 79.4997 175.021 77.4189 175.021C76.5163 175.021 75.6748 175.388 74.8945 176.123C74.1143 176.842 73.5482 177.76 73.1963 178.876C73.1963 185.792 74.4967 189.25 77.0977 189.25ZM110.007 181.171C110.007 185.363 109.119 188.63 107.345 190.971C105.57 193.296 103.137 194.459 100.047 194.459C98.0885 194.459 96.3597 193.924 94.8604 192.853C93.361 191.782 92.2059 190.244 91.395 188.24C90.5841 186.22 90.1787 183.864 90.1787 181.171C90.1787 177.025 91.0584 173.789 92.8179 171.464C94.5773 169.123 97.0176 167.953 100.139 167.953C103.153 167.953 105.547 169.146 107.322 171.533C109.112 173.904 110.007 177.117 110.007 181.171ZM96.4209 181.171C96.4209 183.833 96.7116 185.845 97.293 187.207C97.8743 188.569 98.8076 189.25 100.093 189.25C102.541 189.25 103.765 186.557 103.765 181.171C103.765 178.494 103.466 176.497 102.87 175.182C102.288 173.851 101.363 173.185 100.093 173.185C98.8076 173.185 97.8743 173.851 97.293 175.182C96.7116 176.497 96.4209 178.494 96.4209 181.171ZM129.628 168.435V173.369H123.937V194H117.833V173.369H112.141V168.435H129.628ZM144.867 194L143.65 190.512H143.513C142.61 192.011 141.677 193.044 140.713 193.61C139.749 194.176 138.533 194.459 137.064 194.459C135.182 194.459 133.698 193.755 132.612 192.348C131.541 190.94 131.005 188.982 131.005 186.473C131.005 183.78 131.74 181.783 133.208 180.483C134.693 179.167 136.903 178.44 139.841 178.303L143.237 178.165V176.329C143.237 173.942 142.205 172.749 140.139 172.749C138.609 172.749 136.85 173.346 134.861 174.539L132.75 170.316C135.289 168.71 138.051 167.907 141.034 167.907C143.742 167.907 145.8 168.687 147.208 170.248C148.63 171.793 149.342 173.988 149.342 176.834V194H144.867ZM139.565 189.686C140.682 189.686 141.57 189.188 142.228 188.194C142.901 187.184 143.237 185.845 143.237 184.178V182.021L141.355 182.112C139.963 182.189 138.938 182.587 138.28 183.306C137.638 184.025 137.316 185.096 137.316 186.519C137.316 188.63 138.066 189.686 139.565 189.686Z" fill="black"/>
<path d="M457.169 139.036C455.687 139.036 454.077 139.65 452.34 140.878L450.273 135.914C451.352 135.21 452.445 134.656 453.553 134.252C454.676 133.848 455.941 133.646 457.349 133.646C461.017 133.646 463.847 135.105 465.839 138.025C467.845 140.93 468.849 145.056 468.849 150.401C468.849 155.747 467.83 159.925 465.794 162.935C463.772 165.944 460.912 167.449 457.214 167.449C454.683 167.449 452.632 166.918 451.06 165.854V160.419C452.931 161.527 454.833 162.081 456.765 162.081C460.254 162.081 462.17 159.041 462.515 152.962H453.912V147.684H462.47C462.08 141.919 460.313 139.036 457.169 139.036ZM479.248 141.979V151.727H486.009V141.979H492.028V167H486.009V156.511H479.248V167H473.273V141.979H479.248ZM512.49 141.979V146.808H506.92V167H500.945V146.808H495.375V141.979H512.49ZM513.321 141.979H519.521L522.979 156.106C523.324 157.364 523.601 159.124 523.811 161.385H523.945C523.96 161.025 524.028 160.389 524.147 159.476C524.267 158.547 524.365 157.821 524.439 157.297C524.514 156.773 525.548 151.667 527.539 141.979H533.828L526.663 168.797C525.795 172.091 524.642 174.457 523.204 175.895C521.767 177.332 519.85 178.051 517.454 178.051C516.271 178.051 515.215 177.924 514.287 177.669V172.66C514.901 172.84 515.59 172.93 516.354 172.93C518.36 172.93 519.678 171.612 520.307 168.977L520.733 167.404L513.321 141.979ZM541.487 151.727C542.85 151.727 543.861 151.509 544.52 151.075C545.193 150.641 545.53 149.892 545.53 148.829C545.53 147.107 544.385 146.246 542.094 146.246C541.285 146.246 540.536 146.366 539.848 146.605C539.159 146.83 538.418 147.189 537.624 147.684L535.468 143.349C537.549 142.121 539.863 141.507 542.408 141.507C545.059 141.507 547.17 142.098 548.742 143.281C550.314 144.464 551.101 146.081 551.101 148.133C551.101 150.993 549.521 152.865 546.361 153.748V153.928C548.098 154.332 549.424 155.073 550.337 156.151C551.25 157.229 551.707 158.607 551.707 160.284C551.707 162.5 550.861 164.252 549.169 165.54C547.492 166.813 545.163 167.449 542.184 167.449C540.806 167.449 539.488 167.299 538.23 167C536.988 166.686 535.939 166.289 535.086 165.81V160.801C537.167 161.954 539.346 162.53 541.622 162.53C544.347 162.53 545.71 161.52 545.71 159.498C545.71 158.42 545.381 157.604 544.722 157.05C544.078 156.481 543 156.196 541.487 156.196H539.039V151.727H541.487ZM561.343 141.979V153.568C561.343 155.006 561.163 157.394 560.804 160.733L568.935 141.979H576.257V167H570.687V155.23C570.687 153.464 570.859 151.083 571.203 148.088L563.05 167H555.795V141.979H561.343ZM593.619 167L592.429 163.586H592.294C591.41 165.053 590.497 166.064 589.554 166.618C588.61 167.172 587.42 167.449 585.982 167.449C584.141 167.449 582.688 166.76 581.625 165.383C580.577 164.005 580.053 162.089 580.053 159.633C580.053 156.997 580.771 155.043 582.209 153.771C583.661 152.483 585.825 151.771 588.7 151.637L592.024 151.502V149.705C592.024 147.369 591.014 146.201 588.992 146.201C587.495 146.201 585.773 146.785 583.826 147.953L581.76 143.82C584.245 142.248 586.948 141.462 589.868 141.462C592.519 141.462 594.533 142.226 595.91 143.753C597.303 145.265 597.999 147.414 597.999 150.199V167H593.619ZM588.431 162.777C589.524 162.777 590.392 162.291 591.036 161.317C591.695 160.329 592.024 159.019 592.024 157.387V155.275L590.183 155.365C588.82 155.44 587.817 155.829 587.173 156.533C586.544 157.237 586.229 158.285 586.229 159.678C586.229 161.744 586.963 162.777 588.431 162.777ZM607.927 151.727C609.289 151.727 610.3 151.509 610.959 151.075C611.633 150.641 611.97 149.892 611.97 148.829C611.97 147.107 610.824 146.246 608.533 146.246C607.725 146.246 606.976 146.366 606.287 146.605C605.598 146.83 604.857 147.189 604.063 147.684L601.907 143.349C603.989 142.121 606.302 141.507 608.848 141.507C611.498 141.507 613.609 142.098 615.182 143.281C616.754 144.464 617.54 146.081 617.54 148.133C617.54 150.993 615.96 152.865 612.801 153.748V153.928C614.538 154.332 615.863 155.073 616.776 156.151C617.69 157.229 618.146 158.607 618.146 160.284C618.146 162.5 617.3 164.252 615.608 165.54C613.931 166.813 611.603 167.449 608.623 167.449C607.245 167.449 605.928 167.299 604.67 167C603.427 166.686 602.379 166.289 601.525 165.81V160.801C603.607 161.954 605.785 162.53 608.062 162.53C610.787 162.53 612.149 161.52 612.149 159.498C612.149 158.42 611.82 157.604 611.161 157.05C610.517 156.481 609.439 156.196 607.927 156.196H605.479V151.727H607.927ZM648.087 167H642.741V146.673C642.307 149.099 641.693 151.824 640.899 154.849L637.643 167H632.566L629.31 154.804C628.606 152.183 627.992 149.473 627.468 146.673V167H622.234V141.979H630.837L633.869 153.658C634.528 156.264 634.925 158.689 635.06 160.936C635.119 160.172 635.277 159.101 635.531 157.724C635.801 156.346 636.1 154.991 636.43 153.658L639.529 141.979H648.087V167Z" fill="white"/>
<path d="M36.5898 239.428H38.4541V246.694H35.4893V242H26.4487V225.581H29.5034V239.305H33.5352V225.581H36.5898V239.428ZM44.6982 242.225C43.1335 242.225 41.8981 241.671 40.9922 240.562C40.0938 239.447 39.6445 237.871 39.6445 235.834C39.6445 233.768 40.0526 232.155 40.8687 230.994C41.6847 229.834 42.8228 229.253 44.2827 229.253C45.6453 229.253 46.7197 229.751 47.5059 230.747C48.292 231.735 48.6851 233.124 48.6851 234.914V236.508H42.6768C42.6992 237.624 42.9276 238.455 43.3618 239.001C43.7961 239.541 44.395 239.81 45.1587 239.81C46.132 239.81 47.1278 239.507 48.146 238.9V241.36C47.1877 241.936 46.0384 242.225 44.6982 242.225ZM44.2603 231.556C43.8335 231.556 43.4816 231.784 43.2046 232.241C42.9276 232.69 42.7666 233.39 42.7217 234.341H45.7539C45.7389 233.427 45.6004 232.735 45.3384 232.263C45.0763 231.792 44.717 231.556 44.2603 231.556ZM53.6489 229.489V234.363H57.0293V229.489H60.0391V242H57.0293V236.755H53.6489V242H50.6616V229.489H53.6489ZM65.3398 229.489V235.284C65.3398 236.003 65.25 237.197 65.0703 238.867L69.1357 229.489H72.7969V242H70.0117V236.115C70.0117 235.232 70.0978 234.041 70.27 232.544L66.1934 242H62.5659V229.489H65.3398ZM83.0503 229.489V231.904H80.2651V242H77.2778V231.904H74.4927V229.489H83.0503ZM87.7222 234.386H88.7778C90.4474 234.386 91.6753 234.689 92.4614 235.295C93.255 235.902 93.6519 236.819 93.6519 238.047C93.6519 240.682 91.9972 242 88.688 242H84.7349V229.489H87.7222V234.386ZM90.5747 238.114C90.5747 237.583 90.4137 237.201 90.0918 236.969C89.7773 236.737 89.272 236.621 88.5757 236.621H87.7222V239.765H88.6206C89.242 239.765 89.7212 239.642 90.0581 239.395C90.4025 239.14 90.5747 238.713 90.5747 238.114ZM110.206 232.735C110.206 233.439 109.996 234.026 109.577 234.498C109.165 234.962 108.562 235.262 107.769 235.396V235.486C108.645 235.599 109.33 235.902 109.824 236.396C110.325 236.883 110.576 237.515 110.576 238.294C110.576 239.492 110.153 240.409 109.307 241.045C108.461 241.682 107.252 242 105.68 242H101.289V229.489H105.657C108.689 229.489 110.206 230.571 110.206 232.735ZM107.477 238.114C107.477 237.583 107.304 237.201 106.96 236.969C106.616 236.737 106.095 236.621 105.399 236.621H104.276V239.765H105.444C106.799 239.765 107.477 239.215 107.477 238.114ZM107.151 233.004C107.151 232.181 106.604 231.769 105.511 231.769H104.276V234.408H105.174C105.833 234.408 106.327 234.303 106.657 234.094C106.986 233.877 107.151 233.514 107.151 233.004ZM118.617 229.489H121.762L118.336 235.419L121.975 242H118.685L115.417 235.565V242H112.429V229.489H115.417V235.464L118.617 229.489ZM132.341 242H129.342V231.904H127.669C127.519 234.442 127.276 236.456 126.939 237.946C126.61 239.436 126.164 240.518 125.603 241.191C125.049 241.865 124.311 242.202 123.39 242.202C122.829 242.202 122.368 242.12 122.009 241.955V239.496C122.233 239.57 122.462 239.608 122.694 239.608C123.323 239.608 123.813 238.807 124.165 237.205C124.517 235.595 124.786 233.023 124.974 229.489H132.341V242ZM141 242L140.404 240.293H140.337C139.895 241.027 139.438 241.532 138.967 241.809C138.495 242.086 137.9 242.225 137.181 242.225C136.26 242.225 135.534 241.88 135.002 241.191C134.478 240.503 134.216 239.544 134.216 238.316C134.216 236.999 134.576 236.022 135.294 235.385C136.021 234.741 137.103 234.386 138.54 234.318L140.202 234.251V233.353C140.202 232.185 139.697 231.601 138.686 231.601C137.937 231.601 137.076 231.893 136.103 232.477L135.07 230.41C136.313 229.624 137.664 229.231 139.124 229.231C140.449 229.231 141.456 229.613 142.145 230.376C142.841 231.133 143.189 232.207 143.189 233.6V242H141ZM138.405 239.889C138.952 239.889 139.386 239.645 139.708 239.159C140.037 238.665 140.202 238.009 140.202 237.193V236.138L139.281 236.183C138.6 236.22 138.098 236.415 137.776 236.767C137.462 237.118 137.305 237.643 137.305 238.339C137.305 239.372 137.672 239.889 138.405 239.889ZM151.646 239.653V231.859H150.175C149.89 235.093 149.347 237.691 148.546 239.653H151.646ZM156.295 246.458H153.331V242H147.625V246.458H144.661V239.653H145.413C146.012 238.447 146.487 236.972 146.839 235.228C147.191 233.484 147.416 231.571 147.513 229.489H154.667V239.653H156.295V246.458ZM169.761 229.489H172.905L169.48 235.419L173.119 242H169.828L166.56 235.565V242H163.573V229.489H166.56V235.464L169.761 229.489ZM180.553 242L179.958 240.293H179.891C179.449 241.027 178.992 241.532 178.521 241.809C178.049 242.086 177.454 242.225 176.735 242.225C175.814 242.225 175.088 241.88 174.556 241.191C174.032 240.503 173.77 239.544 173.77 238.316C173.77 236.999 174.129 236.022 174.848 235.385C175.574 234.741 176.656 234.386 178.094 234.318L179.756 234.251V233.353C179.756 232.185 179.25 231.601 178.24 231.601C177.491 231.601 176.63 231.893 175.657 232.477L174.624 230.41C175.866 229.624 177.218 229.231 178.678 229.231C180.003 229.231 181.01 229.613 181.699 230.376C182.395 231.133 182.743 232.207 182.743 233.6V242H180.553ZM177.959 239.889C178.506 239.889 178.94 239.645 179.262 239.159C179.591 238.665 179.756 238.009 179.756 237.193V236.138L178.835 236.183C178.154 236.22 177.652 236.415 177.33 236.767C177.016 237.118 176.858 237.643 176.858 238.339C176.858 239.372 177.225 239.889 177.959 239.889ZM190.346 235.486V229.489H193.221V235.486L196.354 229.489H199.454L196.096 235.419L199.667 242H196.422L193.221 235.565V242H190.346V235.565L187.134 242H183.889L187.449 235.419L184.113 229.489H187.224L190.346 235.486ZM206.99 239.653V231.859H205.519C205.234 235.093 204.691 237.691 203.89 239.653H206.99ZM211.639 246.458H208.674V242H202.969V246.458H200.004V239.653H200.757C201.356 238.447 201.831 236.972 202.183 235.228C202.535 233.484 202.76 231.571 202.857 229.489H210.011V239.653H211.639V246.458ZM222.499 235.722C222.499 237.774 222.065 239.372 221.196 240.518C220.328 241.656 219.137 242.225 217.625 242.225C216.667 242.225 215.821 241.963 215.087 241.438C214.353 240.914 213.788 240.162 213.391 239.181C212.994 238.193 212.796 237.04 212.796 235.722C212.796 233.693 213.226 232.11 214.087 230.972C214.948 229.826 216.143 229.253 217.67 229.253C219.145 229.253 220.317 229.837 221.185 231.005C222.061 232.166 222.499 233.738 222.499 235.722ZM215.851 235.722C215.851 237.025 215.993 238.009 216.277 238.676C216.562 239.342 217.019 239.675 217.647 239.675C218.845 239.675 219.444 238.358 219.444 235.722C219.444 234.412 219.298 233.435 219.006 232.791C218.722 232.14 218.269 231.814 217.647 231.814C217.019 231.814 216.562 232.14 216.277 232.791C215.993 233.435 215.851 234.412 215.851 235.722ZM231.102 229.489V231.904H227.586V242H224.599V229.489H231.102ZM242.062 235.722C242.062 237.774 241.628 239.372 240.76 240.518C239.891 241.656 238.701 242.225 237.188 242.225C236.23 242.225 235.384 241.963 234.65 241.438C233.917 240.914 233.351 240.162 232.955 239.181C232.558 238.193 232.359 237.04 232.359 235.722C232.359 233.693 232.79 232.11 233.651 230.972C234.512 229.826 235.706 229.253 237.233 229.253C238.708 229.253 239.88 229.837 240.749 231.005C241.625 232.166 242.062 233.738 242.062 235.722ZM235.414 235.722C235.414 237.025 235.556 238.009 235.841 238.676C236.125 239.342 236.582 239.675 237.211 239.675C238.409 239.675 239.008 238.358 239.008 235.722C239.008 234.412 238.862 233.435 238.57 232.791C238.285 232.14 237.832 231.814 237.211 231.814C236.582 231.814 236.125 232.14 235.841 232.791C235.556 233.435 235.414 234.412 235.414 235.722ZM29.144 260.489V265.139C29.144 265.715 29.2376 266.134 29.4248 266.396C29.612 266.659 29.9077 266.79 30.312 266.79C30.7313 266.79 31.0981 266.703 31.4126 266.531C31.7345 266.359 32.0565 266.146 32.3784 265.891V260.489H35.3994V273H32.3784V267.935C31.3452 268.736 30.312 269.137 29.2788 269.137C28.2531 269.137 27.4744 268.822 26.9429 268.193C26.4113 267.564 26.1455 266.629 26.1455 265.386V260.489H29.144ZM42.5195 273.225C40.9548 273.225 39.7194 272.671 38.8135 271.562C37.915 270.447 37.4658 268.871 37.4658 266.834C37.4658 264.768 37.8739 263.155 38.6899 261.994C39.506 260.834 40.644 260.253 42.104 260.253C43.4666 260.253 44.541 260.751 45.3271 261.747C46.1133 262.735 46.5063 264.124 46.5063 265.914V267.508H40.498C40.5205 268.624 40.7489 269.455 41.1831 270.001C41.6174 270.541 42.2163 270.81 42.98 270.81C43.9533 270.81 44.9491 270.507 45.9673 269.9V272.36C45.009 272.936 43.8597 273.225 42.5195 273.225ZM42.0815 262.556C41.6548 262.556 41.3029 262.784 41.0259 263.241C40.7489 263.69 40.5879 264.39 40.543 265.341H43.5752C43.5602 264.427 43.4217 263.735 43.1597 263.263C42.8976 262.792 42.5382 262.556 42.0815 262.556ZM57.5459 273H54.5474V262.904H52.874C52.7243 265.442 52.481 267.456 52.144 268.946C51.8146 270.436 51.3691 271.518 50.8076 272.191C50.2536 272.865 49.5161 273.202 48.5952 273.202C48.0337 273.202 47.5732 273.12 47.2139 272.955V270.496C47.4385 270.57 47.6668 270.608 47.8989 270.608C48.5278 270.608 49.0182 269.807 49.3701 268.205C49.722 266.595 49.9915 264.023 50.1787 260.489H57.5459V273ZM69.3379 266.722C69.3379 268.774 68.9036 270.372 68.0352 271.518C67.1667 272.656 65.9762 273.225 64.4639 273.225C63.5055 273.225 62.6595 272.963 61.9258 272.438C61.1921 271.914 60.6268 271.162 60.23 270.181C59.8332 269.193 59.6348 268.04 59.6348 266.722C59.6348 264.693 60.0653 263.11 60.9263 261.972C61.7873 260.826 62.9814 260.253 64.5088 260.253C65.9837 260.253 67.1554 260.837 68.0239 262.005C68.8999 263.166 69.3379 264.738 69.3379 266.722ZM62.6895 266.722C62.6895 268.025 62.8317 269.009 63.1162 269.676C63.4007 270.342 63.8574 270.675 64.4863 270.675C65.6842 270.675 66.2832 269.358 66.2832 266.722C66.2832 265.412 66.1372 264.435 65.8452 263.791C65.5607 263.14 65.1077 262.814 64.4863 262.814C63.8574 262.814 63.4007 263.14 63.1162 263.791C62.8317 264.435 62.6895 265.412 62.6895 266.722ZM80.355 263.735C80.355 264.439 80.1453 265.026 79.7261 265.498C79.3143 265.962 78.7116 266.262 77.918 266.396V266.486C78.7939 266.599 79.479 266.902 79.9731 267.396C80.4748 267.883 80.7256 268.515 80.7256 269.294C80.7256 270.492 80.3026 271.409 79.4565 272.045C78.6105 272.682 77.4014 273 75.8291 273H71.438V260.489H75.8066C78.8389 260.489 80.355 261.571 80.355 263.735ZM77.626 269.114C77.626 268.583 77.4538 268.201 77.1094 267.969C76.765 267.737 76.2446 267.621 75.5483 267.621H74.4253V270.765H75.5933C76.9484 270.765 77.626 270.215 77.626 269.114ZM77.3003 264.004C77.3003 263.181 76.7537 262.769 75.6606 262.769H74.4253V265.408H75.3237C75.9826 265.408 76.4767 265.303 76.8062 265.094C77.1356 264.877 77.3003 264.514 77.3003 264.004ZM87.1943 273.225C85.6296 273.225 84.3942 272.671 83.4883 271.562C82.5898 270.447 82.1406 268.871 82.1406 266.834C82.1406 264.768 82.5487 263.155 83.3647 261.994C84.1808 260.834 85.3188 260.253 86.7788 260.253C88.1414 260.253 89.2158 260.751 90.002 261.747C90.7881 262.735 91.1812 264.124 91.1812 265.914V267.508H85.1729C85.1953 268.624 85.4237 269.455 85.8579 270.001C86.2922 270.541 86.8911 270.81 87.6548 270.81C88.6281 270.81 89.6239 270.507 90.6421 269.9V272.36C89.6838 272.936 88.5345 273.225 87.1943 273.225ZM86.7563 262.556C86.3296 262.556 85.9777 262.784 85.7007 263.241C85.4237 263.69 85.2627 264.39 85.2178 265.341H88.25C88.235 264.427 88.0965 263.735 87.8345 263.263C87.5724 262.792 87.2131 262.556 86.7563 262.556ZM99.3457 260.489H102.49L99.0649 266.419L102.704 273H99.4131L96.145 266.565V273H93.1577V260.489H96.145V266.464L99.3457 260.489ZM110.138 273L109.543 271.293H109.476C109.034 272.027 108.577 272.532 108.105 272.809C107.634 273.086 107.039 273.225 106.32 273.225C105.399 273.225 104.673 272.88 104.141 272.191C103.617 271.503 103.355 270.544 103.355 269.316C103.355 267.999 103.714 267.022 104.433 266.385C105.159 265.741 106.241 265.386 107.679 265.318L109.341 265.251V264.353C109.341 263.185 108.835 262.601 107.825 262.601C107.076 262.601 106.215 262.893 105.242 263.477L104.208 261.41C105.451 260.624 106.803 260.231 108.263 260.231C109.588 260.231 110.595 260.613 111.284 261.376C111.98 262.133 112.328 263.207 112.328 264.6V273H110.138ZM107.544 270.889C108.09 270.889 108.525 270.645 108.847 270.159C109.176 269.665 109.341 269.009 109.341 268.193V267.138L108.42 267.183C107.739 267.22 107.237 267.415 106.915 267.767C106.601 268.118 106.443 268.643 106.443 269.339C106.443 270.372 106.81 270.889 107.544 270.889ZM129.342 263.735C129.342 264.439 129.133 265.026 128.713 265.498C128.302 265.962 127.699 266.262 126.905 266.396V266.486C127.781 266.599 128.466 266.902 128.96 267.396C129.462 267.883 129.713 268.515 129.713 269.294C129.713 270.492 129.29 271.409 128.444 272.045C127.598 272.682 126.389 273 124.816 273H120.425V260.489H124.794C127.826 260.489 129.342 261.571 129.342 263.735ZM126.613 269.114C126.613 268.583 126.441 268.201 126.097 267.969C125.752 267.737 125.232 267.621 124.536 267.621H123.413V270.765H124.581C125.936 270.765 126.613 270.215 126.613 269.114ZM126.288 264.004C126.288 263.181 125.741 262.769 124.648 262.769H123.413V265.408H124.311C124.97 265.408 125.464 265.303 125.793 265.094C126.123 264.877 126.288 264.514 126.288 264.004ZM142.83 273.225C142.291 273.225 141.812 273.105 141.393 272.865C140.981 272.618 140.595 272.188 140.236 271.574H140.079C140.198 272.592 140.258 273.206 140.258 273.416V278.525H137.249V260.489H139.562L140.079 262.118H140.213C140.835 260.875 141.737 260.253 142.92 260.253C144.058 260.253 144.949 260.819 145.593 261.949C146.237 263.072 146.559 264.663 146.559 266.722C146.559 268.751 146.225 270.342 145.559 271.495C144.893 272.648 143.983 273.225 142.83 273.225ZM141.909 262.792C141.325 262.792 140.902 263.065 140.64 263.611C140.386 264.15 140.251 265.049 140.236 266.307V266.7C140.236 268.077 140.367 269.081 140.629 269.709C140.891 270.338 141.325 270.653 141.932 270.653C142.98 270.653 143.504 269.328 143.504 266.677C143.504 265.375 143.373 264.401 143.111 263.757C142.856 263.113 142.456 262.792 141.909 262.792ZM154.791 273L154.195 271.293H154.128C153.686 272.027 153.229 272.532 152.758 272.809C152.286 273.086 151.691 273.225 150.972 273.225C150.051 273.225 149.325 272.88 148.793 272.191C148.269 271.503 148.007 270.544 148.007 269.316C148.007 267.999 148.367 267.022 149.085 266.385C149.812 265.741 150.894 265.386 152.331 265.318L153.993 265.251V264.353C153.993 263.185 153.488 262.601 152.477 262.601C151.728 262.601 150.867 262.893 149.894 263.477L148.861 261.41C150.104 260.624 151.455 260.231 152.915 260.231C154.24 260.231 155.247 260.613 155.936 261.376C156.632 262.133 156.98 263.207 156.98 264.6V273H154.791ZM152.196 270.889C152.743 270.889 153.177 270.645 153.499 270.159C153.828 269.665 153.993 269.009 153.993 268.193V267.138L153.072 267.183C152.391 267.22 151.889 267.415 151.567 267.767C151.253 268.118 151.096 268.643 151.096 269.339C151.096 270.372 151.463 270.889 152.196 270.889ZM158.957 265.756C158.957 262.911 159.361 260.74 160.17 259.243C160.986 257.745 162.315 256.727 164.157 256.188C165.115 255.918 166.5 255.656 168.312 255.402L168.66 258.03L166.672 258.344C165.407 258.554 164.46 258.827 163.831 259.164C163.21 259.493 162.742 259.988 162.427 260.646C162.12 261.298 161.937 262.166 161.877 263.252H161.967C162.319 262.623 162.745 262.148 163.247 261.826C163.749 261.504 164.295 261.343 164.887 261.343C166.085 261.343 167.013 261.826 167.672 262.792C168.331 263.757 168.66 265.105 168.66 266.834C168.66 268.841 168.233 270.41 167.38 271.54C166.526 272.663 165.336 273.225 163.809 273.225C162.251 273.225 161.053 272.577 160.215 271.282C159.376 269.986 158.957 268.145 158.957 265.756ZM163.921 270.675C165.044 270.675 165.605 269.496 165.605 267.138C165.605 264.854 165.096 263.712 164.078 263.712C163.636 263.712 163.225 263.892 162.843 264.251C162.461 264.603 162.184 265.053 162.012 265.599C162.012 268.983 162.648 270.675 163.921 270.675ZM180.025 266.722C180.025 268.774 179.591 270.372 178.723 271.518C177.854 272.656 176.664 273.225 175.151 273.225C174.193 273.225 173.347 272.963 172.613 272.438C171.88 271.914 171.314 271.162 170.917 270.181C170.521 269.193 170.322 268.04 170.322 266.722C170.322 264.693 170.753 263.11 171.614 261.972C172.475 260.826 173.669 260.253 175.196 260.253C176.671 260.253 177.843 260.837 178.711 262.005C179.587 263.166 180.025 264.738 180.025 266.722ZM173.377 266.722C173.377 268.025 173.519 269.009 173.804 269.676C174.088 270.342 174.545 270.675 175.174 270.675C176.372 270.675 176.971 269.358 176.971 266.722C176.971 265.412 176.825 264.435 176.533 263.791C176.248 263.14 175.795 262.814 175.174 262.814C174.545 262.814 174.088 263.14 173.804 263.791C173.519 264.435 173.377 265.412 173.377 266.722ZM189.627 260.489V262.904H186.842V273H183.855V262.904H181.07V260.489H189.627ZM190.043 260.489H193.143L194.872 267.553C195.044 268.182 195.183 269.062 195.288 270.192H195.355C195.362 270.013 195.396 269.694 195.456 269.238C195.516 268.774 195.565 268.41 195.602 268.148C195.639 267.886 196.156 265.333 197.152 260.489H200.296L196.714 273.898C196.28 275.546 195.703 276.729 194.984 277.447C194.266 278.166 193.307 278.525 192.109 278.525C191.518 278.525 190.99 278.462 190.526 278.334V275.83C190.833 275.92 191.177 275.965 191.559 275.965C192.562 275.965 193.221 275.306 193.536 273.988L193.749 273.202L190.043 260.489ZM37.1626 304H33.7373L29.5259 295.678V304H26.4937V287.581H29.5259V295.532L33.8047 287.581H37.0728L32.5693 295.487L37.1626 304ZM47.708 297.722C47.708 299.774 47.2738 301.372 46.4053 302.518C45.5368 303.656 44.3464 304.225 42.834 304.225C41.8757 304.225 41.0296 303.963 40.2959 303.438C39.5622 302.914 38.9969 302.162 38.6001 301.181C38.2033 300.193 38.0049 299.04 38.0049 297.722C38.0049 295.693 38.4354 294.11 39.2964 292.972C40.1574 291.826 41.3516 291.253 42.8789 291.253C44.3538 291.253 45.5256 291.837 46.394 293.005C47.27 294.166 47.708 295.738 47.708 297.722ZM41.0596 297.722C41.0596 299.025 41.2018 300.009 41.4863 300.676C41.7708 301.342 42.2275 301.675 42.8564 301.675C44.0544 301.675 44.6533 300.358 44.6533 297.722C44.6533 296.412 44.5073 295.435 44.2153 294.791C43.9308 294.14 43.4779 293.814 42.8564 293.814C42.2275 293.814 41.7708 294.14 41.4863 294.791C41.2018 295.435 41.0596 296.412 41.0596 297.722ZM62.7344 304H60.0615V293.836C59.8444 295.049 59.5374 296.412 59.1406 297.924L57.5122 304H54.9741L53.3457 297.902C52.9938 296.592 52.6868 295.236 52.4248 293.836V304H49.8081V291.489H54.1094L55.6255 297.329C55.9549 298.632 56.1533 299.845 56.2207 300.968C56.2507 300.586 56.3293 300.051 56.4565 299.362C56.5913 298.673 56.741 297.995 56.9058 297.329L58.4556 291.489H62.7344V304ZM74.6162 291.489V304H71.6064V293.904H68.2261V304H65.2388V291.489H74.6162ZM83.2974 304L82.7021 302.293H82.6348C82.193 303.027 81.7363 303.532 81.2646 303.809C80.793 304.086 80.1978 304.225 79.479 304.225C78.5581 304.225 77.8319 303.88 77.3003 303.191C76.7762 302.503 76.5142 301.544 76.5142 300.316C76.5142 298.999 76.8735 298.022 77.5923 297.385C78.3185 296.741 79.4004 296.386 80.8379 296.318L82.5 296.251V295.353C82.5 294.185 81.9946 293.601 80.9839 293.601C80.2352 293.601 79.3742 293.893 78.4009 294.477L77.3677 292.41C78.6105 291.624 79.9619 291.231 81.4219 291.231C82.7471 291.231 83.7541 291.613 84.4429 292.376C85.1392 293.133 85.4873 294.207 85.4873 295.6V304H83.2974ZM80.7031 301.889C81.2497 301.889 81.6839 301.645 82.0059 301.159C82.3353 300.665 82.5 300.009 82.5 299.193V298.138L81.5791 298.183C80.8978 298.22 80.3962 298.415 80.0742 298.767C79.7598 299.118 79.6025 299.643 79.6025 300.339C79.6025 301.372 79.9694 301.889 80.7031 301.889ZM90.8892 291.489V296.363H94.2695V291.489H97.2793V304H94.2695V298.755H90.8892V304H87.9019V291.489H90.8892ZM102.58 291.489V297.284C102.58 298.003 102.49 299.197 102.311 300.867L106.376 291.489H110.037V304H107.252V298.115C107.252 297.232 107.338 296.041 107.51 294.544L103.434 304H99.8062V291.489H102.58ZM115.36 291.489V297.284C115.36 298.003 115.271 299.197 115.091 300.867L119.156 291.489H122.817V304H120.032V298.115C120.032 297.232 120.118 296.041 120.291 294.544L116.214 304H112.586V291.489H115.36Z" fill="black"/>
<path d="M377.172 430L372.828 410.547H372.656C372.854 412.047 372.953 413.422 372.953 414.672V430H369.016V407.156H375.547L379.453 425.109H379.578L383.453 407.156H390.078V430H386.047V414.516C386.047 413.234 386.12 411.922 386.266 410.578H386.141L381.812 430H377.172ZM398.016 419.406H399.266C401.568 419.406 403.266 419.828 404.359 420.672C405.464 421.516 406.016 422.792 406.016 424.5C406.016 428.167 403.724 430 399.141 430H393.859V412.594H398.016V419.406ZM401.75 424.594C401.75 423.854 401.521 423.323 401.062 423C400.615 422.677 399.906 422.516 398.938 422.516H398.016V426.891H399C399.885 426.891 400.562 426.719 401.031 426.375C401.51 426.021 401.75 425.427 401.75 424.594ZM412.641 430H408.453V412.594H412.641V430ZM423.438 419.922C423.438 415.964 424 412.943 425.125 410.859C426.26 408.776 428.109 407.359 430.672 406.609C432.005 406.234 433.932 405.87 436.453 405.516L436.938 409.172L434.172 409.609C432.411 409.901 431.094 410.281 430.219 410.75C429.354 411.208 428.703 411.896 428.266 412.812C427.839 413.719 427.583 414.927 427.5 416.438H427.625C428.115 415.562 428.708 414.901 429.406 414.453C430.104 414.005 430.865 413.781 431.688 413.781C433.354 413.781 434.646 414.453 435.562 415.797C436.479 417.141 436.938 419.016 436.938 421.422C436.938 424.214 436.344 426.396 435.156 427.969C433.969 429.531 432.312 430.312 430.188 430.312C428.021 430.312 426.354 429.411 425.188 427.609C424.021 425.807 423.438 423.245 423.438 419.922ZM430.344 426.766C431.906 426.766 432.688 425.125 432.688 421.844C432.688 418.667 431.979 417.078 430.562 417.078C429.948 417.078 429.375 417.328 428.844 417.828C428.312 418.318 427.927 418.943 427.688 419.703C427.688 424.411 428.573 426.766 430.344 426.766ZM446.281 430.312C444.104 430.312 442.385 429.542 441.125 428C439.875 426.448 439.25 424.255 439.25 421.422C439.25 418.547 439.818 416.302 440.953 414.688C442.089 413.073 443.672 412.266 445.703 412.266C447.599 412.266 449.094 412.958 450.188 414.344C451.281 415.719 451.828 417.651 451.828 420.141V422.359H443.469C443.5 423.911 443.818 425.068 444.422 425.828C445.026 426.578 445.859 426.953 446.922 426.953C448.276 426.953 449.661 426.531 451.078 425.688V429.109C449.745 429.911 448.146 430.312 446.281 430.312ZM445.672 415.469C445.078 415.469 444.589 415.786 444.203 416.422C443.818 417.047 443.594 418.021 443.531 419.344H447.75C447.729 418.073 447.536 417.109 447.172 416.453C446.807 415.797 446.307 415.469 445.672 415.469ZM462.344 430.312C461.594 430.312 460.927 430.146 460.344 429.812C459.771 429.469 459.234 428.87 458.734 428.016H458.516C458.682 429.432 458.766 430.286 458.766 430.578V437.688H454.578V412.594H457.797L458.516 414.859H458.703C459.568 413.13 460.823 412.266 462.469 412.266C464.052 412.266 465.292 413.052 466.188 414.625C467.083 416.188 467.531 418.401 467.531 421.266C467.531 424.089 467.068 426.302 466.141 427.906C465.214 429.51 463.948 430.312 462.344 430.312ZM461.062 415.797C460.25 415.797 459.661 416.177 459.297 416.938C458.943 417.688 458.755 418.938 458.734 420.688V421.234C458.734 423.151 458.917 424.547 459.281 425.422C459.646 426.297 460.25 426.734 461.094 426.734C462.552 426.734 463.281 424.891 463.281 421.203C463.281 419.391 463.099 418.036 462.734 417.141C462.38 416.245 461.823 415.797 461.062 415.797ZM476.875 430.312C474.698 430.312 472.979 429.542 471.719 428C470.469 426.448 469.844 424.255 469.844 421.422C469.844 418.547 470.411 416.302 471.547 414.688C472.682 413.073 474.266 412.266 476.297 412.266C478.193 412.266 479.688 412.958 480.781 414.344C481.875 415.719 482.422 417.651 482.422 420.141V422.359H474.062C474.094 423.911 474.411 425.068 475.016 425.828C475.62 426.578 476.453 426.953 477.516 426.953C478.87 426.953 480.255 426.531 481.672 425.688V429.109C480.339 429.911 478.74 430.312 476.875 430.312ZM476.266 415.469C475.672 415.469 475.182 415.786 474.797 416.422C474.411 417.047 474.188 418.021 474.125 419.344H478.344C478.323 418.073 478.13 417.109 477.766 416.453C477.401 415.797 476.901 415.469 476.266 415.469ZM503.156 430H499.438V415.859C499.135 417.547 498.708 419.443 498.156 421.547L495.891 430H492.359L490.094 421.516C489.604 419.693 489.177 417.807 488.812 415.859V430H485.172V412.594H491.156L493.266 420.719C493.724 422.531 494 424.219 494.094 425.781C494.135 425.25 494.245 424.505 494.422 423.547C494.609 422.589 494.818 421.646 495.047 420.719L497.203 412.594H503.156V430ZM512.391 430.312C510.318 430.312 508.74 429.557 507.656 428.047C506.573 426.536 506.031 424.318 506.031 421.391C506.031 418.328 506.542 416.042 507.562 414.531C508.594 413.021 510.182 412.266 512.328 412.266C512.974 412.266 513.651 412.359 514.359 412.547C515.068 412.734 515.703 413.005 516.266 413.359L515.078 416.594C514.214 416.083 513.448 415.828 512.781 415.828C511.896 415.828 511.255 416.292 510.859 417.219C510.474 418.135 510.281 419.516 510.281 421.359C510.281 423.161 510.474 424.51 510.859 425.406C511.245 426.292 511.875 426.734 512.75 426.734C513.792 426.734 514.88 426.37 516.016 425.641V429.297C514.922 429.974 513.714 430.312 512.391 430.312ZM521.547 430H516.844L521.172 422.859C519.078 422.026 518.031 420.406 518.031 418C518.031 416.302 518.594 414.979 519.719 414.031C520.854 413.073 522.411 412.594 524.391 412.594H530.797V430H526.641V423.438H525.141L521.547 430ZM522.25 418.031C522.25 419.594 523.115 420.375 524.844 420.375H526.641V415.703H524.5C523 415.703 522.25 416.479 522.25 418.031ZM545.781 419.375C546.729 419.375 547.432 419.224 547.891 418.922C548.359 418.62 548.594 418.099 548.594 417.359C548.594 416.161 547.797 415.562 546.203 415.562C545.641 415.562 545.12 415.646 544.641 415.812C544.161 415.969 543.646 416.219 543.094 416.562L541.594 413.547C543.042 412.693 544.651 412.266 546.422 412.266C548.266 412.266 549.734 412.677 550.828 413.5C551.922 414.323 552.469 415.448 552.469 416.875C552.469 418.865 551.37 420.167 549.172 420.781V420.906C550.38 421.188 551.302 421.703 551.938 422.453C552.573 423.203 552.891 424.161 552.891 425.328C552.891 426.87 552.302 428.089 551.125 428.984C549.958 429.87 548.339 430.312 546.266 430.312C545.307 430.312 544.391 430.208 543.516 430C542.651 429.781 541.922 429.505 541.328 429.172V425.688C542.776 426.49 544.292 426.891 545.875 426.891C547.771 426.891 548.719 426.188 548.719 424.781C548.719 424.031 548.49 423.464 548.031 423.078C547.583 422.682 546.833 422.484 545.781 422.484H544.078V419.375H545.781ZM564.266 430L563.438 427.625H563.344C562.729 428.646 562.094 429.349 561.438 429.734C560.781 430.12 559.953 430.312 558.953 430.312C557.672 430.312 556.661 429.833 555.922 428.875C555.193 427.917 554.828 426.583 554.828 424.875C554.828 423.042 555.328 421.682 556.328 420.797C557.339 419.901 558.844 419.406 560.844 419.312L563.156 419.219V417.969C563.156 416.344 562.453 415.531 561.047 415.531C560.005 415.531 558.807 415.938 557.453 416.75L556.016 413.875C557.745 412.781 559.625 412.234 561.656 412.234C563.5 412.234 564.901 412.766 565.859 413.828C566.828 414.88 567.312 416.375 567.312 418.312V430H564.266ZM560.656 427.062C561.417 427.062 562.021 426.724 562.469 426.047C562.927 425.359 563.156 424.448 563.156 423.312V421.844L561.875 421.906C560.927 421.958 560.229 422.229 559.781 422.719C559.344 423.208 559.125 423.938 559.125 424.906C559.125 426.344 559.635 427.062 560.656 427.062ZM374.516 474.312C372.443 474.312 370.865 473.557 369.781 472.047C368.698 470.536 368.156 468.318 368.156 465.391C368.156 462.328 368.667 460.042 369.688 458.531C370.719 457.021 372.307 456.266 374.453 456.266C375.099 456.266 375.776 456.359 376.484 456.547C377.193 456.734 377.828 457.005 378.391 457.359L377.203 460.594C376.339 460.083 375.573 459.828 374.906 459.828C374.021 459.828 373.38 460.292 372.984 461.219C372.599 462.135 372.406 463.516 372.406 465.359C372.406 467.161 372.599 468.51 372.984 469.406C373.37 470.292 374 470.734 374.875 470.734C375.917 470.734 377.005 470.37 378.141 469.641V473.297C377.047 473.974 375.839 474.312 374.516 474.312ZM389.172 474L388.344 471.625H388.25C387.635 472.646 387 473.349 386.344 473.734C385.688 474.12 384.859 474.312 383.859 474.312C382.578 474.312 381.568 473.833 380.828 472.875C380.099 471.917 379.734 470.583 379.734 468.875C379.734 467.042 380.234 465.682 381.234 464.797C382.245 463.901 383.75 463.406 385.75 463.312L388.062 463.219V461.969C388.062 460.344 387.359 459.531 385.953 459.531C384.911 459.531 383.714 459.938 382.359 460.75L380.922 457.875C382.651 456.781 384.531 456.234 386.562 456.234C388.406 456.234 389.807 456.766 390.766 457.828C391.734 458.88 392.219 460.375 392.219 462.312V474H389.172ZM385.562 471.062C386.323 471.062 386.927 470.724 387.375 470.047C387.833 469.359 388.062 468.448 388.062 467.312V465.844L386.781 465.906C385.833 465.958 385.135 466.229 384.688 466.719C384.25 467.208 384.031 467.938 384.031 468.906C384.031 470.344 384.542 471.062 385.562 471.062ZM413.562 474H409.844V459.859C409.542 461.547 409.115 463.443 408.562 465.547L406.297 474H402.766L400.5 465.516C400.01 463.693 399.583 461.807 399.219 459.859V474H395.578V456.594H401.562L403.672 464.719C404.13 466.531 404.406 468.219 404.5 469.781C404.542 469.25 404.651 468.505 404.828 467.547C405.016 466.589 405.224 465.646 405.453 464.719L407.609 456.594H413.562V474ZM421.203 463.406H422.453C424.755 463.406 426.453 463.828 427.547 464.672C428.651 465.516 429.203 466.792 429.203 468.5C429.203 472.167 426.911 474 422.328 474H417.047V456.594H421.203V463.406ZM424.938 468.594C424.938 467.854 424.708 467.323 424.25 467C423.802 466.677 423.094 466.516 422.125 466.516H421.203V470.891H422.188C423.073 470.891 423.75 470.719 424.219 470.375C424.698 470.021 424.938 469.427 424.938 468.594ZM435.828 474H431.641V456.594H435.828V474ZM445.75 474.312C443.573 474.312 441.854 473.542 440.594 472C439.344 470.448 438.719 468.255 438.719 465.422C438.719 462.547 439.286 460.302 440.422 458.688C441.557 457.073 443.141 456.266 445.172 456.266C447.068 456.266 448.562 456.958 449.656 458.344C450.75 459.719 451.297 461.651 451.297 464.141V466.359H442.938C442.969 467.911 443.286 469.068 443.891 469.828C444.495 470.578 445.328 470.953 446.391 470.953C447.745 470.953 449.13 470.531 450.547 469.688V473.109C449.214 473.911 447.615 474.312 445.75 474.312ZM445.141 459.469C444.547 459.469 444.057 459.786 443.672 460.422C443.286 461.047 443.062 462.021 443 463.344H447.219C447.198 462.073 447.005 461.109 446.641 460.453C446.276 459.797 445.776 459.469 445.141 459.469ZM377.297 518L376.469 515.625H376.375C375.76 516.646 375.125 517.349 374.469 517.734C373.812 518.12 372.984 518.312 371.984 518.312C370.703 518.312 369.693 517.833 368.953 516.875C368.224 515.917 367.859 514.583 367.859 512.875C367.859 511.042 368.359 509.682 369.359 508.797C370.37 507.901 371.875 507.406 373.875 507.312L376.188 507.219V505.969C376.188 504.344 375.484 503.531 374.078 503.531C373.036 503.531 371.839 503.938 370.484 504.75L369.047 501.875C370.776 500.781 372.656 500.234 374.688 500.234C376.531 500.234 377.932 500.766 378.891 501.828C379.859 502.88 380.344 504.375 380.344 506.312V518H377.297ZM373.688 515.062C374.448 515.062 375.052 514.724 375.5 514.047C375.958 513.359 376.188 512.448 376.188 511.312V509.844L374.906 509.906C373.958 509.958 373.26 510.229 372.812 510.719C372.375 511.208 372.156 511.938 372.156 512.906C372.156 514.344 372.667 515.062 373.688 515.062ZM401.688 518H397.969V503.859C397.667 505.547 397.24 507.443 396.688 509.547L394.422 518H390.891L388.625 509.516C388.135 507.693 387.708 505.807 387.344 503.859V518H383.703V500.594H389.688L391.797 508.719C392.255 510.531 392.531 512.219 392.625 513.781C392.667 513.25 392.776 512.505 392.953 511.547C393.141 510.589 393.349 509.646 393.578 508.719L395.734 500.594H401.688V518ZM404.562 507.922C404.562 503.964 405.125 500.943 406.25 498.859C407.385 496.776 409.234 495.359 411.797 494.609C413.13 494.234 415.057 493.87 417.578 493.516L418.062 497.172L415.297 497.609C413.536 497.901 412.219 498.281 411.344 498.75C410.479 499.208 409.828 499.896 409.391 500.812C408.964 501.719 408.708 502.927 408.625 504.438H408.75C409.24 503.562 409.833 502.901 410.531 502.453C411.229 502.005 411.99 501.781 412.812 501.781C414.479 501.781 415.771 502.453 416.688 503.797C417.604 505.141 418.062 507.016 418.062 509.422C418.062 512.214 417.469 514.396 416.281 515.969C415.094 517.531 413.438 518.312 411.312 518.312C409.146 518.312 407.479 517.411 406.312 515.609C405.146 513.807 404.562 511.245 404.562 507.922ZM411.469 514.766C413.031 514.766 413.812 513.125 413.812 509.844C413.812 506.667 413.104 505.078 411.688 505.078C411.073 505.078 410.5 505.328 409.969 505.828C409.438 506.318 409.052 506.943 408.812 507.703C408.812 512.411 409.698 514.766 411.469 514.766ZM424.844 500.594V508.656C424.844 509.656 424.719 511.318 424.469 513.641L430.125 500.594H435.219V518H431.344V509.812C431.344 508.583 431.464 506.927 431.703 504.844L426.031 518H420.984V500.594H424.844ZM451.781 514.734H454.125V524.203H449.984V518H438.766V500.594H442.922V514.641H447.594V500.594H451.781V514.734ZM460.125 500.594V508.656C460.125 509.656 460 511.318 459.75 513.641L465.406 500.594H470.5V518H466.625V509.812C466.625 508.583 466.745 506.927 466.984 504.844L461.312 518H456.266V500.594H460.125ZM486.938 509.266C486.938 512.12 486.333 514.344 485.125 515.938C483.917 517.521 482.26 518.312 480.156 518.312C478.823 518.312 477.646 517.948 476.625 517.219C475.604 516.49 474.818 515.443 474.266 514.078C473.714 512.703 473.438 511.099 473.438 509.266C473.438 506.443 474.036 504.24 475.234 502.656C476.432 501.062 478.094 500.266 480.219 500.266C482.271 500.266 483.901 501.078 485.109 502.703C486.328 504.318 486.938 506.505 486.938 509.266ZM477.688 509.266C477.688 511.078 477.885 512.448 478.281 513.375C478.677 514.302 479.312 514.766 480.188 514.766C481.854 514.766 482.688 512.932 482.688 509.266C482.688 507.443 482.484 506.083 482.078 505.188C481.682 504.281 481.052 503.828 480.188 503.828C479.312 503.828 478.677 504.281 478.281 505.188C477.885 506.083 477.688 507.443 477.688 509.266ZM493.406 507.375C494.354 507.375 495.057 507.224 495.516 506.922C495.984 506.62 496.219 506.099 496.219 505.359C496.219 504.161 495.422 503.562 493.828 503.562C493.266 503.562 492.745 503.646 492.266 503.812C491.786 503.969 491.271 504.219 490.719 504.562L489.219 501.547C490.667 500.693 492.276 500.266 494.047 500.266C495.891 500.266 497.359 500.677 498.453 501.5C499.547 502.323 500.094 503.448 500.094 504.875C500.094 506.865 498.995 508.167 496.797 508.781V508.906C498.005 509.188 498.927 509.703 499.562 510.453C500.198 511.203 500.516 512.161 500.516 513.328C500.516 514.87 499.927 516.089 498.75 516.984C497.583 517.87 495.964 518.312 493.891 518.312C492.932 518.312 492.016 518.208 491.141 518C490.276 517.781 489.547 517.505 488.953 517.172V513.688C490.401 514.49 491.917 514.891 493.5 514.891C495.396 514.891 496.344 514.188 496.344 512.781C496.344 512.031 496.115 511.464 495.656 511.078C495.208 510.682 494.458 510.484 493.406 510.484H491.703V507.375H493.406ZM507.516 500.594V507.375H512.219V500.594H516.406V518H512.219V510.703H507.516V518H503.359V500.594H507.516ZM524.078 507.406H525.328C527.63 507.406 529.328 507.828 530.422 508.672C531.526 509.516 532.078 510.792 532.078 512.5C532.078 516.167 529.786 518 525.203 518H519.922V500.594H524.078V507.406ZM527.812 512.594C527.812 511.854 527.583 511.323 527.125 511C526.677 510.677 525.969 510.516 525 510.516H524.078V514.891H525.062C525.948 514.891 526.625 514.719 527.094 514.375C527.573 514.021 527.812 513.427 527.812 512.594ZM538.703 518H534.516V500.594H538.703V518ZM548.625 518.312C546.448 518.312 544.729 517.542 543.469 516C542.219 514.448 541.594 512.255 541.594 509.422C541.594 506.547 542.161 504.302 543.297 502.688C544.432 501.073 546.016 500.266 548.047 500.266C549.943 500.266 551.438 500.958 552.531 502.344C553.625 503.719 554.172 505.651 554.172 508.141V510.359H545.812C545.844 511.911 546.161 513.068 546.766 513.828C547.37 514.578 548.203 514.953 549.266 514.953C550.62 514.953 552.005 514.531 553.422 513.688V517.109C552.089 517.911 550.49 518.312 548.625 518.312ZM548.016 503.469C547.422 503.469 546.932 503.786 546.547 504.422C546.161 505.047 545.938 506.021 545.875 507.344H550.094C550.073 506.073 549.88 505.109 549.516 504.453C549.151 503.797 548.651 503.469 548.016 503.469ZM381.812 544.594V562H377.625V547.953H372.922V562H368.766V544.594H381.812ZM393.125 562.312C392.375 562.312 391.708 562.146 391.125 561.812C390.552 561.469 390.016 560.87 389.516 560.016H389.297C389.464 561.432 389.547 562.286 389.547 562.578V569.688H385.359V544.594H388.578L389.297 546.859H389.484C390.349 545.13 391.604 544.266 393.25 544.266C394.833 544.266 396.073 545.052 396.969 546.625C397.865 548.188 398.312 550.401 398.312 553.266C398.312 556.089 397.849 558.302 396.922 559.906C395.995 561.51 394.729 562.312 393.125 562.312ZM391.844 547.797C391.031 547.797 390.443 548.177 390.078 548.938C389.724 549.688 389.536 550.938 389.516 552.688V553.234C389.516 555.151 389.698 556.547 390.062 557.422C390.427 558.297 391.031 558.734 391.875 558.734C393.333 558.734 394.062 556.891 394.062 553.203C394.062 551.391 393.88 550.036 393.516 549.141C393.161 548.245 392.604 547.797 391.844 547.797ZM414.125 553.266C414.125 556.12 413.521 558.344 412.312 559.938C411.104 561.521 409.448 562.312 407.344 562.312C406.01 562.312 404.833 561.948 403.812 561.219C402.792 560.49 402.005 559.443 401.453 558.078C400.901 556.703 400.625 555.099 400.625 553.266C400.625 550.443 401.224 548.24 402.422 546.656C403.62 545.062 405.281 544.266 407.406 544.266C409.458 544.266 411.089 545.078 412.297 546.703C413.516 548.318 414.125 550.505 414.125 553.266ZM404.875 553.266C404.875 555.078 405.073 556.448 405.469 557.375C405.865 558.302 406.5 558.766 407.375 558.766C409.042 558.766 409.875 556.932 409.875 553.266C409.875 551.443 409.672 550.083 409.266 549.188C408.87 548.281 408.24 547.828 407.375 547.828C406.5 547.828 405.865 548.281 405.469 549.188C405.073 550.083 404.875 551.443 404.875 553.266ZM423.469 562.312C421.292 562.312 419.573 561.542 418.312 560C417.062 558.448 416.438 556.255 416.438 553.422C416.438 550.547 417.005 548.302 418.141 546.688C419.276 545.073 420.859 544.266 422.891 544.266C424.786 544.266 426.281 544.958 427.375 546.344C428.469 547.719 429.016 549.651 429.016 552.141V554.359H420.656C420.688 555.911 421.005 557.068 421.609 557.828C422.214 558.578 423.047 558.953 424.109 558.953C425.464 558.953 426.849 558.531 428.266 557.688V561.109C426.932 561.911 425.333 562.312 423.469 562.312ZM422.859 547.469C422.266 547.469 421.776 547.786 421.391 548.422C421.005 549.047 420.781 550.021 420.719 551.344H424.938C424.917 550.073 424.724 549.109 424.359 548.453C423.995 547.797 423.495 547.469 422.859 547.469ZM440.375 544.594H444.75L439.984 552.844L445.047 562H440.469L435.922 553.047V562H431.766V544.594H435.922V552.906L440.375 544.594ZM457.578 544.594V547.953H453.703V562H449.547V547.953H445.672V544.594H457.578ZM464.078 551.406H465.328C467.63 551.406 469.328 551.828 470.422 552.672C471.526 553.516 472.078 554.792 472.078 556.5C472.078 560.167 469.786 562 465.203 562H459.922V544.594H464.078V551.406ZM467.812 556.594C467.812 555.854 467.583 555.323 467.125 555C466.677 554.677 465.969 554.516 465 554.516H464.078V558.891H465.062C465.948 558.891 466.625 558.719 467.094 558.375C467.573 558.021 467.812 557.427 467.812 556.594ZM478.703 562H474.516V544.594H478.703V562Z" fill="black"/>
<path d="M377.399 589.635C377.399 591.379 376.958 592.719 376.074 593.655C375.198 594.584 373.929 595.048 372.267 595.048H371.503V601H368.449V584.581H372.615C375.805 584.581 377.399 586.266 377.399 589.635ZM371.503 592.397H372.087C372.836 592.397 373.394 592.192 373.761 591.78C374.128 591.368 374.311 590.694 374.311 589.758C374.311 588.897 374.143 588.261 373.806 587.849C373.469 587.43 372.948 587.22 372.245 587.22H371.503V592.397ZM383.913 601.225C382.348 601.225 381.113 600.671 380.207 599.562C379.309 598.447 378.859 596.871 378.859 594.834C378.859 592.768 379.267 591.155 380.083 589.994C380.9 588.834 382.038 588.253 383.498 588.253C384.86 588.253 385.935 588.751 386.721 589.747C387.507 590.735 387.9 592.124 387.9 593.914V595.508H381.892C381.914 596.624 382.142 597.455 382.577 598.001C383.011 598.541 383.61 598.81 384.374 598.81C385.347 598.81 386.343 598.507 387.361 597.9V600.36C386.403 600.936 385.253 601.225 383.913 601.225ZM383.475 590.556C383.048 590.556 382.696 590.784 382.419 591.241C382.142 591.69 381.981 592.39 381.937 593.341H384.969C384.954 592.427 384.815 591.735 384.553 591.263C384.291 590.792 383.932 590.556 383.475 590.556ZM399.254 588.489V601H396.244V590.904H392.864V601H389.876V588.489H399.254ZM400.534 588.489H403.634L405.363 595.553C405.535 596.182 405.674 597.062 405.779 598.192H405.846C405.854 598.013 405.887 597.694 405.947 597.238C406.007 596.774 406.056 596.41 406.093 596.148C406.131 595.886 406.647 593.333 407.643 588.489H410.788L407.205 601.898C406.771 603.546 406.194 604.729 405.476 605.447C404.757 606.166 403.799 606.525 402.601 606.525C402.009 606.525 401.481 606.462 401.017 606.334V603.83C401.324 603.92 401.668 603.965 402.05 603.965C403.054 603.965 403.712 603.306 404.027 601.988L404.24 601.202L400.534 588.489ZM419.772 588.489V590.904H416.987V601H414V590.904H411.214V588.489H419.772ZM427.229 601L426.634 599.293H426.566C426.125 600.027 425.668 600.532 425.196 600.809C424.725 601.086 424.129 601.225 423.411 601.225C422.49 601.225 421.764 600.88 421.232 600.191C420.708 599.503 420.446 598.544 420.446 597.316C420.446 595.999 420.805 595.022 421.524 594.385C422.25 593.741 423.332 593.386 424.77 593.318L426.432 593.251V592.353C426.432 591.185 425.926 590.601 424.916 590.601C424.167 590.601 423.306 590.893 422.333 591.477L421.299 589.41C422.542 588.624 423.894 588.231 425.354 588.231C426.679 588.231 427.686 588.613 428.375 589.376C429.071 590.133 429.419 591.207 429.419 592.6V601H427.229ZM424.635 598.889C425.181 598.889 425.616 598.645 425.938 598.159C426.267 597.665 426.432 597.009 426.432 596.193V595.138L425.511 595.183C424.829 595.22 424.328 595.415 424.006 595.767C423.691 596.118 423.534 596.643 423.534 597.339C423.534 598.372 423.901 598.889 424.635 598.889ZM441.188 598.653H442.873V605.458H439.897V601H431.833V588.489H434.821V598.585H438.179V588.489H441.188V598.653ZM447.186 588.489V594.284C447.186 595.003 447.096 596.197 446.916 597.867L450.981 588.489H454.643V601H451.857V595.115C451.857 594.232 451.944 593.041 452.116 591.544L448.039 601H444.412V588.489H447.186ZM459.371 601H455.99L459.101 595.868C457.596 595.269 456.844 594.104 456.844 592.375C456.844 591.155 457.248 590.204 458.057 589.522C458.873 588.834 459.992 588.489 461.415 588.489H466.019V601H463.032V596.283H461.954L459.371 601ZM459.876 592.397C459.876 593.521 460.497 594.082 461.74 594.082H463.032V590.724H461.493C460.415 590.724 459.876 591.282 459.876 592.397ZM473.757 596.036V593.599H483.112V596.036H473.757ZM493.848 588.489V593.363H497.229V588.489H500.238V601H497.229V595.755H493.848V601H490.861V588.489H493.848ZM508.897 601L508.302 599.293H508.234C507.793 600.027 507.336 600.532 506.864 600.809C506.393 601.086 505.797 601.225 505.079 601.225C504.158 601.225 503.431 600.88 502.9 600.191C502.376 599.503 502.114 598.544 502.114 597.316C502.114 595.999 502.473 595.022 503.192 594.385C503.918 593.741 505 593.386 506.438 593.318L508.1 593.251V592.353C508.1 591.185 507.594 590.601 506.583 590.601C505.835 590.601 504.974 590.893 504 591.477L502.967 589.41C504.21 588.624 505.562 588.231 507.021 588.231C508.347 588.231 509.354 588.613 510.042 589.376C510.739 590.133 511.087 591.207 511.087 592.6V601H508.897ZM506.303 598.889C506.849 598.889 507.284 598.645 507.605 598.159C507.935 597.665 508.1 597.009 508.1 596.193V595.138L507.179 595.183C506.497 595.22 505.996 595.415 505.674 595.767C505.359 596.118 505.202 596.643 505.202 597.339C505.202 598.372 505.569 598.889 506.303 598.889ZM528.168 601H513.501V588.489H516.489V598.585H519.319V588.489H522.329V598.585H525.159V588.489H528.168V601ZM536.838 601L536.243 599.293H536.176C535.734 600.027 535.277 600.532 534.806 600.809C534.334 601.086 533.739 601.225 533.02 601.225C532.099 601.225 531.373 600.88 530.841 600.191C530.317 599.503 530.055 598.544 530.055 597.316C530.055 595.999 530.415 595.022 531.133 594.385C531.86 593.741 532.941 593.386 534.379 593.318L536.041 593.251V592.353C536.041 591.185 535.536 590.601 534.525 590.601C533.776 590.601 532.915 590.893 531.942 591.477L530.909 589.41C532.152 588.624 533.503 588.231 534.963 588.231C536.288 588.231 537.295 588.613 537.984 589.376C538.68 590.133 539.028 591.207 539.028 592.6V601H536.838ZM534.244 598.889C534.791 598.889 535.225 598.645 535.547 598.159C535.876 597.665 536.041 597.009 536.041 596.193V595.138L535.12 595.183C534.439 595.22 533.937 595.415 533.615 595.767C533.301 596.118 533.144 596.643 533.144 597.339C533.144 598.372 533.51 598.889 534.244 598.889ZM377.534 625.722C377.534 627.774 377.1 629.372 376.231 630.518C375.363 631.656 374.173 632.225 372.66 632.225C371.702 632.225 370.856 631.963 370.122 631.438C369.388 630.914 368.823 630.162 368.426 629.181C368.029 628.193 367.831 627.04 367.831 625.722C367.831 623.693 368.262 622.11 369.123 620.972C369.984 619.826 371.178 619.253 372.705 619.253C374.18 619.253 375.352 619.837 376.22 621.005C377.096 622.166 377.534 623.738 377.534 625.722ZM370.886 625.722C370.886 627.025 371.028 628.009 371.312 628.676C371.597 629.342 372.054 629.675 372.683 629.675C373.881 629.675 374.479 628.358 374.479 625.722C374.479 624.412 374.333 623.435 374.042 622.791C373.757 622.14 373.304 621.814 372.683 621.814C372.054 621.814 371.597 622.14 371.312 622.791C371.028 623.435 370.886 624.412 370.886 625.722ZM383.767 632.225C382.277 632.225 381.143 631.682 380.364 630.596C379.586 629.511 379.196 627.916 379.196 625.812C379.196 623.611 379.563 621.967 380.297 620.882C381.038 619.796 382.18 619.253 383.722 619.253C384.186 619.253 384.673 619.321 385.182 619.456C385.691 619.59 386.148 619.785 386.552 620.04L385.699 622.364C385.077 621.997 384.527 621.814 384.048 621.814C383.411 621.814 382.951 622.147 382.667 622.813C382.389 623.472 382.251 624.464 382.251 625.79C382.251 627.085 382.389 628.054 382.667 628.698C382.944 629.335 383.396 629.653 384.025 629.653C384.774 629.653 385.556 629.391 386.373 628.867V631.495C385.586 631.981 384.718 632.225 383.767 632.225ZM391.157 619.489V624.363H394.537V619.489H397.547V632H394.537V626.755H391.157V632H388.169V619.489H391.157ZM409.339 625.722C409.339 627.774 408.905 629.372 408.036 630.518C407.168 631.656 405.977 632.225 404.465 632.225C403.507 632.225 402.66 631.963 401.927 631.438C401.193 630.914 400.628 630.162 400.231 629.181C399.834 628.193 399.636 627.04 399.636 625.722C399.636 623.693 400.066 622.11 400.927 620.972C401.788 619.826 402.982 619.253 404.51 619.253C405.985 619.253 407.156 619.837 408.025 621.005C408.901 622.166 409.339 623.738 409.339 625.722ZM402.69 625.722C402.69 627.025 402.833 628.009 403.117 628.676C403.402 629.342 403.858 629.675 404.487 629.675C405.685 629.675 406.284 628.358 406.284 625.722C406.284 624.412 406.138 623.435 405.846 622.791C405.562 622.14 405.109 621.814 404.487 621.814C403.858 621.814 403.402 622.14 403.117 622.791C402.833 623.435 402.69 624.412 402.69 625.722ZM420.356 622.735C420.356 623.439 420.146 624.026 419.727 624.498C419.315 624.962 418.713 625.262 417.919 625.396V625.486C418.795 625.599 419.48 625.902 419.974 626.396C420.476 626.883 420.727 627.515 420.727 628.294C420.727 629.492 420.304 630.409 419.458 631.045C418.611 631.682 417.402 632 415.83 632H411.439V619.489H415.808C418.84 619.489 420.356 620.571 420.356 622.735ZM417.627 628.114C417.627 627.583 417.455 627.201 417.11 626.969C416.766 626.737 416.246 626.621 415.549 626.621H414.426V629.765H415.594C416.949 629.765 417.627 629.215 417.627 628.114ZM417.301 623.004C417.301 622.181 416.755 621.769 415.662 621.769H414.426V624.408H415.325C415.984 624.408 416.478 624.303 416.807 624.094C417.137 623.877 417.301 623.514 417.301 623.004ZM425.567 619.489V624.363H428.947V619.489H431.957V632H428.947V626.755H425.567V632H422.58V619.489H425.567ZM440.616 632L440.021 630.293H439.953C439.511 631.027 439.055 631.532 438.583 631.809C438.111 632.086 437.516 632.225 436.797 632.225C435.876 632.225 435.15 631.88 434.619 631.191C434.095 630.503 433.833 629.544 433.833 628.316C433.833 626.999 434.192 626.022 434.911 625.385C435.637 624.741 436.719 624.386 438.156 624.318L439.818 624.251V623.353C439.818 622.185 439.313 621.601 438.302 621.601C437.554 621.601 436.693 621.893 435.719 622.477L434.686 620.41C435.929 619.624 437.28 619.231 438.74 619.231C440.065 619.231 441.072 619.613 441.761 620.376C442.458 621.133 442.806 622.207 442.806 623.6V632H440.616ZM438.021 629.889C438.568 629.889 439.002 629.645 439.324 629.159C439.654 628.665 439.818 628.009 439.818 627.193V626.138L438.897 626.183C438.216 626.22 437.715 626.415 437.393 626.767C437.078 627.118 436.921 627.643 436.921 628.339C436.921 629.372 437.288 629.889 438.021 629.889ZM447.399 632H444.019L447.129 626.868C445.625 626.269 444.872 625.104 444.872 623.375C444.872 622.155 445.276 621.204 446.085 620.522C446.901 619.834 448.02 619.489 449.443 619.489H454.047V632H451.06V627.283H449.982L447.399 632ZM447.904 623.397C447.904 624.521 448.526 625.082 449.769 625.082H451.06V621.724H449.521C448.443 621.724 447.904 622.282 447.904 623.397ZM471.623 629.653H473.308V636.458H470.332V632H462.268V619.489H465.255V629.585H468.613V619.489H471.623V629.653ZM479.462 632.225C477.897 632.225 476.662 631.671 475.756 630.562C474.857 629.447 474.408 627.871 474.408 625.834C474.408 623.768 474.816 622.155 475.632 620.994C476.448 619.834 477.586 619.253 479.046 619.253C480.409 619.253 481.483 619.751 482.27 620.747C483.056 621.735 483.449 623.124 483.449 624.914V626.508H477.44C477.463 627.624 477.691 628.455 478.125 629.001C478.56 629.541 479.159 629.81 479.922 629.81C480.896 629.81 481.891 629.507 482.91 628.9V631.36C481.951 631.936 480.802 632.225 479.462 632.225ZM479.024 621.556C478.597 621.556 478.245 621.784 477.968 622.241C477.691 622.69 477.53 623.39 477.485 624.341H480.518C480.503 623.427 480.364 622.735 480.102 622.263C479.84 621.792 479.481 621.556 479.024 621.556ZM488.413 619.489V624.363H491.793V619.489H494.803V632H491.793V626.755H488.413V632H485.425V619.489H488.413ZM500.317 619.489V624.363H503.697V619.489H506.707V632H503.697V626.755H500.317V632H497.33V619.489H500.317ZM518.499 625.722C518.499 627.774 518.065 629.372 517.196 630.518C516.328 631.656 515.137 632.225 513.625 632.225C512.667 632.225 511.821 631.963 511.087 631.438C510.353 630.914 509.788 630.162 509.391 629.181C508.994 628.193 508.796 627.04 508.796 625.722C508.796 623.693 509.226 622.11 510.087 620.972C510.948 619.826 512.143 619.253 513.67 619.253C515.145 619.253 516.317 619.837 517.185 621.005C518.061 622.166 518.499 623.738 518.499 625.722ZM511.851 625.722C511.851 627.025 511.993 628.009 512.277 628.676C512.562 629.342 513.019 629.675 513.647 629.675C514.845 629.675 515.444 628.358 515.444 625.722C515.444 624.412 515.298 623.435 515.006 622.791C514.722 622.14 514.269 621.814 513.647 621.814C513.019 621.814 512.562 622.14 512.277 622.791C511.993 623.435 511.851 624.412 511.851 625.722ZM524.732 632.225C523.242 632.225 522.108 631.682 521.329 630.596C520.55 629.511 520.161 627.916 520.161 625.812C520.161 623.611 520.528 621.967 521.262 620.882C522.003 619.796 523.145 619.253 524.687 619.253C525.151 619.253 525.638 619.321 526.147 619.456C526.656 619.59 527.113 619.785 527.517 620.04L526.664 622.364C526.042 621.997 525.492 621.814 525.013 621.814C524.376 621.814 523.916 622.147 523.631 622.813C523.354 623.472 523.216 624.464 523.216 625.79C523.216 627.085 523.354 628.054 523.631 628.698C523.908 629.335 524.361 629.653 524.99 629.653C525.739 629.653 526.521 629.391 527.337 628.867V631.495C526.551 631.981 525.683 632.225 524.732 632.225ZM536.838 619.489V621.904H534.053V632H531.066V621.904H528.281V619.489H536.838ZM541.51 624.386H542.566C544.236 624.386 545.463 624.689 546.25 625.295C547.043 625.902 547.44 626.819 547.44 628.047C547.44 630.682 545.785 632 542.476 632H538.523V619.489H541.51V624.386ZM544.363 628.114C544.363 627.583 544.202 627.201 543.88 626.969C543.565 626.737 543.06 626.621 542.364 626.621H541.51V629.765H542.409C543.03 629.765 543.509 629.642 543.846 629.395C544.191 629.14 544.363 628.713 544.363 628.114ZM552.471 626.71H550.012L549.461 615.581H553.044L552.471 626.71ZM549.372 630.461C549.372 629.877 549.525 629.424 549.832 629.103C550.146 628.781 550.611 628.62 551.225 628.62C551.839 628.62 552.303 628.781 552.617 629.103C552.932 629.417 553.089 629.87 553.089 630.461C553.089 631.045 552.924 631.498 552.595 631.82C552.273 632.142 551.816 632.303 551.225 632.303C550.618 632.303 550.158 632.142 549.843 631.82C549.529 631.491 549.372 631.038 549.372 630.461Z" fill="black"/>
</svg>
